<svg xmlns="http://www.w3.org/2000/svg" width="1080" height="1080" fill="none" viewBox="0 0 1080 1080"><rect width="1080" height="1080"/><path fill="#F2EBDD" d="M367.447 228.951L280.724 70.5353V228.951V864.925V925.053L367.447 864.925V228.951Z"/><rect width="275.831" height="86.724" x="296.334" y="407.023" fill="#F2EBDD" transform="rotate(30 296.334 407.023)"/><mask id="mask0_12_9" style="mask-type:alpha" width="283" height="855" x="556" y="73" maskUnits="userSpaceOnUse"><path fill="#D9D9D9" d="M712.112 231.631L798.835 73.2153V231.631V867.605V927.733L712.112 867.605V231.631Z"/><rect width="275.831" height="86.724" fill="#D9D9D9" transform="matrix(-0.866025 0.5 0.5 0.866025 794.886 402.766)"/></mask><g mask="url(#mask0_12_9)"><rect width="695.545" height="1138.9" x="177.811" y="-37.995" fill="url(#paint0_radial_12_9)"/></g><path fill="#F2EBDD" d="M885.478 228.951L798.754 70.5353V228.951V864.925V925.053L885.478 864.925V228.951Z"/><path fill="#F2EBDD" d="M626.462 158.415L539.739 0V158.415V794.39V854.518L626.462 794.39V158.415Z"/><path fill="#F2EBDD" d="M626.462 383.897L539.739 225.482V383.897V1019.87V1080L626.462 1019.87V383.897Z"/><rect width="275.831" height="86.724" fill="#F2EBDD" transform="matrix(-0.866025 0.5 0.5 0.866025 799.332 497.216)"/><mask id="mask1_12_9" style="mask-type:alpha" width="346" height="1080" x="194" y="0" maskUnits="userSpaceOnUse"><path fill="#D9D9D9" d="M194 228.951L280.724 70.5353V228.951V864.925V925.053L194 864.925V228.951Z"/><path fill="#D9D9D9" d="M453.015 158.415L539.739 0V158.415V794.39V854.518L453.015 794.39V158.415Z"/><path fill="#D9D9D9" d="M453.015 383.897L539.739 225.482V383.897V1019.87V1080L453.015 1019.87V383.897Z"/><rect width="275.831" height="86.724" x="280.146" y="497.216" fill="#D9D9D9" transform="rotate(30 280.146 497.216)"/></mask><g mask="url(#mask1_12_9)"><rect width="695.545" height="1138.9" x="145.19" y="-20.338" fill="url(#paint1_radial_12_9)"/></g><defs><radialGradient id="paint0_radial_12_9" cx="0" cy="0" r="1" gradientTransform="translate(784.639 -7.10965) rotate(113.072) scale(1204.35 923.371)" gradientUnits="userSpaceOnUse"><stop stop-color="#9B9ECD"/><stop offset=".551" stop-color="#F2AD96"/><stop offset="1" stop-color="#EDC483"/></radialGradient><radialGradient id="paint1_radial_12_9" cx="0" cy="0" r="1" gradientTransform="translate(752.017 10.5479) rotate(113.072) scale(1204.35 923.371)" gradientUnits="userSpaceOnUse"><stop stop-color="#9B9ECD"/><stop offset=".551" stop-color="#F2AD96"/><stop offset="1" stop-color="#EDC483"/></radialGradient></defs></svg>