<?xml version="1.0" encoding="UTF-8" standalone="no"?><!DOCTYPE svg PUBLIC "-//W3C//DTD SVG 1.1//EN" "http://www.w3.org/Graphics/SVG/1.1/DTD/svg11.dtd"><svg width="100%" height="100%" viewBox="0 0 1282 803" version="1.1" xmlns="http://www.w3.org/2000/svg" xmlns:xlink="http://www.w3.org/1999/xlink" xml:space="preserve" xmlns:serif="http://www.serif.com/" style="fill-rule:evenodd;clip-rule:evenodd;stroke-linecap:round;stroke-linejoin:round;stroke-miterlimit:10;"><g id="HTH-Design" serif:id="HTH Design"><rect x="0" y="0" width="1281.56" height="802.265" style="fill:#263572;"/><path d="M364.323,624.762l71.544,40.911c2.924,1.672 3.93,5.383 2.248,8.289l-41.156,71.119c-1.681,2.906 -5.415,3.907 -8.339,2.235l-71.544,-40.912c-2.923,-1.671 -3.931,-5.383 -2.249,-8.289l41.157,-71.118c1.682,-2.906 5.415,-3.907 8.339,-2.235" style="fill:#5b6dbc;fill-rule:nonzero;"/><path d="M137.315,196.454l-26.17,-44.896c-1.094,-1.876 -1.097,-4.191 -0.01,-6.071l26.029,-44.978c1.088,-1.88 3.102,-3.04 5.284,-3.044l52.199,-0.08c2.182,-0.004 4.2,1.15 5.294,3.027l26.171,44.896c1.093,1.876 1.097,4.19 0.009,6.07l-26.029,44.978c-1.087,1.88 -3.101,3.041 -5.284,3.044l-52.198,0.081c-2.183,0.004 -4.2,-1.15 -5.295,-3.027" style="fill:#3e5087;fill-rule:nonzero;"/><path d="M1133.39,703.483l-58.184,-44.689c-1.727,-1.326 -2.61,-3.467 -2.318,-5.617l9.842,-72.433c0.292,-2.15 1.715,-3.98 3.734,-4.804l68.026,-27.744c2.018,-0.823 4.325,-0.513 6.052,0.813l58.183,44.689c1.727,1.327 2.611,3.467 2.318,5.617l-9.842,72.433c-0.292,2.149 -1.715,3.98 -3.734,4.804l-68.026,27.744c-2.018,0.823 -4.325,0.514 -6.051,-0.813" style="fill:#5b6dbc;fill-rule:nonzero;"/><path d="M1150.8,39.291l31.25,134.083c1.061,4.553 -3.234,8.541 -7.731,7.178l-132.44,-40.141c-4.497,-1.363 -5.823,-7.053 -2.387,-10.244l101.191,-93.943c3.435,-3.19 9.057,-1.487 10.117,3.067" style="fill:#5b6dbc;fill-rule:nonzero;"/><path d="M252.078,145.434l-34.299,43.658c-1.343,1.709 -3.502,2.576 -5.663,2.275l-51.692,-7.211c-2.16,-0.301 -3.996,-1.726 -4.813,-3.737l-19.565,-48.106c-0.818,-2.01 -0.495,-4.302 0.848,-6.012l32.129,-40.895c1.343,-1.71 3.502,-2.577 5.662,-2.275l51.693,7.21c2.161,0.302 3.996,1.726 4.814,3.737l7.009,17.235" style="fill:none;stroke:#dabfff;stroke-width:5px;"/><path d="M556.366,155.566c1.246,-3.115 4.797,-4.637 7.931,-3.398l9.504,3.756l25.825,10.208c3.135,1.239 4.666,4.769 3.419,7.885l-14.048,35.118c-1.246,3.116 -4.798,4.637 -7.932,3.398l-35.328,-13.964c-3.134,-1.238 -4.665,-4.769 -3.419,-7.884l3.037,-7.591" style="fill:none;stroke:#dabfff;stroke-width:5px;stroke-linejoin:miter;"/><path d="M876.075,61.281l8,0c2.182,0 4.198,1.158 5.289,3.036l7.999,13.773c1.092,1.878 1.092,4.192 0,6.071l-7.999,13.773c-1.091,1.877 -3.107,3.035 -5.289,3.035l-15.999,0c-2.181,0 -4.198,-1.158 -5.289,-3.035l-7.999,-13.773c-1.091,-1.879 -1.091,-4.193 0,-6.071l4.745,-8.17" style="fill:none;stroke:#dabfff;stroke-width:5px;stroke-linejoin:miter;"/><path d="M1011.59,156.507l-15.736,0c-4.701,0 -7.639,-5.059 -5.289,-9.106l69.23,-119.196c2.35,-4.047 8.227,-4.047 10.578,0l69.229,119.196c2.351,4.047 -0.587,9.106 -5.289,9.106l-59.875,0" style="fill:none;stroke:#dabfff;stroke-width:5px;stroke-linejoin:miter;"/><path d="M158.288,469.057l5.768,4.378c3.736,2.836 2.983,8.63 -1.356,10.429l-48.45,20.081c-4.34,1.799 -9.01,-1.746 -8.408,-6.381l6.73,-51.751c0.603,-4.635 6.027,-6.883 9.763,-4.047l3.572,2.712" style="fill:none;stroke:#dabfff;stroke-width:5px;stroke-linejoin:miter;"/><path d="M401.054,598.649l25.45,6.736c3.26,0.864 5.198,4.189 4.33,7.429l-21.237,79.284c-0.868,3.24 -4.213,5.166 -7.473,4.304l-79.758,-21.111c-3.26,-0.862 -5.198,-4.188 -4.331,-7.428l21.237,-79.284c0.869,-3.24 4.214,-5.167 7.473,-4.305l18.395,4.87" style="fill:none;stroke:#dabfff;stroke-width:5px;stroke-linejoin:miter;"/><path d="M684.505,590.514l0.305,-6.084c0.234,-4.668 5.463,-7.333 9.413,-4.798l17.718,11.375c3.949,2.535 3.655,8.37 -0.527,10.502l-18.769,9.564c-4.184,2.133 -9.12,-1.036 -8.886,-5.704" style="fill:none;stroke:#dabfff;stroke-width:5px;stroke-linejoin:miter;"/><path d="M720.185,580.509l-14.89,14.848c-3.319,3.31 -8.998,1.808 -10.222,-2.705l-5.49,-20.243c-1.224,-4.512 2.924,-8.649 7.467,-7.447l20.381,5.394c4.544,1.204 6.073,6.844 2.754,10.153" style="fill:#3e5087;fill-rule:nonzero;"/><path d="M575.771,166.571l32.955,18.846c2.924,1.671 3.93,5.383 2.249,8.289l-18.958,32.759c-1.682,2.907 -5.416,3.908 -8.339,2.236l-32.956,-18.846c-2.924,-1.671 -3.93,-5.383 -2.248,-8.289l18.958,-32.759c1.682,-2.906 5.415,-3.908 8.339,-2.236" style="fill:#5b6dbc;fill-rule:nonzero;"/><path d="M878.788,116.3l-15.627,-3.407c-2.131,-0.465 -3.852,-2.024 -4.512,-4.091l-4.845,-15.157c-0.661,-2.067 -0.163,-4.327 1.307,-5.93l10.783,-11.749c1.47,-1.602 3.689,-2.303 5.82,-1.839l15.627,3.407c2.131,0.465 3.852,2.024 4.513,4.091l4.844,15.157c0.661,2.067 0.163,4.327 -1.308,5.93l-10.781,11.75c-1.471,1.602 -3.69,2.303 -5.821,1.838" style="fill:#3e5087;fill-rule:nonzero;"/><path d="M129.233,459.149l37.177,36.84c3.329,3.299 1.818,8.944 -2.722,10.161l-50.683,13.585c-4.539,1.216 -8.701,-2.907 -7.492,-7.424l13.507,-50.424c1.21,-4.516 6.884,-6.037 10.213,-2.738" style="fill:#3e5087;fill-rule:nonzero;"/><path d="M1198.11,558.66l15.032,47.02c0.661,2.067 0.163,4.328 -1.308,5.93l-49.553,54c-1.47,1.603 -3.688,2.303 -5.82,1.839l-71.821,-15.659c-2.131,-0.464 -3.852,-2.024 -4.512,-4.091l-22.269,-69.658c-0.661,-2.067 -0.162,-4.327 1.308,-5.93l49.552,-53.999c1.471,-1.603 3.69,-2.304 5.82,-1.839l55.454,12.09" style="fill:none;stroke:#dabfff;stroke-width:5px;stroke-linejoin:miter;"/></g></svg>