<?xml version="1.0" encoding="UTF-8" standalone="no"?><!DOCTYPE svg PUBLIC "-//W3C//DTD SVG 1.1//EN" "http://www.w3.org/Graphics/SVG/1.1/DTD/svg11.dtd"><svg width="100%" height="100%" viewBox="0 0 1282 803" version="1.1" xmlns="http://www.w3.org/2000/svg" xmlns:xlink="http://www.w3.org/1999/xlink" xml:space="preserve" xmlns:serif="http://www.serif.com/" style="fill-rule:evenodd;clip-rule:evenodd;stroke-miterlimit:10;"><g id="HTH-Design" serif:id="HTH Design"><rect x="0" y="0" width="1281.56" height="802.265" style="fill:#263572;"/><path d="M364.323,624.762l71.544,40.911c2.924,1.672 3.93,5.383 2.248,8.289l-41.156,71.119c-1.681,2.906 -5.415,3.907 -8.339,2.235l-71.544,-40.912c-2.923,-1.671 -3.931,-5.383 -2.249,-8.289l41.157,-71.118c1.682,-2.906 5.415,-3.907 8.339,-2.235" style="fill:#5b6dbc;fill-rule:nonzero;"/><path d="M137.315,196.454l-26.17,-44.896c-1.094,-1.876 -1.097,-4.191 -0.01,-6.071l26.029,-44.978c1.088,-1.88 3.102,-3.04 5.284,-3.044l52.199,-0.08c2.182,-0.004 4.2,1.15 5.294,3.027l26.171,44.896c1.093,1.876 1.097,4.19 0.009,6.07l-26.029,44.978c-1.087,1.88 -3.101,3.041 -5.284,3.044l-52.198,0.081c-2.183,0.004 -4.2,-1.15 -5.295,-3.027" style="fill:#3e5087;fill-rule:nonzero;"/><path d="M1133.39,703.483l-58.184,-44.689c-1.727,-1.326 -2.61,-3.467 -2.318,-5.617l9.842,-72.433c0.292,-2.15 1.715,-3.98 3.734,-4.804l68.026,-27.744c2.018,-0.823 4.325,-0.513 6.052,0.813l58.183,44.689c1.727,1.327 2.611,3.467 2.318,5.617l-9.842,72.433c-0.292,2.149 -1.715,3.98 -3.734,4.804l-68.026,27.744c-2.018,0.823 -4.325,0.514 -6.051,-0.813" style="fill:#5b6dbc;fill-rule:nonzero;"/><path d="M1150.8,39.291l31.25,134.083c1.061,4.553 -3.234,8.541 -7.731,7.178l-132.44,-40.141c-4.497,-1.363 -5.823,-7.053 -2.387,-10.244l101.191,-93.943c3.435,-3.19 9.057,-1.487 10.117,3.067" style="fill:#5b6dbc;fill-rule:nonzero;"/><g><g><path d="M725.13,345.571l89.312,-51.443l0.163,102.608l-89.475,-51.165Z" style="fill:#3e5087;fill-rule:nonzero;"/><path d="M903.917,345.293l-89.475,-51.165l0.163,102.608l89.312,-51.443Z" style="fill:#5b6dbc;fill-rule:nonzero;"/><path d="M858.633,468.815c-0.076,-16.662 -0.145,-33.326 -0.228,-49.989c-0.041,-8.362 -0.107,-16.725 -0.155,-25.086c-0.05,-8.49 -0.107,-16.979 -0.131,-25.468c-0.046,-16.317 -0.071,-32.635 -0.105,-48.952c-0.001,-0.373 -0.001,-0.747 -0.002,-1.093c-1.548,-0.372 -1.595,-0.497 -1.453,-2.051c0.071,-0.779 -0.035,-1.574 -0.038,-2.362c-0.011,-3.517 0.001,-7.034 -0.039,-10.551c-0.003,-0.383 -0.248,-0.782 -0.442,-1.14c-0.198,-0.364 -0.59,-0.655 -0.694,-1.034c-0.545,-1.977 -1.02,-3.973 -1.53,-5.96c-0.998,-3.885 -2.033,-7.762 -2.993,-11.658c-0.443,-1.802 -0.758,-3.636 -1.099,-5.461c-0.098,-0.524 0.03,-0.912 0.742,-0.915c0.204,-0.001 0.558,-0.472 0.566,-0.737c0.007,-0.262 -0.325,-0.755 -0.523,-0.763c-0.731,-0.028 -0.814,-0.406 -0.808,-0.992c0.019,-1.679 -0.008,-3.358 0.006,-5.037c0.005,-0.674 -0.095,-1.213 -0.945,-1.222c-0.869,-0.008 -1.063,0.513 -1.058,1.243c0.013,1.648 -0.002,3.295 0.017,4.943c0.007,0.604 -0.052,1.051 -0.846,1.071c-0.172,0.005 -0.448,0.524 -0.457,0.812c-0.007,0.228 0.313,0.658 0.503,0.667c0.777,0.037 0.89,0.496 0.85,1.092c-0.026,0.409 -0.059,0.826 -0.163,1.221c-0.952,3.635 -1.945,7.259 -2.879,10.899c-0.925,3.613 -1.783,7.243 -2.714,10.854c-0.091,0.354 -0.473,0.878 -0.75,0.895c-0.92,0.062 -0.975,0.564 -0.971,1.279c0.026,4.245 0.024,8.491 0.03,12.736c0.002,1.913 0.002,1.913 -1.902,1.919c-1.498,0.005 -1.541,0.048 -1.538,1.572c0.004,3.422 0.011,6.844 0.013,10.265c0,0.435 0.086,1.041 -0.565,0.986c-1.35,-0.114 -1.314,0.734 -1.311,1.638c0.013,3.961 0.015,7.922 0.021,11.882c0.001,0.469 0.1,1.083 -0.602,1.017c-0.214,-0.021 -0.524,-0.635 -0.529,-0.982c-0.039,-2.787 0.007,-5.575 -0.035,-8.363c-0.007,-0.452 -0.206,-1.165 -0.519,-1.303c-1.352,-0.599 -2.746,-1.188 -4.186,-1.484c-2.15,-0.441 -4.126,0.362 -6.056,1.257c-0.81,0.375 -1.117,0.901 -1.105,1.775c0.041,2.725 0.03,5.45 0.017,8.175c-0.002,0.351 0.241,0.951 -0.454,0.889c-0.166,-0.016 -0.405,-0.561 -0.408,-0.864c-0.033,-3.77 -0.036,-7.54 -0.033,-11.311c0.002,-2.47 0.137,-2.267 -2.268,-2.259c-2.635,0.009 -2.64,0.005 -2.673,-2.618c-0.007,-0.57 -0.027,-1.063 -0.765,-1.212c-0.175,-0.036 -0.376,-0.466 -0.383,-0.72c-0.039,-1.488 -0.012,-2.978 -0.031,-4.467c-0.007,-0.542 0.156,-0.859 0.76,-0.802c0.685,0.064 0.964,-0.233 1.003,-0.93c0.013,-0.236 0.413,-0.612 0.669,-0.642c0.612,-0.071 0.946,-0.389 0.829,-0.908c-0.082,-0.368 -0.455,-0.873 -0.777,-0.941c-0.609,-0.129 -0.813,-0.343 -0.76,-0.937c0.055,-0.615 -0.257,-1.03 -0.899,-0.918c-0.858,0.15 -1.053,-0.182 -1.055,-0.968c0,-0.263 -0.52,-0.776 -0.695,-0.733c-0.338,0.079 -0.871,0.508 -0.844,0.735c0.118,0.996 -0.369,1.055 -1.134,0.963c-0.63,-0.075 -1.031,0.302 -0.939,0.897c0.111,0.706 -0.158,0.832 -0.776,0.971c-0.307,0.068 -0.626,0.61 -0.712,0.989c-0.107,0.467 0.144,0.866 0.757,0.821c0.568,-0.042 0.827,0.208 0.755,0.792c-0.079,0.639 0.288,0.864 0.863,0.813c0.669,-0.06 0.92,0.244 0.914,0.884c-0.014,1.457 0.013,2.915 -0.011,4.373c-0.004,0.245 -0.136,0.667 -0.284,0.704c-0.705,0.17 -0.655,0.669 -0.648,1.183c0.008,0.475 0.005,0.951 0.004,1.426c-0.001,1.225 -0.029,1.252 -1.306,1.258c-0.765,0.003 -1.534,0.045 -2.295,-0.006c-0.899,-0.06 -1.242,0.253 -1.232,1.189c0.046,4.023 0.038,8.048 0.021,12.071c-0.002,0.442 0.319,1.213 -0.452,1.224c-0.817,0.011 -0.541,-0.803 -0.543,-1.269c-0.01,-2.628 0.007,-5.257 0.068,-7.885c0.022,-0.979 -0.378,-1.541 -1.3,-1.826c-1.182,-0.366 -2.37,-0.727 -3.517,-1.183c-0.791,-0.316 -1.486,-0.355 -2.288,-0.015c-1.049,0.446 -2.154,0.764 -3.244,1.115c-1.489,0.478 -1.497,0.476 -1.495,2.051c0.005,2.725 0.018,5.451 0.001,8.175c-0.002,0.281 -0.118,0.618 -0.304,0.817c-0.104,0.111 -0.58,0.085 -0.672,-0.039c-0.165,-0.222 -0.226,-0.564 -0.228,-0.856c-0.02,-4.15 -0.029,-8.301 -0.022,-12.452c0.002,-0.669 -0.141,-1.161 -0.938,-1.075c-1.014,0.107 -1.205,-0.385 -1.195,-1.291c0.041,-3.453 -0.001,-6.907 0.01,-10.361c0.002,-0.695 -0.143,-1.223 -0.965,-1.202c-1.986,0.051 -1.782,-0.274 -1.823,-2.002c-0.01,-0.443 -0.003,-0.887 -0.003,-1.33c-0.006,-3.77 -0.013,-7.541 -0.015,-11.312c-0.001,-0.667 0.01,-1.284 -0.956,-1.305c-0.212,-0.004 -0.526,-0.429 -0.602,-0.711c-0.64,-2.379 -1.238,-4.77 -1.845,-7.159c-1.011,-3.977 -2.039,-7.951 -3.019,-11.937c-0.337,-1.374 -0.575,-2.774 -0.811,-4.169c-0.084,-0.504 0.021,-0.952 0.745,-0.904c0.578,0.037 0.716,-0.413 0.597,-0.839c-0.077,-0.278 -0.391,-0.693 -0.604,-0.695c-0.701,-0.012 -0.755,-0.374 -0.749,-0.916c0.018,-1.711 -0.006,-3.422 0.009,-5.132c0.006,-0.682 -0.114,-1.192 -0.965,-1.2c-0.873,-0.008 -1.058,0.473 -1.045,1.224c0.03,1.678 0.009,3.358 0.021,5.037c0.004,0.527 -0.064,0.909 -0.738,0.988c-0.231,0.027 -0.523,0.429 -0.597,0.708c-0.11,0.419 -0.004,0.845 0.607,0.815c0.618,-0.031 0.762,0.344 0.73,0.855c-0.027,0.441 -0.011,0.896 -0.117,1.319c-0.997,4.016 -2.012,8.026 -3.029,12.037c-0.852,3.36 -1.712,6.718 -2.578,10.074c-0.051,0.196 -0.158,0.498 -0.294,0.532c-0.968,0.244 -0.95,0.973 -0.948,1.727c0.015,4.499 0.009,8.998 0.045,13.497c0.004,0.608 -0.109,0.907 -0.776,0.823c-0.693,-0.089 -0.904,0.296 -0.856,0.916c0.016,0.22 0.003,0.443 0.003,0.665c0.09,56.906 0.05,67.372 0.223,124.276l87.871,2.576c-0.009,-8.047 0.052,30.344 0.016,22.297" style="fill:#263572;fill-rule:nonzero;"/><path d="M853.15,463.968c-0.075,-16.664 -0.145,-33.327 -0.227,-49.99c-0.041,-8.362 -0.108,-16.724 -0.156,-25.086c-0.049,-8.489 -0.107,-16.979 -0.131,-25.468c-0.046,-16.318 -0.071,-32.635 -0.104,-48.952c-0.001,-0.374 -0.002,-0.746 -0.002,-1.092c-1.548,-0.373 -1.595,-0.499 -1.454,-2.052c0.071,-0.78 -0.034,-1.574 -0.037,-2.363c-0.012,-3.516 0,-7.033 -0.039,-10.55c-0.004,-0.383 -0.248,-0.781 -0.442,-1.14c-0.198,-0.364 -0.59,-0.656 -0.695,-1.034c-0.544,-1.977 -1.019,-3.973 -1.529,-5.96c-0.998,-3.886 -2.034,-7.763 -2.993,-11.658c-0.444,-1.802 -0.758,-3.636 -1.1,-5.462c-0.098,-0.523 0.031,-0.911 0.743,-0.915c0.204,0 0.557,-0.472 0.566,-0.736c0.007,-0.262 -0.326,-0.756 -0.523,-0.763c-0.732,-0.027 -0.815,-0.407 -0.808,-0.991c0.018,-1.68 -0.008,-3.359 0.005,-5.038c0.006,-0.674 -0.094,-1.212 -0.945,-1.222c-0.869,-0.009 -1.063,0.513 -1.058,1.243c0.013,1.647 -0.002,3.295 0.017,4.942c0.007,0.604 -0.051,1.053 -0.846,1.073c-0.171,0.004 -0.447,0.523 -0.456,0.811c-0.007,0.228 0.313,0.657 0.503,0.667c0.776,0.037 0.889,0.496 0.85,1.091c-0.027,0.41 -0.06,0.827 -0.163,1.221c-0.953,3.635 -1.946,7.26 -2.879,10.9c-0.926,3.613 -1.783,7.243 -2.714,10.855c-0.091,0.353 -0.474,0.876 -0.75,0.894c-0.92,0.062 -0.976,0.564 -0.971,1.278c0.025,4.246 0.023,8.492 0.029,12.737c0.003,1.913 0.002,1.913 -1.902,1.919c-1.497,0.005 -1.54,0.048 -1.538,1.572c0.005,3.422 0.011,6.843 0.013,10.266c0.001,0.434 0.086,1.04 -0.565,0.984c-1.35,-0.113 -1.313,0.735 -1.31,1.639c0.012,3.961 0.015,7.921 0.021,11.882c0.001,0.469 0.1,1.083 -0.603,1.017c-0.213,-0.02 -0.523,-0.635 -0.528,-0.982c-0.039,-2.787 0.007,-5.576 -0.035,-8.363c-0.008,-0.452 -0.206,-1.165 -0.52,-1.303c-1.352,-0.6 -2.745,-1.189 -4.185,-1.484c-2.15,-0.442 -4.126,0.361 -6.056,1.256c-0.81,0.376 -1.118,0.902 -1.105,1.777c0.041,2.724 0.03,5.449 0.016,8.174c-0.002,0.35 0.242,0.951 -0.453,0.888c-0.167,-0.014 -0.405,-0.56 -0.408,-0.862c-0.033,-3.771 -0.036,-7.542 -0.033,-11.312c0.001,-2.47 0.136,-2.267 -2.269,-2.259c-2.635,0.009 -2.64,0.005 -2.673,-2.617c-0.007,-0.572 -0.027,-1.063 -0.764,-1.213c-0.176,-0.036 -0.377,-0.467 -0.383,-0.72c-0.039,-1.488 -0.012,-2.978 -0.031,-4.467c-0.008,-0.542 0.155,-0.859 0.759,-0.802c0.686,0.065 0.965,-0.233 1.004,-0.93c0.013,-0.237 0.413,-0.612 0.668,-0.642c0.612,-0.071 0.946,-0.389 0.83,-0.909c-0.083,-0.367 -0.455,-0.873 -0.778,-0.941c-0.608,-0.128 -0.812,-0.342 -0.76,-0.936c0.056,-0.615 -0.257,-1.03 -0.898,-0.918c-0.858,0.15 -1.054,-0.183 -1.056,-0.968c0,-0.263 -0.519,-0.776 -0.695,-0.734c-0.337,0.081 -0.871,0.509 -0.844,0.736c0.119,0.995 -0.369,1.055 -1.134,0.963c-0.629,-0.075 -1.031,0.302 -0.938,0.896c0.111,0.707 -0.158,0.834 -0.777,0.972c-0.306,0.069 -0.626,0.61 -0.711,0.99c-0.107,0.466 0.144,0.865 0.757,0.82c0.568,-0.042 0.826,0.207 0.754,0.793c-0.078,0.638 0.288,0.864 0.864,0.812c0.669,-0.06 0.92,0.244 0.914,0.884c-0.014,1.457 0.012,2.914 -0.011,4.372c-0.005,0.247 -0.137,0.668 -0.284,0.704c-0.705,0.171 -0.656,0.67 -0.648,1.184c0.008,0.475 0.004,0.951 0.004,1.426c-0.001,1.225 -0.03,1.252 -1.307,1.257c-0.765,0.003 -1.533,0.046 -2.295,-0.006c-0.898,-0.06 -1.242,0.254 -1.231,1.19c0.045,4.023 0.037,8.048 0.02,12.072c-0.001,0.442 0.32,1.213 -0.452,1.223c-0.817,0.01 -0.541,-0.803 -0.543,-1.269c-0.009,-2.629 0.008,-5.257 0.068,-7.885c0.022,-0.978 -0.377,-1.541 -1.3,-1.827c-1.182,-0.366 -2.37,-0.726 -3.516,-1.183c-0.792,-0.315 -1.486,-0.355 -2.288,-0.014c-1.05,0.446 -2.155,0.765 -3.244,1.114c-1.489,0.479 -1.497,0.477 -1.495,2.052c0.004,2.725 0.018,5.45 0.001,8.175c-0.002,0.28 -0.119,0.617 -0.304,0.817c-0.105,0.112 -0.58,0.084 -0.672,-0.04c-0.166,-0.221 -0.227,-0.563 -0.228,-0.855c-0.02,-4.151 -0.029,-8.301 -0.023,-12.452c0.002,-0.668 -0.141,-1.161 -0.937,-1.076c-1.014,0.108 -1.206,-0.384 -1.195,-1.29c0.041,-3.454 -0.002,-6.907 0.01,-10.361c0.002,-0.696 -0.143,-1.223 -0.965,-1.202c-1.986,0.05 -1.782,-0.274 -1.823,-2.002c-0.011,-0.443 -0.003,-0.887 -0.003,-1.33c-0.006,-3.771 -0.014,-7.542 -0.016,-11.312c-0.001,-0.667 0.011,-1.284 -0.955,-1.305c-0.212,-0.005 -0.527,-0.429 -0.603,-0.711c-0.64,-2.379 -1.238,-4.77 -1.844,-7.159c-1.011,-3.978 -2.039,-7.952 -3.019,-11.937c-0.337,-1.373 -0.576,-2.773 -0.811,-4.17c-0.085,-0.502 0.021,-0.95 0.745,-0.903c0.577,0.038 0.716,-0.413 0.597,-0.838c-0.078,-0.279 -0.392,-0.694 -0.605,-0.697c-0.7,-0.011 -0.755,-0.373 -0.749,-0.915c0.018,-1.711 -0.005,-3.422 0.01,-5.133c0.006,-0.681 -0.114,-1.192 -0.965,-1.199c-0.874,-0.007 -1.059,0.473 -1.045,1.224c0.029,1.678 0.008,3.358 0.021,5.037c0.003,0.526 -0.064,0.909 -0.738,0.987c-0.232,0.027 -0.523,0.429 -0.597,0.71c-0.111,0.418 -0.005,0.844 0.607,0.814c0.617,-0.031 0.761,0.344 0.729,0.856c-0.027,0.44 -0.011,0.894 -0.116,1.318c-0.997,4.016 -2.012,8.027 -3.03,12.038c-0.851,3.359 -1.711,6.717 -2.578,10.073c-0.05,0.196 -0.157,0.498 -0.294,0.532c-0.967,0.244 -0.949,0.973 -0.947,1.727c0.015,4.499 0.009,8.998 0.044,13.497c0.005,0.607 -0.109,0.907 -0.775,0.823c-0.693,-0.089 -0.905,0.296 -0.857,0.916c0.017,0.22 0.003,0.443 0.003,0.665c0.09,56.905 0.05,67.372 0.224,124.277l87.87,2.575c-0.009,-8.047 0.052,30.344 0.016,22.298Z" style="fill:none;stroke:#dabfff;stroke-width:5px;"/><path d="M725.13,345.571l0.162,102.61l89.474,51.164l-0.161,-102.609l-89.475,-51.165Z" style="fill:#5b6dbc;fill-rule:nonzero;"/><path d="M903.917,345.293l0.163,102.608l-89.313,51.444l-0.162,-102.609l89.312,-51.443Z" style="fill:#3e5087;fill-rule:nonzero;"/><path d="M859.941,426.772c2.904,-1.639 5.004,-2.256 6.302,-1.848c1.297,0.406 1.948,1.79 1.951,4.15c0.002,1.25 -0.174,2.44 -0.528,3.57c-0.355,1.132 -0.852,2.177 -1.492,3.135c-0.639,0.96 -1.4,1.84 -2.282,2.644c-0.883,0.804 -1.85,1.503 -2.903,2.098c-2.45,1.383 -4.372,1.808 -5.769,1.277c-1.397,-0.531 -2.098,-2.282 -2.103,-5.254l-0.085,0.048c0.028,-0.016 0.057,-0.045 0.085,-0.089c-0.001,-0.583 -0.215,-0.914 -0.642,-0.993c-0.428,-0.077 -0.827,-0.012 -1.197,0.197l-10.292,5.811c-0.684,0.525 -1.174,1.031 -1.472,1.519c-0.299,0.489 -0.463,0.99 -0.49,1.506c0.005,3.055 0.287,5.549 0.846,7.484c0.558,1.936 1.344,3.417 2.358,4.443c1.012,1.027 2.21,1.663 3.593,1.91c1.382,0.249 2.9,0.197 4.552,-0.152c1.652,-0.349 3.411,-0.94 5.277,-1.77c1.864,-0.831 3.765,-1.792 5.701,-2.886c3.075,-1.736 5.971,-3.886 8.688,-6.448c2.718,-2.562 5.085,-5.315 7.104,-8.262c2.019,-2.947 3.617,-5.982 4.795,-9.107c1.177,-3.123 1.764,-6.115 1.76,-8.976c-0.003,-2.082 -0.263,-3.756 -0.777,-5.021c-0.515,-1.266 -1.208,-2.251 -2.078,-2.954c-0.872,-0.703 -1.891,-1.205 -3.059,-1.505c-1.169,-0.298 -2.409,-0.521 -3.72,-0.671c1.364,-2.104 2.458,-4.271 3.281,-6.501c0.823,-2.229 1.233,-4.426 1.229,-6.592c-0.003,-2.388 -0.492,-4.342 -1.463,-5.864c-0.971,-1.522 -2.269,-2.596 -3.894,-3.221c-1.626,-0.624 -3.514,-0.768 -5.664,-0.428c-2.152,0.339 -4.408,1.175 -6.772,2.51c-2.391,1.35 -4.662,2.972 -6.81,4.865c-2.149,1.895 -4.032,4.022 -5.654,6.381c-1.62,2.361 -2.913,4.946 -3.876,7.755c-0.965,2.81 -1.445,5.797 -1.44,8.962l0.085,-0.048l-0.042,0.066c0.001,0.611 0.186,0.964 0.557,1.061c0.37,0.097 0.812,0 1.324,-0.289c1.282,-0.696 2.527,-1.386 3.738,-2.069l5.018,-2.833c1.223,-0.691 1.835,-1.606 1.833,-2.745l-0.042,-0.017l0.128,-0.072c-0.001,-0.667 0.061,-1.348 0.189,-2.046c0.127,-0.697 0.347,-1.376 0.659,-2.039c0.312,-0.662 0.753,-1.293 1.322,-1.893c0.569,-0.598 1.295,-1.148 2.178,-1.646c1.025,-0.579 1.837,-0.829 2.435,-0.75c0.599,0.079 1.04,0.324 1.326,0.731c0.285,0.409 0.464,0.892 0.537,1.448c0.071,0.557 0.108,1.016 0.109,1.376c0.001,0.5 -0.07,1.076 -0.211,1.725c-0.142,0.65 -0.383,1.314 -0.724,1.992c-0.341,0.679 -0.81,1.354 -1.408,2.025c-0.596,0.67 -1.337,1.255 -2.219,1.753c-1.225,0.692 -1.835,1.634 -1.834,2.828c0.003,1.583 -0.002,3.135 -0.013,4.655c-0.013,1.523 -0.017,3.047 -0.015,4.573c0.001,0.611 0.18,0.934 0.536,0.969c0.356,0.035 0.791,-0.092 1.303,-0.381l0.171,-0.097Z" style="fill:none;stroke:#dabfff;stroke-width:3.56px;"/></g><path d="M859.941,426.772c2.904,-1.639 5.004,-2.256 6.302,-1.848c1.297,0.406 1.948,1.79 1.951,4.15c0.002,1.25 -0.174,2.44 -0.528,3.57c-0.355,1.132 -0.852,2.177 -1.492,3.135c-0.639,0.96 -1.4,1.84 -2.282,2.644c-0.883,0.804 -1.85,1.503 -2.903,2.098c-2.45,1.383 -4.372,1.808 -5.769,1.277c-1.397,-0.531 -2.098,-2.282 -2.103,-5.254l-0.085,0.048c0.028,-0.016 0.057,-0.045 0.085,-0.089c-0.001,-0.583 -0.215,-0.914 -0.642,-0.993c-0.428,-0.077 -0.827,-0.012 -1.197,0.197l-10.292,5.811c-0.684,0.525 -1.174,1.031 -1.472,1.519c-0.299,0.489 -0.463,0.99 -0.49,1.506c0.005,3.055 0.287,5.549 0.846,7.484c0.558,1.936 1.344,3.417 2.358,4.443c1.012,1.027 2.21,1.663 3.593,1.91c1.382,0.249 2.9,0.197 4.552,-0.152c1.652,-0.349 3.411,-0.94 5.277,-1.77c1.864,-0.831 3.765,-1.792 5.701,-2.886c3.075,-1.736 5.971,-3.886 8.688,-6.448c2.718,-2.562 5.085,-5.315 7.104,-8.262c2.019,-2.947 3.617,-5.982 4.795,-9.107c1.177,-3.123 1.764,-6.115 1.76,-8.976c-0.003,-2.082 -0.263,-3.756 -0.777,-5.021c-0.515,-1.266 -1.208,-2.251 -2.078,-2.954c-0.872,-0.703 -1.891,-1.205 -3.059,-1.505c-1.169,-0.298 -2.409,-0.521 -3.72,-0.671c1.364,-2.104 2.458,-4.271 3.281,-6.501c0.823,-2.229 1.233,-4.426 1.229,-6.592c-0.003,-2.388 -0.492,-4.342 -1.463,-5.864c-0.971,-1.522 -2.269,-2.596 -3.894,-3.221c-1.626,-0.624 -3.514,-0.768 -5.664,-0.428c-2.152,0.339 -4.408,1.175 -6.772,2.51c-2.391,1.35 -4.662,2.972 -6.81,4.865c-2.149,1.895 -4.032,4.022 -5.654,6.381c-1.62,2.361 -2.913,4.946 -3.876,7.755c-0.965,2.81 -1.445,5.797 -1.44,8.962l0.085,-0.048l-0.042,0.066c0.001,0.611 0.186,0.964 0.557,1.061c0.37,0.097 0.812,0 1.324,-0.289c1.282,-0.696 2.527,-1.386 3.738,-2.069l5.018,-2.833c1.223,-0.691 1.835,-1.606 1.833,-2.745l-0.042,-0.017l0.128,-0.072c-0.001,-0.667 0.061,-1.348 0.189,-2.046c0.127,-0.697 0.347,-1.376 0.659,-2.039c0.312,-0.662 0.753,-1.293 1.322,-1.893c0.569,-0.598 1.295,-1.148 2.178,-1.646c1.025,-0.579 1.837,-0.829 2.435,-0.75c0.599,0.079 1.04,0.324 1.326,0.731c0.285,0.409 0.464,0.892 0.537,1.448c0.071,0.557 0.108,1.016 0.109,1.376c0.001,0.5 -0.07,1.076 -0.211,1.725c-0.142,0.65 -0.383,1.314 -0.724,1.992c-0.341,0.679 -0.81,1.354 -1.408,2.025c-0.596,0.67 -1.337,1.255 -2.219,1.753c-1.225,0.692 -1.835,1.634 -1.834,2.828c0.003,1.583 -0.002,3.135 -0.013,4.655c-0.013,1.523 -0.017,3.047 -0.015,4.573c0.001,0.611 0.18,0.934 0.536,0.969c0.356,0.035 0.791,-0.092 1.303,-0.381l0.171,-0.097Z" style="fill:none;stroke:#dabfff;stroke-width:3.56px;"/></g><path d="M252.078,145.434l-34.299,43.658c-1.343,1.709 -3.502,2.576 -5.663,2.275l-51.692,-7.211c-2.16,-0.301 -3.996,-1.726 -4.813,-3.737l-19.565,-48.106c-0.818,-2.01 -0.495,-4.302 0.848,-6.012l32.129,-40.895c1.343,-1.71 3.502,-2.577 5.662,-2.275l51.693,7.21c2.161,0.302 3.996,1.726 4.814,3.737l7.009,17.235" style="fill:none;stroke:#dabfff;stroke-width:5px;stroke-linecap:round;stroke-linejoin:round;"/><path d="M556.366,155.566c1.246,-3.115 4.797,-4.637 7.931,-3.398l9.504,3.756l25.825,10.208c3.135,1.239 4.666,4.769 3.419,7.885l-14.048,35.118c-1.246,3.116 -4.798,4.637 -7.932,3.398l-35.328,-13.964c-3.134,-1.238 -4.665,-4.769 -3.419,-7.884l3.037,-7.591" style="fill:none;stroke:#dabfff;stroke-width:5px;stroke-linecap:round;"/><path d="M876.075,61.281l8,0c2.182,0 4.198,1.158 5.289,3.036l7.999,13.773c1.092,1.878 1.092,4.192 0,6.071l-7.999,13.773c-1.091,1.877 -3.107,3.035 -5.289,3.035l-15.999,0c-2.181,0 -4.198,-1.158 -5.289,-3.035l-7.999,-13.773c-1.091,-1.879 -1.091,-4.193 0,-6.071l4.745,-8.17" style="fill:none;stroke:#dabfff;stroke-width:5px;stroke-linecap:round;"/><path d="M1011.59,156.507l-15.736,0c-4.701,0 -7.639,-5.059 -5.289,-9.106l69.23,-119.196c2.35,-4.047 8.227,-4.047 10.578,0l69.229,119.196c2.351,4.047 -0.587,9.106 -5.289,9.106l-59.875,0" style="fill:none;stroke:#dabfff;stroke-width:5px;stroke-linecap:round;"/><path d="M158.288,469.057l5.768,4.378c3.736,2.836 2.983,8.63 -1.356,10.429l-48.45,20.081c-4.34,1.799 -9.01,-1.746 -8.408,-6.381l6.73,-51.751c0.603,-4.635 6.027,-6.883 9.763,-4.047l3.572,2.712" style="fill:none;stroke:#dabfff;stroke-width:5px;stroke-linecap:round;"/><path d="M401.054,598.649l25.45,6.736c3.26,0.864 5.198,4.189 4.33,7.429l-21.237,79.284c-0.868,3.24 -4.213,5.166 -7.473,4.304l-79.758,-21.111c-3.26,-0.862 -5.198,-4.188 -4.331,-7.428l21.237,-79.284c0.869,-3.24 4.214,-5.167 7.473,-4.305l18.395,4.87" style="fill:none;stroke:#dabfff;stroke-width:5px;stroke-linecap:round;"/><path d="M684.505,590.514l0.305,-6.084c0.234,-4.668 5.463,-7.333 9.413,-4.798l17.718,11.375c3.949,2.535 3.655,8.37 -0.527,10.502l-18.769,9.564c-4.184,2.133 -9.12,-1.036 -8.886,-5.704" style="fill:none;stroke:#dabfff;stroke-width:5px;stroke-linecap:round;"/><path d="M720.185,580.509l-14.89,14.848c-3.319,3.31 -8.998,1.808 -10.222,-2.705l-5.49,-20.243c-1.224,-4.512 2.924,-8.649 7.467,-7.447l20.381,5.394c4.544,1.204 6.073,6.844 2.754,10.153" style="fill:#3e5087;fill-rule:nonzero;"/><path d="M575.771,166.571l32.955,18.846c2.924,1.671 3.93,5.383 2.249,8.289l-18.958,32.759c-1.682,2.907 -5.416,3.908 -8.339,2.236l-32.956,-18.846c-2.924,-1.671 -3.93,-5.383 -2.248,-8.289l18.958,-32.759c1.682,-2.906 5.415,-3.908 8.339,-2.236" style="fill:#5b6dbc;fill-rule:nonzero;"/><path d="M878.788,116.3l-15.627,-3.407c-2.131,-0.465 -3.852,-2.024 -4.512,-4.091l-4.845,-15.157c-0.661,-2.067 -0.163,-4.327 1.307,-5.93l10.783,-11.749c1.47,-1.602 3.689,-2.303 5.82,-1.839l15.627,3.407c2.131,0.465 3.852,2.024 4.513,4.091l4.844,15.157c0.661,2.067 0.163,4.327 -1.308,5.93l-10.781,11.75c-1.471,1.602 -3.69,2.303 -5.821,1.838" style="fill:#3e5087;fill-rule:nonzero;"/><path d="M129.233,459.149l37.177,36.84c3.329,3.299 1.818,8.944 -2.722,10.161l-50.683,13.585c-4.539,1.216 -8.701,-2.907 -7.492,-7.424l13.507,-50.424c1.21,-4.516 6.884,-6.037 10.213,-2.738" style="fill:#3e5087;fill-rule:nonzero;"/><path d="M1198.11,558.66l15.032,47.02c0.661,2.067 0.163,4.328 -1.308,5.93l-49.553,54c-1.47,1.603 -3.688,2.303 -5.82,1.839l-71.821,-15.659c-2.131,-0.464 -3.852,-2.024 -4.512,-4.091l-22.269,-69.658c-0.661,-2.067 -0.162,-4.327 1.308,-5.93l49.552,-53.999c1.471,-1.603 3.69,-2.304 5.82,-1.839l55.454,12.09" style="fill:none;stroke:#dabfff;stroke-width:5px;stroke-linecap:round;"/><g transform="matrix(1,0,0,1,613.373,110.909)"><text x="-237.452px" y="271.687px" style="font-family:'CocogooseProBlock-Border', 'Cocogoose Pro Block';font-size:61px;fill:#dabfff;stroke:#dabfff;stroke-width:2.4px;stroke-linejoin:round;stroke-miterlimit:1.41421;">Hack the</text><text x="-237.452px" y="355.687px" style="font-family:'CocogooseProBlock-Border', 'Cocogoose Pro Block';font-size:72px;fill:#dabfff;stroke:#dabfff;stroke-width:2.4px;stroke-linejoin:round;stroke-miterlimit:1.41421;">Heights</text></g></g></svg>