<svg id="Layer_1" data-name="Layer 1" xmlns="http://www.w3.org/2000/svg" viewBox="0 0 1712.67 300"><defs><style>.cls-1{fill:#ffc629;}</style></defs><title>bumble-logo</title><path class="cls-1" d="M512.9,99.49c-29.45,0-56.6,15.51-68.87,37.34V19.9a19.9,19.9,0,1,0-39.8,0V280.1a19.9,19.9,0,0,0,39.8,0V262.66c11.42,22,39.42,37.34,68.87,37.34C562.65,300,607,259.82,607,199.75,607,140.05,562.65,99.49,512.9,99.49ZM506.4,264.8C475,264.8,444,239.92,444,199.75c0-39.81,31-65.06,62.37-65.06,34.82,0,62,25.25,62,65.06C568.39,239.92,541.22,264.8,506.4,264.8Z"/><path class="cls-1" d="M1303.87,99.49c-29.46,0-56.61,15.51-68.87,37.34V19.9a19.9,19.9,0,0,0-39.8,0V280.1a19.9,19.9,0,0,0,39.8,0V262.66c11.42,22,39.41,37.34,68.87,37.34,49.74,0,94.13-40.18,94.13-100.25C1398,140.05,1353.61,99.49,1303.87,99.49Zm-6.51,165.31c-31.37,0-62.37-24.88-62.37-65.05,0-39.81,31-65.06,62.37-65.06,34.83,0,62,25.25,62,65.06C1359.35,239.92,1332.19,264.8,1297.36,264.8Z"/><path class="cls-1" d="M796,104.84a19.9,19.9,0,0,0-19.9,19.9v67.73c0,47.84-22.2,70.8-56.25,70.8-27.55,0-45.54-21-45.54-52V124.74a19.9,19.9,0,1,0-39.8,0v94.52c0,47.83,30.24,80.74,76.16,80.74,27.93,0,55.45-15.59,65.43-37.35V280.1a19.9,19.9,0,0,0,39.8,0V124.74A19.9,19.9,0,0,0,796,104.84Z"/><path class="cls-1" d="M1087.46,99.49c-31.38,0-57.12,13.2-70.79,38-10.53-23.24-36-38-63.14-38s-49.89,17.13-60.84,37.26v-12a19.9,19.9,0,0,0-39.8,0V280.1a19.9,19.9,0,0,0,39.8,0V200.51c0-42.48,19.9-64.28,50.51-64.28,24.49,0,42.85,17.59,42.85,45.53l.19,98.34a20,20,0,0,0,19.9,19.9h0a20,20,0,0,0,19.9-19.9l-.19-79.59c0-42.48,20.28-64.28,51.28-64.28,24.49,0,42.85,17.59,42.85,45.53l-.38,98.34a20,20,0,0,0,19.9,19.9h0a20,20,0,0,0,19.89-19.9V173.72C1159.39,129,1126.87,99.49,1087.46,99.49Z"/><path class="cls-1" d="M1516.47,275.32a17.83,17.83,0,0,0-20.56-13.46,39.84,39.84,0,0,1-6.67.64c-14.54,0-24.48-9.18-24.48-22.19V19.9A19.9,19.9,0,0,0,1444.86,0h0A19.9,19.9,0,0,0,1425,19.9V242.24c0,31.57,25.34,57.6,56.91,57.76a72.18,72.18,0,0,0,22.9-3.25,17.74,17.74,0,0,0,11.84-20.86Z"/><path class="cls-1" d="M1712.6,197.67c-3.09-28.26-18.39-98.18-94.11-98.18-53.57,0-98.34,40.18-98.34,100.64,0,60.07,45.15,99.87,96.81,99.87,33,0,60.79-12.21,78.83-36.64a17.81,17.81,0,1,0-28.74-21.05c-13.33,18.66-31.85,23.25-50.09,23.25-27.93,0-53.57-21-57.4-56.25h142.63A10.47,10.47,0,0,0,1712.6,197.67ZM1560.71,181c6.12-30.61,32.91-46.31,57.78-46.31,26,0,47.84,15.31,54,46.31Z"/><path class="cls-1" d="M336.72,139.1l-74-128.19A21.81,21.81,0,0,0,243.83,0h-148a21.8,21.8,0,0,0-18.88,10.9L2.92,139.1a21.82,21.82,0,0,0,0,21.8l74,128.19A21.8,21.8,0,0,0,95.81,300h148a21.81,21.81,0,0,0,18.89-10.9l74-128.19A21.77,21.77,0,0,0,336.72,139.1ZM128.32,66.92h82.82a18.72,18.72,0,1,1,0,37.43H128.32a18.72,18.72,0,0,1,0-37.43Zm64.4,166.71h-46a18.72,18.72,0,0,1,0-37.43h46a18.72,18.72,0,0,1,0,37.43Zm52-64.64h-150a18.72,18.72,0,1,1,0-37.43H244.76a18.72,18.72,0,1,1,0,37.43Z"/></svg>