<svg xmlns="http://www.w3.org/2000/svg" viewBox="0 0 616.92 554.18"><defs><style>.cls-1{fill:#231f20;}.cls-2{fill:#7eb0cc;}.cls-3{fill:#b2bb1e;}.cls-4{fill:#ee3524;}.cls-5{fill:#eeb111;}</style></defs><title>Asset 2</title><g id="Layer_2" data-name="Layer 2"><g id="Layer_1-2" data-name="Layer 1"><path class="cls-1" d="M616.92,244.92H18.09V434.33H616.92v-7H542.73q40.1,0,59.31-32.94,14.16-24.48,14.16-59.77a137.19,137.19,0,0,0-3.36-29.29,78.61,78.61,0,0,0-12.61-28.57,58.39,58.39,0,0,0-30.13-22.45c-7.28-2.4-16.4-3.65-27.37-3.81h74.19Zm-228,5.54V373.55L318.54,250.46Zm-265.69,0L55,323.33V250.46ZM55,427.29V368.18l17.69-18,54.53,77.07Zm119.69,0L98.61,323.39,171,250.46H200.6V427.29Zm62.47,0V250.46h42.91V427.29Zm77.07,0V301.64l72.2,125.65ZM570.1,295.4q8.48,14.53,8.47,41.69,0,19.67-5.65,33.9-10.33,26-36.53,25.95H502.25V280.85h34.14Q561.64,280.85,570.1,295.4ZM466.49,427.29H423.1V250.46h43.39Z"/><rect class="cls-2" x="465.35" width="151.57" height="244.92"/><rect class="cls-3" x="314.31" width="151.04" height="244.92"/><rect class="cls-4" x="160.06" width="154.25" height="244.92"/><rect class="cls-5" x="18.09" width="141.97" height="244.92"/><rect class="cls-4" width="18.09" height="554.18"/><path class="cls-1" d="M46,474.78v20H70.39v-20h6.17v46.39H70.39V499.93H46v21.24H39.78V474.78Z"/><path class="cls-1" d="M117.1,474.78V480H91.24v14.75h24.11v5.2H91.24v16H117.3v5.2H85.07V474.78Z"/><path class="cls-1" d="M144.2,474.78l18.12,46.39H155.5l-5.07-14H130.81l-5.2,14h-6.3l18.06-46.39ZM148.48,502l-7.73-21.63h-.13L132.76,502Z"/><path class="cls-1" d="M173,474.78V516H197.6v5.2H166.87V474.78Z"/><path class="cls-1" d="M188.83,480v-5.2h37.1V480H210.47v41.19H204.3V480Z"/><path class="cls-1" d="M237.24,474.78v20h24.43v-20h6.17v46.39h-6.17V499.93H237.24v21.24h-6.17V474.78Z"/><path class="cls-1" d="M297.14,521.17H291v-19L273,474.78h7.34l13.91,22.09,13.58-22.09h7L297.14,502.2Z"/><path class="cls-1" d="M361.37,481.12a13.07,13.07,0,0,0-7.89-2.25,19,19,0,0,0-3.84.39,10.3,10.3,0,0,0-3.34,1.3A6.76,6.76,0,0,0,344,483a7.5,7.5,0,0,0-.88,3.8,4.83,4.83,0,0,0,1.27,3.48,9.39,9.39,0,0,0,3.38,2.17,27.82,27.82,0,0,0,4.77,1.4q2.67.56,5.43,1.2c1.84.44,3.65.94,5.42,1.53a17.94,17.94,0,0,1,4.78,2.37,11.33,11.33,0,0,1,3.38,3.77,13.26,13.26,0,0,1-.39,12,13.63,13.63,0,0,1-4.26,4.29,18.42,18.42,0,0,1-5.81,2.4,28.16,28.16,0,0,1-6.4.75,27.24,27.24,0,0,1-7.38-1,18.29,18.29,0,0,1-6.11-3,13.93,13.93,0,0,1-4.15-5.07,16.25,16.25,0,0,1-1.53-7.31h5.85a10.59,10.59,0,0,0,1.13,5,10.37,10.37,0,0,0,3,3.47,12.65,12.65,0,0,0,4.32,2,20,20,0,0,0,5.07.65,23,23,0,0,0,4.19-.39,12.48,12.48,0,0,0,3.8-1.33,7.14,7.14,0,0,0,3.77-6.73,5.81,5.81,0,0,0-1.27-3.9A9.39,9.39,0,0,0,362,502.3a24.62,24.62,0,0,0-4.78-1.53l-5.43-1.2c-1.84-.41-3.64-.89-5.42-1.43a19.52,19.52,0,0,1-4.78-2.15,9.62,9.62,0,0,1-4.64-8.74,12.22,12.22,0,0,1,1.43-6.07,12.43,12.43,0,0,1,3.8-4.22,16.93,16.93,0,0,1,5.39-2.47,23.89,23.89,0,0,1,6.21-.81,24.84,24.84,0,0,1,6.62.84,14.9,14.9,0,0,1,5.36,2.66,12.81,12.81,0,0,1,3.64,4.58,16.42,16.42,0,0,1,1.47,6.6H365Q364.46,483.35,361.37,481.12Z"/><path class="cls-1" d="M386.74,474.78l24.43,37.62h.13V474.78h5.85v46.39h-6.76l-24.23-37.23H386v37.23h-5.85V474.78Z"/><path class="cls-1" d="M446.58,474.78l18.13,46.39h-6.82l-5.07-14H433.2l-5.2,14h-6.3l18.06-46.39ZM450.87,502l-7.73-21.63H443L435.15,502Z"/><path class="cls-1" d="M497.3,481.34a14.4,14.4,0,0,0-8.42-2.47,15.05,15.05,0,0,0-7.11,1.56,14,14,0,0,0-4.87,4.19,18,18,0,0,0-2.83,6,26.76,26.76,0,0,0-.91,7,30,30,0,0,0,.91,7.51,17.84,17.84,0,0,0,2.83,6.17,13.94,13.94,0,0,0,4.9,4.19,15.25,15.25,0,0,0,7.15,1.56,13.79,13.79,0,0,0,5.42-1,12.33,12.33,0,0,0,4.1-2.79,12.94,12.94,0,0,0,2.69-4.26,17.71,17.71,0,0,0,1.17-5.33h6.17q-.9,8.78-6,13.65t-14,4.87a22.39,22.39,0,0,1-9.42-1.85,18.54,18.54,0,0,1-6.7-5.1,22,22,0,0,1-4-7.67,32.62,32.62,0,0,1-1.33-9.48,30.71,30.71,0,0,1,1.43-9.52,22.74,22.74,0,0,1,4.19-7.77,19.52,19.52,0,0,1,6.88-5.23,22.2,22.2,0,0,1,9.46-1.91,23.79,23.79,0,0,1,6.88,1,18.44,18.44,0,0,1,5.79,2.86,16.2,16.2,0,0,1,4.22,4.71,17.23,17.23,0,0,1,2.21,6.53h-6.17A11.53,11.53,0,0,0,497.3,481.34Z"/><path class="cls-1" d="M522.34,474.78v23.13l23.52-23.13h8L534.3,493.49l20.34,27.68h-7.8l-16.76-23.45-7.74,7.21v16.24h-6.17V474.78Z"/><path class="cls-1" d="M582.74,481.12a13.08,13.08,0,0,0-7.9-2.25,18.85,18.85,0,0,0-3.83.39,10.36,10.36,0,0,0-3.35,1.3,6.93,6.93,0,0,0-2.34,2.44,7.6,7.6,0,0,0-.87,3.8,4.86,4.86,0,0,0,1.26,3.48,9.48,9.48,0,0,0,3.38,2.17,27.94,27.94,0,0,0,4.78,1.4q2.65.56,5.42,1.2c1.84.44,3.65.94,5.43,1.53A17.94,17.94,0,0,1,589.5,499a11.3,11.3,0,0,1,3.37,3.77,13.18,13.18,0,0,1-.39,12,13.5,13.5,0,0,1-4.25,4.29,18.38,18.38,0,0,1-5.82,2.4,28.09,28.09,0,0,1-6.4.75,27.11,27.11,0,0,1-7.37-1,18.19,18.19,0,0,1-6.11-3,14.06,14.06,0,0,1-4.16-5.07,16.25,16.25,0,0,1-1.53-7.31h5.85a10.48,10.48,0,0,0,1.14,5,10.26,10.26,0,0,0,3,3.47,12.48,12.48,0,0,0,4.32,2,20,20,0,0,0,5.07.65,23.09,23.09,0,0,0,4.19-.39,12.57,12.57,0,0,0,3.8-1.33,7.14,7.14,0,0,0,3.77-6.73,5.86,5.86,0,0,0-1.27-3.9,9.34,9.34,0,0,0-3.38-2.43,24.74,24.74,0,0,0-4.77-1.53l-5.43-1.2q-2.76-.61-5.42-1.43a19.52,19.52,0,0,1-4.78-2.15,9.61,9.61,0,0,1-4.65-8.74,12.33,12.33,0,0,1,1.43-6.07,12.53,12.53,0,0,1,3.8-4.22,17,17,0,0,1,5.4-2.47,23.81,23.81,0,0,1,6.2-.81,25,25,0,0,1,6.63.84,15,15,0,0,1,5.36,2.66,12.92,12.92,0,0,1,3.64,4.58,16.42,16.42,0,0,1,1.46,6.6h-5.85C586,485,584.79,482.61,582.74,481.12Z"/></g></g></svg>