<?xml version="1.0" encoding="UTF-8" standalone="no"?><!DOCTYPE svg PUBLIC "-//W3C//DTD SVG 1.1//EN" "http://www.w3.org/Graphics/SVG/1.1/DTD/svg11.dtd"><svg width="100%" height="100%" viewBox="0 0 1282 803" version="1.1" xmlns="http://www.w3.org/2000/svg" xmlns:xlink="http://www.w3.org/1999/xlink" xml:space="preserve" xmlns:serif="http://www.serif.com/" style="fill-rule:evenodd;clip-rule:evenodd;stroke-miterlimit:10;"><g id="HTH-Design" serif:id="HTH Design"><rect x="0" y="0" width="1281.56" height="802.265" style="fill:#263572;"/><path d="M364.323,624.762l71.544,40.911c2.924,1.672 3.93,5.383 2.248,8.289l-41.156,71.119c-1.681,2.906 -5.415,3.907 -8.339,2.235l-71.544,-40.912c-2.923,-1.671 -3.931,-5.383 -2.249,-8.289l41.157,-71.118c1.682,-2.906 5.415,-3.907 8.339,-2.235" style="fill:#5b6dbc;fill-rule:nonzero;"/><path d="M137.315,196.454l-26.17,-44.896c-1.094,-1.876 -1.097,-4.191 -0.01,-6.071l26.029,-44.978c1.088,-1.88 3.102,-3.04 5.284,-3.044l52.199,-0.08c2.182,-0.004 4.2,1.15 5.294,3.027l26.171,44.896c1.093,1.876 1.097,4.19 0.009,6.07l-26.029,44.978c-1.087,1.88 -3.101,3.041 -5.284,3.044l-52.198,0.081c-2.183,0.004 -4.2,-1.15 -5.295,-3.027" style="fill:#3e5087;fill-rule:nonzero;"/><path d="M1133.39,703.483l-58.184,-44.689c-1.727,-1.326 -2.61,-3.467 -2.318,-5.617l9.842,-72.433c0.292,-2.15 1.715,-3.98 3.734,-4.804l68.026,-27.744c2.018,-0.823 4.325,-0.513 6.052,0.813l58.183,44.689c1.727,1.327 2.611,3.467 2.318,5.617l-9.842,72.433c-0.292,2.149 -1.715,3.98 -3.734,4.804l-68.026,27.744c-2.018,0.823 -4.325,0.514 -6.051,-0.813" style="fill:#5b6dbc;fill-rule:nonzero;"/><path d="M1150.8,39.291l31.25,134.083c1.061,4.553 -3.234,8.541 -7.731,7.178l-132.44,-40.141c-4.497,-1.363 -5.823,-7.053 -2.387,-10.244l101.191,-93.943c3.435,-3.19 9.057,-1.487 10.117,3.067" style="fill:#5b6dbc;fill-rule:nonzero;"/><g><g><path d="M725.13,345.571l89.312,-51.443l0.163,102.608l-89.475,-51.165Z" style="fill:#3e5087;fill-rule:nonzero;"/><path d="M903.917,345.293l-89.475,-51.165l0.163,102.608l89.312,-51.443Z" style="fill:#5b6dbc;fill-rule:nonzero;"/><path d="M858.633,468.815c-0.076,-16.662 -0.145,-33.326 -0.228,-49.989c-0.041,-8.362 -0.107,-16.725 -0.155,-25.086c-0.05,-8.49 -0.107,-16.979 -0.131,-25.468c-0.046,-16.317 -0.071,-32.635 -0.105,-48.952c-0.001,-0.373 -0.001,-0.747 -0.002,-1.093c-1.548,-0.372 -1.595,-0.497 -1.453,-2.051c0.071,-0.779 -0.035,-1.574 -0.038,-2.362c-0.011,-3.517 0.001,-7.034 -0.039,-10.551c-0.003,-0.383 -0.248,-0.782 -0.442,-1.14c-0.198,-0.364 -0.59,-0.655 -0.694,-1.034c-0.545,-1.977 -1.02,-3.973 -1.53,-5.96c-0.998,-3.885 -2.033,-7.762 -2.993,-11.658c-0.443,-1.802 -0.758,-3.636 -1.099,-5.461c-0.098,-0.524 0.03,-0.912 0.742,-0.915c0.204,-0.001 0.558,-0.472 0.566,-0.737c0.007,-0.262 -0.325,-0.755 -0.523,-0.763c-0.731,-0.028 -0.814,-0.406 -0.808,-0.992c0.019,-1.679 -0.008,-3.358 0.006,-5.037c0.005,-0.674 -0.095,-1.213 -0.945,-1.222c-0.869,-0.008 -1.063,0.513 -1.058,1.243c0.013,1.648 -0.002,3.295 0.017,4.943c0.007,0.604 -0.052,1.051 -0.846,1.071c-0.172,0.005 -0.448,0.524 -0.457,0.812c-0.007,0.228 0.313,0.658 0.503,0.667c0.777,0.037 0.89,0.496 0.85,1.092c-0.026,0.409 -0.059,0.826 -0.163,1.221c-0.952,3.635 -1.945,7.259 -2.879,10.899c-0.925,3.613 -1.783,7.243 -2.714,10.854c-0.091,0.354 -0.473,0.878 -0.75,0.895c-0.92,0.062 -0.975,0.564 -0.971,1.279c0.026,4.245 0.024,8.491 0.03,12.736c0.002,1.913 0.002,1.913 -1.902,1.919c-1.498,0.005 -1.541,0.048 -1.538,1.572c0.004,3.422 0.011,6.844 0.013,10.265c0,0.435 0.086,1.041 -0.565,0.986c-1.35,-0.114 -1.314,0.734 -1.311,1.638c0.013,3.961 0.015,7.922 0.021,11.882c0.001,0.469 0.1,1.083 -0.602,1.017c-0.214,-0.021 -0.524,-0.635 -0.529,-0.982c-0.039,-2.787 0.007,-5.575 -0.035,-8.363c-0.007,-0.452 -0.206,-1.165 -0.519,-1.303c-1.352,-0.599 -2.746,-1.188 -4.186,-1.484c-2.15,-0.441 -4.126,0.362 -6.056,1.257c-0.81,0.375 -1.117,0.901 -1.105,1.775c0.041,2.725 0.03,5.45 0.017,8.175c-0.002,0.351 0.241,0.951 -0.454,0.889c-0.166,-0.016 -0.405,-0.561 -0.408,-0.864c-0.033,-3.77 -0.036,-7.54 -0.033,-11.311c0.002,-2.47 0.137,-2.267 -2.268,-2.259c-2.635,0.009 -2.64,0.005 -2.673,-2.618c-0.007,-0.57 -0.027,-1.063 -0.765,-1.212c-0.175,-0.036 -0.376,-0.466 -0.383,-0.72c-0.039,-1.488 -0.012,-2.978 -0.031,-4.467c-0.007,-0.542 0.156,-0.859 0.76,-0.802c0.685,0.064 0.964,-0.233 1.003,-0.93c0.013,-0.236 0.413,-0.612 0.669,-0.642c0.612,-0.071 0.946,-0.389 0.829,-0.908c-0.082,-0.368 -0.455,-0.873 -0.777,-0.941c-0.609,-0.129 -0.813,-0.343 -0.76,-0.937c0.055,-0.615 -0.257,-1.03 -0.899,-0.918c-0.858,0.15 -1.053,-0.182 -1.055,-0.968c0,-0.263 -0.52,-0.776 -0.695,-0.733c-0.338,0.079 -0.871,0.508 -0.844,0.735c0.118,0.996 -0.369,1.055 -1.134,0.963c-0.63,-0.075 -1.031,0.302 -0.939,0.897c0.111,0.706 -0.158,0.832 -0.776,0.971c-0.307,0.068 -0.626,0.61 -0.712,0.989c-0.107,0.467 0.144,0.866 0.757,0.821c0.568,-0.042 0.827,0.208 0.755,0.792c-0.079,0.639 0.288,0.864 0.863,0.813c0.669,-0.06 0.92,0.244 0.914,0.884c-0.014,1.457 0.013,2.915 -0.011,4.373c-0.004,0.245 -0.136,0.667 -0.284,0.704c-0.705,0.17 -0.655,0.669 -0.648,1.183c0.008,0.475 0.005,0.951 0.004,1.426c-0.001,1.225 -0.029,1.252 -1.306,1.258c-0.765,0.003 -1.534,0.045 -2.295,-0.006c-0.899,-0.06 -1.242,0.253 -1.232,1.189c0.046,4.023 0.038,8.048 0.021,12.071c-0.002,0.442 0.319,1.213 -0.452,1.224c-0.817,0.011 -0.541,-0.803 -0.543,-1.269c-0.01,-2.628 0.007,-5.257 0.068,-7.885c0.022,-0.979 -0.378,-1.541 -1.3,-1.826c-1.182,-0.366 -2.37,-0.727 -3.517,-1.183c-0.791,-0.316 -1.486,-0.355 -2.288,-0.015c-1.049,0.446 -2.154,0.764 -3.244,1.115c-1.489,0.478 -1.497,0.476 -1.495,2.051c0.005,2.725 0.018,5.451 0.001,8.175c-0.002,0.281 -0.118,0.618 -0.304,0.817c-0.104,0.111 -0.58,0.085 -0.672,-0.039c-0.165,-0.222 -0.226,-0.564 -0.228,-0.856c-0.02,-4.15 -0.029,-8.301 -0.022,-12.452c0.002,-0.669 -0.141,-1.161 -0.938,-1.075c-1.014,0.107 -1.205,-0.385 -1.195,-1.291c0.041,-3.453 -0.001,-6.907 0.01,-10.361c0.002,-0.695 -0.143,-1.223 -0.965,-1.202c-1.986,0.051 -1.782,-0.274 -1.823,-2.002c-0.01,-0.443 -0.003,-0.887 -0.003,-1.33c-0.006,-3.77 -0.013,-7.541 -0.015,-11.312c-0.001,-0.667 0.01,-1.284 -0.956,-1.305c-0.212,-0.004 -0.526,-0.429 -0.602,-0.711c-0.64,-2.379 -1.238,-4.77 -1.845,-7.159c-1.011,-3.977 -2.039,-7.951 -3.019,-11.937c-0.337,-1.374 -0.575,-2.774 -0.811,-4.169c-0.084,-0.504 0.021,-0.952 0.745,-0.904c0.578,0.037 0.716,-0.413 0.597,-0.839c-0.077,-0.278 -0.391,-0.693 -0.604,-0.695c-0.701,-0.012 -0.755,-0.374 -0.749,-0.916c0.018,-1.711 -0.006,-3.422 0.009,-5.132c0.006,-0.682 -0.114,-1.192 -0.965,-1.2c-0.873,-0.008 -1.058,0.473 -1.045,1.224c0.03,1.678 0.009,3.358 0.021,5.037c0.004,0.527 -0.064,0.909 -0.738,0.988c-0.231,0.027 -0.523,0.429 -0.597,0.708c-0.11,0.419 -0.004,0.845 0.607,0.815c0.618,-0.031 0.762,0.344 0.73,0.855c-0.027,0.441 -0.011,0.896 -0.117,1.319c-0.997,4.016 -2.012,8.026 -3.029,12.037c-0.852,3.36 -1.712,6.718 -2.578,10.074c-0.051,0.196 -0.158,0.498 -0.294,0.532c-0.968,0.244 -0.95,0.973 -0.948,1.727c0.015,4.499 0.009,8.998 0.045,13.497c0.004,0.608 -0.109,0.907 -0.776,0.823c-0.693,-0.089 -0.904,0.296 -0.856,0.916c0.016,0.22 0.003,0.443 0.003,0.665c0.09,56.906 0.05,67.372 0.223,124.276l87.871,2.576c-0.009,-8.047 0.052,30.344 0.016,22.297" style="fill:#263572;fill-rule:nonzero;"/><path d="M853.15,463.968c-0.075,-16.664 -0.145,-33.327 -0.227,-49.99c-0.041,-8.362 -0.108,-16.724 -0.156,-25.086c-0.049,-8.489 -0.107,-16.979 -0.131,-25.468c-0.046,-16.318 -0.071,-32.635 -0.104,-48.952c-0.001,-0.374 -0.002,-0.746 -0.002,-1.092c-1.548,-0.373 -1.595,-0.499 -1.454,-2.052c0.071,-0.78 -0.034,-1.574 -0.037,-2.363c-0.012,-3.516 0,-7.033 -0.039,-10.55c-0.004,-0.383 -0.248,-0.781 -0.442,-1.14c-0.198,-0.364 -0.59,-0.656 -0.695,-1.034c-0.544,-1.977 -1.019,-3.973 -1.529,-5.96c-0.998,-3.886 -2.034,-7.763 -2.993,-11.658c-0.444,-1.802 -0.758,-3.636 -1.1,-5.462c-0.098,-0.523 0.031,-0.911 0.743,-0.915c0.204,0 0.557,-0.472 0.566,-0.736c0.007,-0.262 -0.326,-0.756 -0.523,-0.763c-0.732,-0.027 -0.815,-0.407 -0.808,-0.991c0.018,-1.68 -0.008,-3.359 0.005,-5.038c0.006,-0.674 -0.094,-1.212 -0.945,-1.222c-0.869,-0.009 -1.063,0.513 -1.058,1.243c0.013,1.647 -0.002,3.295 0.017,4.942c0.007,0.604 -0.051,1.053 -0.846,1.073c-0.171,0.004 -0.447,0.523 -0.456,0.811c-0.007,0.228 0.313,0.657 0.503,0.667c0.776,0.037 0.889,0.496 0.85,1.091c-0.027,0.41 -0.06,0.827 -0.163,1.221c-0.953,3.635 -1.946,7.26 -2.879,10.9c-0.926,3.613 -1.783,7.243 -2.714,10.855c-0.091,0.353 -0.474,0.876 -0.75,0.894c-0.92,0.062 -0.976,0.564 -0.971,1.278c0.025,4.246 0.023,8.492 0.029,12.737c0.003,1.913 0.002,1.913 -1.902,1.919c-1.497,0.005 -1.54,0.048 -1.538,1.572c0.005,3.422 0.011,6.843 0.013,10.266c0.001,0.434 0.086,1.04 -0.565,0.984c-1.35,-0.113 -1.313,0.735 -1.31,1.639c0.012,3.961 0.015,7.921 0.021,11.882c0.001,0.469 0.1,1.083 -0.603,1.017c-0.213,-0.02 -0.523,-0.635 -0.528,-0.982c-0.039,-2.787 0.007,-5.576 -0.035,-8.363c-0.008,-0.452 -0.206,-1.165 -0.52,-1.303c-1.352,-0.6 -2.745,-1.189 -4.185,-1.484c-2.15,-0.442 -4.126,0.361 -6.056,1.256c-0.81,0.376 -1.118,0.902 -1.105,1.777c0.041,2.724 0.03,5.449 0.016,8.174c-0.002,0.35 0.242,0.951 -0.453,0.888c-0.167,-0.014 -0.405,-0.56 -0.408,-0.862c-0.033,-3.771 -0.036,-7.542 -0.033,-11.312c0.001,-2.47 0.136,-2.267 -2.269,-2.259c-2.635,0.009 -2.64,0.005 -2.673,-2.617c-0.007,-0.572 -0.027,-1.063 -0.764,-1.213c-0.176,-0.036 -0.377,-0.467 -0.383,-0.72c-0.039,-1.488 -0.012,-2.978 -0.031,-4.467c-0.008,-0.542 0.155,-0.859 0.759,-0.802c0.686,0.065 0.965,-0.233 1.004,-0.93c0.013,-0.237 0.413,-0.612 0.668,-0.642c0.612,-0.071 0.946,-0.389 0.83,-0.909c-0.083,-0.367 -0.455,-0.873 -0.778,-0.941c-0.608,-0.128 -0.812,-0.342 -0.76,-0.936c0.056,-0.615 -0.257,-1.03 -0.898,-0.918c-0.858,0.15 -1.054,-0.183 -1.056,-0.968c0,-0.263 -0.519,-0.776 -0.695,-0.734c-0.337,0.081 -0.871,0.509 -0.844,0.736c0.119,0.995 -0.369,1.055 -1.134,0.963c-0.629,-0.075 -1.031,0.302 -0.938,0.896c0.111,0.707 -0.158,0.834 -0.777,0.972c-0.306,0.069 -0.626,0.61 -0.711,0.99c-0.107,0.466 0.144,0.865 0.757,0.82c0.568,-0.042 0.826,0.207 0.754,0.793c-0.078,0.638 0.288,0.864 0.864,0.812c0.669,-0.06 0.92,0.244 0.914,0.884c-0.014,1.457 0.012,2.914 -0.011,4.372c-0.005,0.247 -0.137,0.668 -0.284,0.704c-0.705,0.171 -0.656,0.67 -0.648,1.184c0.008,0.475 0.004,0.951 0.004,1.426c-0.001,1.225 -0.03,1.252 -1.307,1.257c-0.765,0.003 -1.533,0.046 -2.295,-0.006c-0.898,-0.06 -1.242,0.254 -1.231,1.19c0.045,4.023 0.037,8.048 0.02,12.072c-0.001,0.442 0.32,1.213 -0.452,1.223c-0.817,0.01 -0.541,-0.803 -0.543,-1.269c-0.009,-2.629 0.008,-5.257 0.068,-7.885c0.022,-0.978 -0.377,-1.541 -1.3,-1.827c-1.182,-0.366 -2.37,-0.726 -3.516,-1.183c-0.792,-0.315 -1.486,-0.355 -2.288,-0.014c-1.05,0.446 -2.155,0.765 -3.244,1.114c-1.489,0.479 -1.497,0.477 -1.495,2.052c0.004,2.725 0.018,5.45 0.001,8.175c-0.002,0.28 -0.119,0.617 -0.304,0.817c-0.105,0.112 -0.58,0.084 -0.672,-0.04c-0.166,-0.221 -0.227,-0.563 -0.228,-0.855c-0.02,-4.151 -0.029,-8.301 -0.023,-12.452c0.002,-0.668 -0.141,-1.161 -0.937,-1.076c-1.014,0.108 -1.206,-0.384 -1.195,-1.29c0.041,-3.454 -0.002,-6.907 0.01,-10.361c0.002,-0.696 -0.143,-1.223 -0.965,-1.202c-1.986,0.05 -1.782,-0.274 -1.823,-2.002c-0.011,-0.443 -0.003,-0.887 -0.003,-1.33c-0.006,-3.771 -0.014,-7.542 -0.016,-11.312c-0.001,-0.667 0.011,-1.284 -0.955,-1.305c-0.212,-0.005 -0.527,-0.429 -0.603,-0.711c-0.64,-2.379 -1.238,-4.77 -1.844,-7.159c-1.011,-3.978 -2.039,-7.952 -3.019,-11.937c-0.337,-1.373 -0.576,-2.773 -0.811,-4.17c-0.085,-0.502 0.021,-0.95 0.745,-0.903c0.577,0.038 0.716,-0.413 0.597,-0.838c-0.078,-0.279 -0.392,-0.694 -0.605,-0.697c-0.7,-0.011 -0.755,-0.373 -0.749,-0.915c0.018,-1.711 -0.005,-3.422 0.01,-5.133c0.006,-0.681 -0.114,-1.192 -0.965,-1.199c-0.874,-0.007 -1.059,0.473 -1.045,1.224c0.029,1.678 0.008,3.358 0.021,5.037c0.003,0.526 -0.064,0.909 -0.738,0.987c-0.232,0.027 -0.523,0.429 -0.597,0.71c-0.111,0.418 -0.005,0.844 0.607,0.814c0.617,-0.031 0.761,0.344 0.729,0.856c-0.027,0.44 -0.011,0.894 -0.116,1.318c-0.997,4.016 -2.012,8.027 -3.03,12.038c-0.851,3.359 -1.711,6.717 -2.578,10.073c-0.05,0.196 -0.157,0.498 -0.294,0.532c-0.967,0.244 -0.949,0.973 -0.947,1.727c0.015,4.499 0.009,8.998 0.044,13.497c0.005,0.607 -0.109,0.907 -0.775,0.823c-0.693,-0.089 -0.905,0.296 -0.857,0.916c0.017,0.22 0.003,0.443 0.003,0.665c0.09,56.905 0.05,67.372 0.224,124.277l87.87,2.575c-0.009,-8.047 0.052,30.344 0.016,22.298Z" style="fill:none;stroke:#dabfff;stroke-width:5px;"/><path d="M725.13,345.571l0.162,102.61l89.474,51.164l-0.161,-102.609l-89.475,-51.165Z" style="fill:#5b6dbc;fill-rule:nonzero;"/><path d="M903.917,345.293l0.163,102.608l-89.313,51.444l-0.162,-102.609l89.312,-51.443Z" style="fill:#3e5087;fill-rule:nonzero;"/><path d="M859.941,426.772c2.904,-1.639 5.004,-2.256 6.302,-1.848c1.297,0.406 1.948,1.79 1.951,4.15c0.002,1.25 -0.174,2.44 -0.528,3.57c-0.355,1.132 -0.852,2.177 -1.492,3.135c-0.639,0.96 -1.4,1.84 -2.282,2.644c-0.883,0.804 -1.85,1.503 -2.903,2.098c-2.45,1.383 -4.372,1.808 -5.769,1.277c-1.397,-0.531 -2.098,-2.282 -2.103,-5.254l-0.085,0.048c0.028,-0.016 0.057,-0.045 0.085,-0.089c-0.001,-0.583 -0.215,-0.914 -0.642,-0.993c-0.428,-0.077 -0.827,-0.012 -1.197,0.197l-10.292,5.811c-0.684,0.525 -1.174,1.031 -1.472,1.519c-0.299,0.489 -0.463,0.99 -0.49,1.506c0.005,3.055 0.287,5.549 0.846,7.484c0.558,1.936 1.344,3.417 2.358,4.443c1.012,1.027 2.21,1.663 3.593,1.91c1.382,0.249 2.9,0.197 4.552,-0.152c1.652,-0.349 3.411,-0.94 5.277,-1.77c1.864,-0.831 3.765,-1.792 5.701,-2.886c3.075,-1.736 5.971,-3.886 8.688,-6.448c2.718,-2.562 5.085,-5.315 7.104,-8.262c2.019,-2.947 3.617,-5.982 4.795,-9.107c1.177,-3.123 1.764,-6.115 1.76,-8.976c-0.003,-2.082 -0.263,-3.756 -0.777,-5.021c-0.515,-1.266 -1.208,-2.251 -2.078,-2.954c-0.872,-0.703 -1.891,-1.205 -3.059,-1.505c-1.169,-0.298 -2.409,-0.521 -3.72,-0.671c1.364,-2.104 2.458,-4.271 3.281,-6.501c0.823,-2.229 1.233,-4.426 1.229,-6.592c-0.003,-2.388 -0.492,-4.342 -1.463,-5.864c-0.971,-1.522 -2.269,-2.596 -3.894,-3.221c-1.626,-0.624 -3.514,-0.768 -5.664,-0.428c-2.152,0.339 -4.408,1.175 -6.772,2.51c-2.391,1.35 -4.662,2.972 -6.81,4.865c-2.149,1.895 -4.032,4.022 -5.654,6.381c-1.62,2.361 -2.913,4.946 -3.876,7.755c-0.965,2.81 -1.445,5.797 -1.44,8.962l0.085,-0.048l-0.042,0.066c0.001,0.611 0.186,0.964 0.557,1.061c0.37,0.097 0.812,0 1.324,-0.289c1.282,-0.696 2.527,-1.386 3.738,-2.069l5.018,-2.833c1.223,-0.691 1.835,-1.606 1.833,-2.745l-0.042,-0.017l0.128,-0.072c-0.001,-0.667 0.061,-1.348 0.189,-2.046c0.127,-0.697 0.347,-1.376 0.659,-2.039c0.312,-0.662 0.753,-1.293 1.322,-1.893c0.569,-0.598 1.295,-1.148 2.178,-1.646c1.025,-0.579 1.837,-0.829 2.435,-0.75c0.599,0.079 1.04,0.324 1.326,0.731c0.285,0.409 0.464,0.892 0.537,1.448c0.071,0.557 0.108,1.016 0.109,1.376c0.001,0.5 -0.07,1.076 -0.211,1.725c-0.142,0.65 -0.383,1.314 -0.724,1.992c-0.341,0.679 -0.81,1.354 -1.408,2.025c-0.596,0.67 -1.337,1.255 -2.219,1.753c-1.225,0.692 -1.835,1.634 -1.834,2.828c0.003,1.583 -0.002,3.135 -0.013,4.655c-0.013,1.523 -0.017,3.047 -0.015,4.573c0.001,0.611 0.18,0.934 0.536,0.969c0.356,0.035 0.791,-0.092 1.303,-0.381l0.171,-0.097Z" style="fill:none;stroke:#dabfff;stroke-width:3.56px;"/></g><path d="M859.941,426.772c2.904,-1.639 5.004,-2.256 6.302,-1.848c1.297,0.406 1.948,1.79 1.951,4.15c0.002,1.25 -0.174,2.44 -0.528,3.57c-0.355,1.132 -0.852,2.177 -1.492,3.135c-0.639,0.96 -1.4,1.84 -2.282,2.644c-0.883,0.804 -1.85,1.503 -2.903,2.098c-2.45,1.383 -4.372,1.808 -5.769,1.277c-1.397,-0.531 -2.098,-2.282 -2.103,-5.254l-0.085,0.048c0.028,-0.016 0.057,-0.045 0.085,-0.089c-0.001,-0.583 -0.215,-0.914 -0.642,-0.993c-0.428,-0.077 -0.827,-0.012 -1.197,0.197l-10.292,5.811c-0.684,0.525 -1.174,1.031 -1.472,1.519c-0.299,0.489 -0.463,0.99 -0.49,1.506c0.005,3.055 0.287,5.549 0.846,7.484c0.558,1.936 1.344,3.417 2.358,4.443c1.012,1.027 2.21,1.663 3.593,1.91c1.382,0.249 2.9,0.197 4.552,-0.152c1.652,-0.349 3.411,-0.94 5.277,-1.77c1.864,-0.831 3.765,-1.792 5.701,-2.886c3.075,-1.736 5.971,-3.886 8.688,-6.448c2.718,-2.562 5.085,-5.315 7.104,-8.262c2.019,-2.947 3.617,-5.982 4.795,-9.107c1.177,-3.123 1.764,-6.115 1.76,-8.976c-0.003,-2.082 -0.263,-3.756 -0.777,-5.021c-0.515,-1.266 -1.208,-2.251 -2.078,-2.954c-0.872,-0.703 -1.891,-1.205 -3.059,-1.505c-1.169,-0.298 -2.409,-0.521 -3.72,-0.671c1.364,-2.104 2.458,-4.271 3.281,-6.501c0.823,-2.229 1.233,-4.426 1.229,-6.592c-0.003,-2.388 -0.492,-4.342 -1.463,-5.864c-0.971,-1.522 -2.269,-2.596 -3.894,-3.221c-1.626,-0.624 -3.514,-0.768 -5.664,-0.428c-2.152,0.339 -4.408,1.175 -6.772,2.51c-2.391,1.35 -4.662,2.972 -6.81,4.865c-2.149,1.895 -4.032,4.022 -5.654,6.381c-1.62,2.361 -2.913,4.946 -3.876,7.755c-0.965,2.81 -1.445,5.797 -1.44,8.962l0.085,-0.048l-0.042,0.066c0.001,0.611 0.186,0.964 0.557,1.061c0.37,0.097 0.812,0 1.324,-0.289c1.282,-0.696 2.527,-1.386 3.738,-2.069l5.018,-2.833c1.223,-0.691 1.835,-1.606 1.833,-2.745l-0.042,-0.017l0.128,-0.072c-0.001,-0.667 0.061,-1.348 0.189,-2.046c0.127,-0.697 0.347,-1.376 0.659,-2.039c0.312,-0.662 0.753,-1.293 1.322,-1.893c0.569,-0.598 1.295,-1.148 2.178,-1.646c1.025,-0.579 1.837,-0.829 2.435,-0.75c0.599,0.079 1.04,0.324 1.326,0.731c0.285,0.409 0.464,0.892 0.537,1.448c0.071,0.557 0.108,1.016 0.109,1.376c0.001,0.5 -0.07,1.076 -0.211,1.725c-0.142,0.65 -0.383,1.314 -0.724,1.992c-0.341,0.679 -0.81,1.354 -1.408,2.025c-0.596,0.67 -1.337,1.255 -2.219,1.753c-1.225,0.692 -1.835,1.634 -1.834,2.828c0.003,1.583 -0.002,3.135 -0.013,4.655c-0.013,1.523 -0.017,3.047 -0.015,4.573c0.001,0.611 0.18,0.934 0.536,0.969c0.356,0.035 0.791,-0.092 1.303,-0.381l0.171,-0.097Z" style="fill:none;stroke:#dabfff;stroke-width:3.56px;"/></g><path d="M252.078,145.434l-34.299,43.658c-1.343,1.709 -3.502,2.576 -5.663,2.275l-51.692,-7.211c-2.16,-0.301 -3.996,-1.726 -4.813,-3.737l-19.565,-48.106c-0.818,-2.01 -0.495,-4.302 0.848,-6.012l32.129,-40.895c1.343,-1.71 3.502,-2.577 5.662,-2.275l51.693,7.21c2.161,0.302 3.996,1.726 4.814,3.737l7.009,17.235" style="fill:none;stroke:#dabfff;stroke-width:5px;stroke-linecap:round;stroke-linejoin:round;"/><path d="M556.366,155.566c1.246,-3.115 4.797,-4.637 7.931,-3.398l9.504,3.756l25.825,10.208c3.135,1.239 4.666,4.769 3.419,7.885l-14.048,35.118c-1.246,3.116 -4.798,4.637 -7.932,3.398l-35.328,-13.964c-3.134,-1.238 -4.665,-4.769 -3.419,-7.884l3.037,-7.591" style="fill:none;stroke:#dabfff;stroke-width:5px;stroke-linecap:round;"/><path d="M876.075,61.281l8,0c2.182,0 4.198,1.158 5.289,3.036l7.999,13.773c1.092,1.878 1.092,4.192 0,6.071l-7.999,13.773c-1.091,1.877 -3.107,3.035 -5.289,3.035l-15.999,0c-2.181,0 -4.198,-1.158 -5.289,-3.035l-7.999,-13.773c-1.091,-1.879 -1.091,-4.193 0,-6.071l4.745,-8.17" style="fill:none;stroke:#dabfff;stroke-width:5px;stroke-linecap:round;"/><path d="M1011.59,156.507l-15.736,0c-4.701,0 -7.639,-5.059 -5.289,-9.106l69.23,-119.196c2.35,-4.047 8.227,-4.047 10.578,0l69.229,119.196c2.351,4.047 -0.587,9.106 -5.289,9.106l-59.875,0" style="fill:none;stroke:#dabfff;stroke-width:5px;stroke-linecap:round;"/><path d="M158.288,469.057l5.768,4.378c3.736,2.836 2.983,8.63 -1.356,10.429l-48.45,20.081c-4.34,1.799 -9.01,-1.746 -8.408,-6.381l6.73,-51.751c0.603,-4.635 6.027,-6.883 9.763,-4.047l3.572,2.712" style="fill:none;stroke:#dabfff;stroke-width:5px;stroke-linecap:round;"/><path d="M401.054,598.649l25.45,6.736c3.26,0.864 5.198,4.189 4.33,7.429l-21.237,79.284c-0.868,3.24 -4.213,5.166 -7.473,4.304l-79.758,-21.111c-3.26,-0.862 -5.198,-4.188 -4.331,-7.428l21.237,-79.284c0.869,-3.24 4.214,-5.167 7.473,-4.305l18.395,4.87" style="fill:none;stroke:#dabfff;stroke-width:5px;stroke-linecap:round;"/><path d="M684.505,590.514l0.305,-6.084c0.234,-4.668 5.463,-7.333 9.413,-4.798l17.718,11.375c3.949,2.535 3.655,8.37 -0.527,10.502l-18.769,9.564c-4.184,2.133 -9.12,-1.036 -8.886,-5.704" style="fill:none;stroke:#dabfff;stroke-width:5px;stroke-linecap:round;"/><path d="M720.185,580.509l-14.89,14.848c-3.319,3.31 -8.998,1.808 -10.222,-2.705l-5.49,-20.243c-1.224,-4.512 2.924,-8.649 7.467,-7.447l20.381,5.394c4.544,1.204 6.073,6.844 2.754,10.153" style="fill:#3e5087;fill-rule:nonzero;"/><path d="M575.771,166.571l32.955,18.846c2.924,1.671 3.93,5.383 2.249,8.289l-18.958,32.759c-1.682,2.907 -5.416,3.908 -8.339,2.236l-32.956,-18.846c-2.924,-1.671 -3.93,-5.383 -2.248,-8.289l18.958,-32.759c1.682,-2.906 5.415,-3.908 8.339,-2.236" style="fill:#5b6dbc;fill-rule:nonzero;"/><path d="M878.788,116.3l-15.627,-3.407c-2.131,-0.465 -3.852,-2.024 -4.512,-4.091l-4.845,-15.157c-0.661,-2.067 -0.163,-4.327 1.307,-5.93l10.783,-11.749c1.47,-1.602 3.689,-2.303 5.82,-1.839l15.627,3.407c2.131,0.465 3.852,2.024 4.513,4.091l4.844,15.157c0.661,2.067 0.163,4.327 -1.308,5.93l-10.781,11.75c-1.471,1.602 -3.69,2.303 -5.821,1.838" style="fill:#3e5087;fill-rule:nonzero;"/><path d="M129.233,459.149l37.177,36.84c3.329,3.299 1.818,8.944 -2.722,10.161l-50.683,13.585c-4.539,1.216 -8.701,-2.907 -7.492,-7.424l13.507,-50.424c1.21,-4.516 6.884,-6.037 10.213,-2.738" style="fill:#3e5087;fill-rule:nonzero;"/><path d="M1198.11,558.66l15.032,47.02c0.661,2.067 0.163,4.328 -1.308,5.93l-49.553,54c-1.47,1.603 -3.688,2.303 -5.82,1.839l-71.821,-15.659c-2.131,-0.464 -3.852,-2.024 -4.512,-4.091l-22.269,-69.658c-0.661,-2.067 -0.162,-4.327 1.308,-5.93l49.552,-53.999c1.471,-1.603 3.69,-2.304 5.82,-1.839l55.454,12.09" style="fill:none;stroke:#dabfff;stroke-width:5px;stroke-linecap:round;"/><g transform="matrix(1,0,0,1,613.373,110.909)"><path d="M-204.919,270.353c0,0.572 0.286,0.858 0.858,0.858l8.959,0c0.657,0 0.985,-0.286 0.985,-0.858l0,-42.668c0,-0.36 -0.09,-0.588 -0.27,-0.683c-0.18,-0.096 -0.355,-0.143 -0.524,-0.143l-9.15,0c-0.297,0 -0.514,0.09 -0.651,0.27c-0.138,0.18 -0.207,0.386 -0.207,0.619l0,14.964l-16.266,0l0,-15.027c0,-0.36 -0.091,-0.588 -0.271,-0.683c-0.18,-0.096 -0.354,-0.143 -0.524,-0.143l-9.15,0c-0.296,0 -0.513,0.09 -0.651,0.27c-0.138,0.18 -0.207,0.386 -0.207,0.619l0,42.605c0,0.572 0.286,0.858 0.858,0.858l8.96,0c0.656,0 0.985,-0.286 0.985,-0.858l0,-17.823l16.266,0l0,17.823Zm-0.953,-16.87l-14.36,0l0,16.87c0,1.207 -0.646,1.811 -1.938,1.811l-8.96,0c-1.207,0 -1.811,-0.604 -1.811,-1.811l0,-42.605c0,-0.487 0.149,-0.916 0.445,-1.286c0.297,-0.371 0.752,-0.556 1.366,-0.556l9.15,0c0.17,0 0.36,0.021 0.572,0.063c0.212,0.043 0.403,0.127 0.572,0.254c0.169,0.127 0.312,0.307 0.429,0.54c0.116,0.233 0.175,0.541 0.175,0.922l0,14.074l14.36,0l0,-14.011c0,-0.487 0.148,-0.916 0.445,-1.286c0.296,-0.371 0.752,-0.556 1.366,-0.556l9.15,0c0.169,0 0.36,0.021 0.572,0.063c0.212,0.043 0.402,0.127 0.572,0.254c0.169,0.127 0.312,0.307 0.429,0.54c0.116,0.233 0.174,0.541 0.174,0.922l0,42.668c0,1.207 -0.646,1.811 -1.938,1.811l-8.959,0c-1.207,0 -1.811,-0.604 -1.811,-1.811l0,-16.87Z" style="fill:#dabfff;fill-rule:nonzero;stroke:#dabfff;stroke-width:2.4px;stroke-linejoin:round;stroke-miterlimit:1.41421;"/><path d="M-145.476,234.134c0,-0.593 -0.296,-0.889 -0.889,-0.889l-6.164,0c-0.296,0 -0.482,0.084 -0.556,0.254c-0.074,0.169 -0.196,0.434 -0.365,0.794l-1.462,3.495c-1.461,-1.716 -3.187,-2.971 -5.178,-3.765c-1.991,-0.794 -4.13,-1.191 -6.418,-1.191c-2.69,0 -5.2,0.513 -7.53,1.541c-2.329,1.027 -4.352,2.425 -6.068,4.193c-1.715,1.769 -3.06,3.839 -4.035,6.211c-0.974,2.373 -1.461,4.904 -1.461,7.594c0,2.923 0.524,5.581 1.573,7.974c1.048,2.394 2.451,4.443 4.209,6.148c1.758,1.705 3.791,3.023 6.1,3.955c2.309,0.932 4.713,1.398 7.212,1.398c1.991,0 3.892,-0.439 5.703,-1.318c1.811,-0.879 3.479,-2.113 5.004,-3.702l0.762,2.193l-0.031,-0.159c0.084,0.212 0.18,0.455 0.286,0.731c0.105,0.275 0.233,0.529 0.381,0.762c0.148,0.233 0.312,0.434 0.492,0.604c0.18,0.169 0.376,0.254 0.588,0.254l6.958,0c0.593,0 0.889,-0.297 0.889,-0.89l0,-36.187Zm0.954,36.187c0,1.229 -0.615,1.843 -1.843,1.843l-6.958,0c-0.381,0 -0.715,-0.106 -1.001,-0.318c-0.286,-0.212 -0.535,-0.476 -0.746,-0.794c-0.212,-0.318 -0.392,-0.657 -0.54,-1.017c-0.149,-0.36 -0.276,-0.677 -0.382,-0.953l-0.063,-0.286l0.031,0.159c-0.063,-0.169 -0.09,-0.233 -0.079,-0.191c0.011,0.043 -0.016,-0.021 -0.079,-0.19c-1.398,1.334 -2.966,2.372 -4.702,3.113c-1.737,0.742 -3.612,1.112 -5.624,1.112c-2.626,0 -5.152,-0.487 -7.577,-1.461c-2.425,-0.974 -4.559,-2.356 -6.402,-4.146c-1.843,-1.79 -3.315,-3.94 -4.416,-6.45c-1.102,-2.51 -1.652,-5.3 -1.652,-8.371c0,-2.817 0.513,-5.47 1.541,-7.959c1.027,-2.489 2.441,-4.66 4.241,-6.513c1.8,-1.853 3.924,-3.32 6.37,-4.4c2.446,-1.08 5.078,-1.62 7.895,-1.62c2.266,0 4.363,0.317 6.291,0.953c1.927,0.635 3.569,1.673 4.924,3.113l0.953,-1.97c0.127,-0.275 0.239,-0.519 0.334,-0.73c0.095,-0.212 0.196,-0.387 0.302,-0.525c0.106,-0.137 0.249,-0.243 0.429,-0.317c0.18,-0.074 0.429,-0.111 0.746,-0.111l6.164,0c1.228,0 1.843,0.614 1.843,1.842l0,36.187Zm-11.66,-18.014c0,1.356 -0.249,2.648 -0.747,3.876c-0.498,1.229 -1.186,2.304 -2.065,3.225c-0.879,0.921 -1.917,1.652 -3.114,2.192c-1.196,0.54 -2.483,0.81 -3.86,0.81c-1.377,0 -2.647,-0.254 -3.812,-0.762c-1.165,-0.509 -2.177,-1.213 -3.034,-2.113c-0.858,-0.9 -1.531,-1.97 -2.018,-3.209c-0.487,-1.239 -0.731,-2.579 -0.731,-4.019c0,-1.504 0.26,-2.875 0.779,-4.114c0.519,-1.239 1.218,-2.304 2.097,-3.193c0.879,-0.89 1.901,-1.578 3.066,-2.065c1.165,-0.487 2.382,-0.731 3.653,-0.731c1.377,0 2.664,0.27 3.86,0.81c1.197,0.54 2.235,1.271 3.114,2.192c0.879,0.922 1.567,1.997 2.065,3.225c0.498,1.229 0.747,2.521 0.747,3.876Zm-0.953,0c0,-1.228 -0.223,-2.399 -0.668,-3.511c-0.444,-1.111 -1.064,-2.086 -1.858,-2.922c-0.795,-0.837 -1.732,-1.499 -2.812,-1.986c-1.08,-0.487 -2.245,-0.731 -3.495,-0.731c-1.144,0 -2.24,0.223 -3.288,0.667c-1.048,0.445 -1.97,1.07 -2.764,1.875c-0.794,0.805 -1.425,1.768 -1.89,2.891c-0.466,1.123 -0.699,2.362 -0.699,3.717c0,1.292 0.217,2.499 0.651,3.622c0.434,1.123 1.038,2.092 1.811,2.907c0.773,0.816 1.689,1.456 2.748,1.922c1.059,0.466 2.203,0.699 3.431,0.699c1.25,0 2.415,-0.243 3.495,-0.731c1.08,-0.487 2.017,-1.149 2.812,-1.985c0.794,-0.837 1.414,-1.811 1.858,-2.923c0.445,-1.112 0.668,-2.282 0.668,-3.511Z" style="fill:#dabfff;fill-rule:nonzero;stroke:#dabfff;stroke-width:2.4px;stroke-linejoin:round;stroke-miterlimit:1.41421;"/><path d="M-111.926,259.614c-0.402,0.276 -0.863,0.578 -1.382,0.906c-0.519,0.328 -1.08,0.63 -1.683,0.905c-0.604,0.276 -1.25,0.503 -1.938,0.683c-0.689,0.181 -1.414,0.271 -2.177,0.271c-1.292,0 -2.504,-0.244 -3.638,-0.731c-1.133,-0.487 -2.118,-1.17 -2.954,-2.049c-0.837,-0.879 -1.493,-1.938 -1.97,-3.178c-0.477,-1.239 -0.715,-2.61 -0.715,-4.114c0,-1.504 0.254,-2.88 0.763,-4.13c0.508,-1.25 1.186,-2.325 2.033,-3.225c0.847,-0.9 1.827,-1.599 2.939,-2.097c1.112,-0.497 2.282,-0.746 3.51,-0.746c1.271,0 2.489,0.185 3.654,0.556c1.165,0.37 2.436,1.032 3.813,1.985l-0.032,0c0.169,0.106 0.339,0.159 0.508,0.159c0.191,0 0.307,-0.053 0.35,-0.159l-0.032,0l4.352,-6.735c0.064,-0.064 0.096,-0.138 0.096,-0.222c0,-0.106 -0.032,-0.202 -0.096,-0.286c-0.063,-0.085 -0.137,-0.17 -0.222,-0.255c-0.847,-0.656 -1.716,-1.249 -2.605,-1.779c-0.89,-0.529 -1.838,-0.985 -2.844,-1.366c-1.006,-0.381 -2.081,-0.672 -3.224,-0.874c-1.144,-0.201 -2.404,-0.301 -3.781,-0.301c-2.669,0 -5.179,0.508 -7.53,1.525c-2.351,1.016 -4.4,2.404 -6.147,4.162c-1.748,1.758 -3.125,3.817 -4.131,6.179c-1.006,2.362 -1.509,4.887 -1.509,7.577c0,2.86 0.514,5.491 1.541,7.895c1.027,2.404 2.431,4.475 4.21,6.212c1.779,1.736 3.86,3.092 6.243,4.066c2.383,0.975 4.929,1.462 7.641,1.462c1.101,0 2.224,-0.127 3.367,-0.381c1.144,-0.255 2.251,-0.594 3.32,-1.017c1.07,-0.424 2.071,-0.911 3.003,-1.462c0.932,-0.55 1.737,-1.122 2.414,-1.715c0.276,-0.254 0.413,-0.456 0.413,-0.604c0,-0.212 -0.095,-0.455 -0.286,-0.731l0.032,0c-0.72,-1.08 -1.451,-2.144 -2.192,-3.193c-0.741,-1.048 -1.472,-2.112 -2.192,-3.193c-0.085,-0.127 -0.212,-0.19 -0.381,-0.19c-0.191,0 -0.371,0.063 -0.541,0.19Zm-0.571,-0.762c0.296,-0.233 0.667,-0.35 1.112,-0.35c0.233,0 0.455,0.043 0.667,0.128c0.212,0.084 0.392,0.243 0.54,0.476l-0.032,0c0.72,1.08 1.446,2.145 2.176,3.193c0.731,1.049 1.457,2.113 2.177,3.193c0.254,0.445 0.402,0.858 0.444,1.239c0,0.445 -0.243,0.879 -0.73,1.303c-0.72,0.593 -1.584,1.175 -2.59,1.747c-1.006,0.572 -2.086,1.08 -3.24,1.525c-1.155,0.445 -2.335,0.81 -3.543,1.096c-1.207,0.286 -2.361,0.44 -3.463,0.461c-2.774,-0.064 -5.406,-0.62 -7.895,-1.668c-2.488,-1.049 -4.665,-2.483 -6.529,-4.305c-1.864,-1.822 -3.341,-3.977 -4.432,-6.465c-1.091,-2.489 -1.636,-5.206 -1.636,-8.15c0,-2.817 0.53,-5.464 1.589,-7.942c1.059,-2.478 2.504,-4.639 4.336,-6.482c1.832,-1.842 3.982,-3.298 6.45,-4.368c2.467,-1.07 5.099,-1.604 7.895,-1.604c1.461,0 2.79,0.1 3.987,0.301c1.197,0.202 2.314,0.493 3.352,0.874c1.038,0.381 2.017,0.853 2.939,1.414c0.921,0.561 1.837,1.202 2.748,1.922c0.466,0.402 0.699,0.826 0.699,1.271c0,0.275 -0.074,0.529 -0.223,0.762c-0.72,1.102 -1.456,2.224 -2.208,3.368c-0.751,1.144 -1.477,2.266 -2.176,3.368c-0.127,0.212 -0.296,0.36 -0.508,0.445c-0.212,0.084 -0.424,0.127 -0.636,0.127c-0.36,0 -0.699,-0.106 -1.016,-0.318c-1.271,-0.89 -2.447,-1.504 -3.527,-1.843c-1.08,-0.339 -2.203,-0.508 -3.368,-0.508c-1.101,0 -2.149,0.228 -3.145,0.683c-0.995,0.455 -1.874,1.085 -2.637,1.89c-0.762,0.805 -1.371,1.774 -1.827,2.907c-0.455,1.133 -0.683,2.388 -0.683,3.765c0,1.356 0.212,2.595 0.636,3.717c0.423,1.123 1.011,2.087 1.763,2.892c0.752,0.804 1.636,1.424 2.653,1.858c1.016,0.434 2.107,0.651 3.272,0.651c0.678,0 1.335,-0.084 1.97,-0.254c0.635,-0.169 1.234,-0.381 1.795,-0.635c0.561,-0.254 1.08,-0.53 1.557,-0.826c0.476,-0.297 0.905,-0.583 1.287,-0.858Z" style="fill:#dabfff;fill-rule:nonzero;stroke:#dabfff;stroke-width:2.4px;stroke-linejoin:round;stroke-miterlimit:1.41421;"/><path d="M-65.159,234.643c0.127,-0.127 0.191,-0.286 0.191,-0.477c0,-0.233 -0.101,-0.445 -0.302,-0.635c-0.201,-0.191 -0.482,-0.286 -0.842,-0.286l-9.023,0c-0.381,0.021 -0.741,0.084 -1.08,0.19c-0.339,0.106 -0.657,0.318 -0.953,0.636l-11.819,13.248l0,-24.59c0,-0.551 -0.275,-0.827 -0.826,-0.827l-9.023,0c-0.551,0 -0.826,0.276 -0.826,0.827l0,47.656c0,0.55 0.275,0.826 0.826,0.826l9.023,0c0.551,0 0.826,-0.276 0.826,-0.826l0,-10.802l4.098,-4.226l10.548,14.71c0.297,0.424 0.551,0.72 0.763,0.89c0.212,0.169 0.487,0.254 0.826,0.254l10.103,0c0.254,0 0.466,-0.069 0.635,-0.207c0.17,-0.137 0.255,-0.323 0.255,-0.556c0,-0.211 -0.106,-0.476 -0.318,-0.794l-16.267,-21.128l13.185,-13.883Zm-11.914,13.947l15.758,20.492c0.17,0.233 0.297,0.471 0.382,0.715c0.084,0.244 0.127,0.461 0.127,0.651c0,0.487 -0.17,0.895 -0.509,1.223c-0.339,0.329 -0.783,0.493 -1.334,0.493l-10.103,0c-0.551,0 -0.985,-0.122 -1.303,-0.365c-0.317,-0.244 -0.667,-0.631 -1.048,-1.16l-9.913,-13.82l-3.018,3.145l0,10.421c0,1.186 -0.593,1.779 -1.779,1.779l-9.023,0c-1.186,0 -1.779,-0.593 -1.779,-1.779l0,-47.656c0,-1.187 0.593,-1.78 1.779,-1.78l9.023,0c1.186,0 1.779,0.593 1.779,1.78l0,22.112l10.167,-11.406c0.487,-0.55 0.926,-0.879 1.318,-0.985c0.392,-0.106 0.863,-0.158 1.414,-0.158l9.023,0c0.699,0 1.228,0.19 1.588,0.571c0.361,0.382 0.541,0.805 0.541,1.271c0,0.466 -0.159,0.858 -0.477,1.176l0,-0.032l-12.613,13.312Z" style="fill:#dabfff;fill-rule:nonzero;stroke:#dabfff;stroke-width:2.4px;stroke-linejoin:round;stroke-miterlimit:1.41421;"/><path d="M-18.71,243.125c0.487,0 0.731,-0.254 0.731,-0.762l0,-8.229c0,-0.169 -0.064,-0.333 -0.191,-0.492c-0.127,-0.159 -0.307,-0.238 -0.54,-0.238l-5.592,0l0,-9.405c0,-0.487 -0.116,-0.847 -0.349,-1.08c-0.233,-0.233 -0.519,-0.349 -0.858,-0.349c-0.169,0 -0.339,0.031 -0.508,0.095l-7.975,2.637c-0.445,0.169 -0.752,0.365 -0.921,0.588c-0.17,0.222 -0.254,0.482 -0.254,0.778l0,6.736l-4.734,0c-0.508,0 -0.763,0.243 -0.763,0.73l0,8.229c0,0.508 0.255,0.762 0.763,0.762l4.734,0l0,27.228c0,0.572 0.286,0.858 0.858,0.858l9.118,0c0.593,0 0.889,-0.286 0.889,-0.858l0,-27.228l5.592,0Zm-4.639,0.954l0,26.274c0,0.741 -0.153,1.228 -0.46,1.461c-0.307,0.233 -0.768,0.35 -1.382,0.35l-9.118,0c-1.208,0 -1.811,-0.604 -1.811,-1.811l0,-26.274l-3.781,0c-1.144,0 -1.716,-0.572 -1.716,-1.716l0,-8.229c0,-0.508 0.149,-0.916 0.445,-1.223c0.297,-0.307 0.72,-0.461 1.271,-0.461l3.781,0l0,-5.782c0,-0.551 0.116,-1.006 0.349,-1.366c0.233,-0.36 0.72,-0.657 1.462,-0.89l7.974,-2.637c0.148,-0.042 0.291,-0.074 0.429,-0.095c0.138,-0.021 0.27,-0.032 0.397,-0.032c0.593,0 1.101,0.196 1.525,0.588c0.424,0.392 0.635,0.98 0.635,1.763l0,8.451l4.639,0c0.551,0 0.969,0.175 1.255,0.525c0.286,0.349 0.429,0.736 0.429,1.159l0,8.229c0,1.144 -0.561,1.716 -1.684,1.716l-4.639,0Z" style="fill:#dabfff;fill-rule:nonzero;stroke:#dabfff;stroke-width:2.4px;stroke-linejoin:round;stroke-miterlimit:1.41421;"/><path d="M12.902,270.258c0,0.635 0.318,0.953 0.953,0.953l8.832,0c0.297,0 0.53,-0.085 0.699,-0.254c0.17,-0.17 0.255,-0.403 0.255,-0.699l0,-17.76c0,-2.775 -0.196,-5.359 -0.588,-7.752c-0.392,-2.394 -1.107,-4.475 -2.145,-6.243c-1.038,-1.769 -2.473,-3.161 -4.305,-4.178c-1.832,-1.017 -4.199,-1.525 -7.1,-1.525c-0.89,0 -1.769,0.132 -2.637,0.397c-0.869,0.265 -1.727,0.625 -2.574,1.08c-0.847,0.456 -1.678,0.99 -2.494,1.605c-0.815,0.614 -1.604,1.281 -2.367,2.001l0,-14.996c0,-0.275 -0.085,-0.503 -0.254,-0.683c-0.169,-0.18 -0.402,-0.27 -0.699,-0.27l-8.832,0c-0.297,0 -0.53,0.08 -0.699,0.239c-0.17,0.158 -0.254,0.397 -0.254,0.714l0,47.371c0,0.635 0.317,0.953 0.953,0.953l8.832,0c0.297,0 0.53,-0.085 0.699,-0.254c0.169,-0.17 0.254,-0.403 0.254,-0.699l0,-19.571c0,-1.313 0.175,-2.473 0.524,-3.479c0.35,-1.006 0.832,-1.843 1.446,-2.51c0.614,-0.667 1.334,-1.17 2.16,-1.509c0.826,-0.339 1.716,-0.508 2.669,-0.508c0.974,0 1.869,0.19 2.685,0.571c0.815,0.382 1.519,0.943 2.113,1.684c0.593,0.742 1.053,1.647 1.382,2.717c0.328,1.069 0.492,2.293 0.492,3.669l0,18.936Zm-0.953,-18.936c0,-1.207 -0.143,-2.287 -0.429,-3.24c-0.286,-0.953 -0.683,-1.758 -1.191,-2.415c-0.509,-0.657 -1.112,-1.16 -1.811,-1.509c-0.699,-0.35 -1.462,-0.524 -2.288,-0.524c-0.826,0 -1.594,0.148 -2.303,0.445c-0.71,0.296 -1.329,0.741 -1.859,1.334c-0.529,0.593 -0.942,1.329 -1.239,2.208c-0.296,0.879 -0.445,1.901 -0.445,3.066l0,19.571c0,0.572 -0.164,1.032 -0.492,1.382c-0.328,0.349 -0.8,0.524 -1.414,0.524l-8.832,0c-1.271,0 -1.906,-0.635 -1.906,-1.906l0,-47.371c0,-0.635 0.174,-1.112 0.524,-1.429c0.349,-0.318 0.81,-0.477 1.382,-0.477l8.832,0c0.572,0 1.033,0.18 1.382,0.54c0.35,0.36 0.524,0.816 0.524,1.366l0,12.868c1.314,-1.144 2.727,-2.081 4.242,-2.812c1.514,-0.731 3.14,-1.096 4.877,-1.096c3.092,0 5.612,0.529 7.561,1.588c1.949,1.059 3.484,2.521 4.607,4.385c1.122,1.864 1.89,4.05 2.303,6.56c0.413,2.51 0.62,5.216 0.62,8.118l0,17.76c0,0.572 -0.164,1.032 -0.493,1.382c-0.328,0.349 -0.799,0.524 -1.414,0.524l-8.832,0c-1.271,0 -1.906,-0.635 -1.906,-1.906l0,-18.936Z" style="fill:#dabfff;fill-rule:nonzero;stroke:#dabfff;stroke-width:2.4px;stroke-linejoin:round;stroke-miterlimit:1.41421;"/><path d="M59.16,259.583l-0.73,0.603c-0.424,0.339 -0.874,0.689 -1.351,1.049c-0.476,0.36 -1.043,0.683 -1.699,0.969c-0.657,0.286 -1.441,0.519 -2.351,0.699c-0.911,0.18 -2.013,0.27 -3.305,0.27c-1.08,0 -2.112,-0.18 -3.097,-0.54c-0.985,-0.36 -1.88,-0.874 -2.685,-1.541c-0.805,-0.667 -1.514,-1.478 -2.129,-2.431c-0.614,-0.953 -1.08,-2.012 -1.397,-3.177l22.589,0c0.741,0 1.371,-0.042 1.89,-0.127c0.519,-0.085 0.937,-0.243 1.255,-0.476c0.318,-0.233 0.551,-0.572 0.699,-1.017c0.148,-0.445 0.222,-1.027 0.222,-1.747c0,-2.288 -0.27,-4.353 -0.81,-6.196c-0.54,-1.842 -1.265,-3.479 -2.176,-4.908c-0.911,-1.43 -1.965,-2.653 -3.161,-3.67c-1.197,-1.017 -2.447,-1.858 -3.749,-2.526c-1.303,-0.667 -2.616,-1.154 -3.94,-1.461c-1.324,-0.307 -2.579,-0.461 -3.765,-0.461c-2.838,0 -5.433,0.509 -7.784,1.525c-2.351,1.017 -4.368,2.409 -6.052,4.178c-1.684,1.769 -2.992,3.834 -3.924,6.195c-0.932,2.362 -1.398,4.888 -1.398,7.578c0,2.69 0.53,5.215 1.589,7.577c1.059,2.362 2.489,4.427 4.289,6.195c1.8,1.769 3.876,3.162 6.227,4.178c2.351,1.017 4.808,1.525 7.371,1.525c1.123,0 2.266,-0.084 3.431,-0.254c1.165,-0.169 2.351,-0.461 3.559,-0.874c1.207,-0.413 2.419,-0.963 3.637,-1.652c1.218,-0.688 2.441,-1.551 3.67,-2.589c0.085,-0.085 0.169,-0.185 0.254,-0.302c0.085,-0.116 0.127,-0.217 0.127,-0.302c0,-0.19 -0.127,-0.466 -0.381,-0.826l-3.908,-5.401c-0.148,-0.127 -0.328,-0.19 -0.54,-0.19c-0.191,0 -0.35,0.042 -0.477,0.127Zm-0.572,-0.763c0.318,-0.254 0.689,-0.381 1.112,-0.381c0.233,0.021 0.456,0.074 0.668,0.159c0.211,0.085 0.402,0.243 0.572,0.476l3.907,5.401c0.382,0.551 0.572,1.017 0.572,1.398c0,0.466 -0.233,0.9 -0.699,1.303c-1.313,1.144 -2.605,2.081 -3.876,2.812c-1.271,0.73 -2.526,1.302 -3.765,1.715c-1.239,0.413 -2.462,0.699 -3.669,0.858c-1.207,0.159 -2.415,0.238 -3.622,0.238c-2.69,0 -5.269,-0.534 -7.736,-1.604c-2.468,-1.07 -4.644,-2.531 -6.529,-4.384c-1.885,-1.854 -3.384,-4.019 -4.496,-6.498c-1.112,-2.478 -1.668,-5.125 -1.668,-7.942c0,-2.817 0.487,-5.465 1.462,-7.943c0.974,-2.478 2.346,-4.644 4.114,-6.497c1.769,-1.853 3.887,-3.315 6.354,-4.385c2.468,-1.069 5.195,-1.604 8.181,-1.604c1.25,0 2.574,0.164 3.972,0.493c1.398,0.328 2.78,0.836 4.146,1.525c1.366,0.688 2.679,1.572 3.939,2.652c1.261,1.081 2.372,2.367 3.336,3.861c0.964,1.493 1.732,3.203 2.304,5.131c0.571,1.927 0.857,4.098 0.857,6.513c0,0.931 -0.09,1.678 -0.27,2.239c-0.18,0.562 -0.471,0.996 -0.873,1.303c-0.403,0.307 -0.922,0.514 -1.557,0.62c-0.636,0.105 -1.409,0.158 -2.319,0.158l-21.35,0c0.317,0.848 0.752,1.626 1.302,2.336c0.551,0.709 1.176,1.318 1.875,1.826c0.699,0.509 1.466,0.906 2.303,1.192c0.837,0.286 1.7,0.429 2.589,0.429c1.398,0 2.563,-0.117 3.495,-0.35c0.932,-0.233 1.721,-0.519 2.367,-0.858c0.646,-0.339 1.197,-0.709 1.652,-1.112c0.456,-0.402 0.906,-0.762 1.35,-1.08Zm-9.467,-17.664c1.864,0 3.532,0.566 5.004,1.699c1.472,1.134 2.684,2.759 3.637,4.877l-16.87,0c0.424,-0.911 0.916,-1.768 1.477,-2.573c0.562,-0.805 1.187,-1.504 1.875,-2.097c0.688,-0.593 1.446,-1.059 2.272,-1.398c0.826,-0.339 1.694,-0.508 2.605,-0.508Zm0,0.953c-1.568,0 -2.913,0.429 -4.035,1.286c-1.123,0.858 -2.023,1.986 -2.701,3.384l13.884,0c-0.762,-1.504 -1.758,-2.658 -2.986,-3.463c-1.229,-0.805 -2.616,-1.207 -4.162,-1.207Z" style="fill:#dabfff;fill-rule:nonzero;stroke:#dabfff;stroke-width:2.4px;stroke-linejoin:round;stroke-miterlimit:1.41421;"/><path d="M-199.052,354.112c0,0.675 0.337,1.013 1.012,1.013l10.575,0c0.775,0 1.163,-0.338 1.163,-1.013l0,-50.362c0,-0.425 -0.106,-0.694 -0.319,-0.806c-0.212,-0.113 -0.419,-0.169 -0.619,-0.169l-10.8,0c-0.35,0 -0.606,0.106 -0.768,0.319c-0.163,0.212 -0.244,0.456 -0.244,0.731l0,17.662l-19.2,0l0,-17.737c0,-0.425 -0.106,-0.694 -0.319,-0.806c-0.212,-0.113 -0.419,-0.169 -0.619,-0.169l-10.8,0c-0.35,0 -0.606,0.106 -0.768,0.319c-0.163,0.212 -0.244,0.456 -0.244,0.731l0,50.287c0,0.675 0.337,1.013 1.012,1.013l10.575,0c0.775,0 1.163,-0.338 1.163,-1.013l0,-21.037l19.2,0l0,21.037Zm-1.125,-19.912l-16.95,0l0,19.912c0,1.425 -0.763,2.138 -2.288,2.138l-10.575,0c-1.425,0 -2.137,-0.713 -2.137,-2.138l0,-50.287c0,-0.575 0.175,-1.081 0.525,-1.519c0.35,-0.437 0.887,-0.656 1.612,-0.656l10.8,0c0.2,0 0.425,0.025 0.675,0.075c0.25,0.05 0.475,0.15 0.675,0.3c0.2,0.15 0.369,0.362 0.507,0.637c0.137,0.275 0.206,0.638 0.206,1.088l0,16.612l16.95,0l0,-16.537c0,-0.575 0.175,-1.081 0.525,-1.519c0.35,-0.437 0.887,-0.656 1.612,-0.656l10.8,0c0.2,0 0.425,0.025 0.675,0.075c0.25,0.05 0.475,0.15 0.675,0.3c0.2,0.15 0.369,0.362 0.507,0.637c0.137,0.275 0.206,0.638 0.206,1.088l0,50.362c0,1.425 -0.763,2.138 -2.288,2.138l-10.575,0c-1.425,0 -2.137,-0.713 -2.137,-2.138l0,-19.912Z" style="fill:#dabfff;fill-rule:nonzero;stroke:#dabfff;stroke-width:2.4px;stroke-linejoin:round;stroke-miterlimit:1.41421;"/><path d="M-142.277,341.4l-0.863,0.712c-0.5,0.4 -1.031,0.813 -1.593,1.238c-0.563,0.425 -1.232,0.806 -2.007,1.144c-0.775,0.337 -1.7,0.612 -2.775,0.825c-1.075,0.212 -2.375,0.318 -3.9,0.318c-1.275,0 -2.493,-0.212 -3.656,-0.637c-1.162,-0.425 -2.219,-1.031 -3.169,-1.819c-0.95,-0.787 -1.787,-1.744 -2.512,-2.869c-0.725,-1.125 -1.275,-2.375 -1.65,-3.75l26.662,0c0.875,0 1.619,-0.05 2.232,-0.15c0.612,-0.1 1.106,-0.287 1.481,-0.562c0.375,-0.275 0.65,-0.675 0.825,-1.2c0.175,-0.525 0.262,-1.213 0.262,-2.063c0,-2.7 -0.318,-5.137 -0.956,-7.312c-0.637,-2.175 -1.494,-4.106 -2.569,-5.794c-1.075,-1.687 -2.318,-3.131 -3.731,-4.331c-1.412,-1.2 -2.887,-2.194 -4.425,-2.981c-1.537,-0.788 -3.087,-1.363 -4.65,-1.725c-1.562,-0.363 -3.044,-0.544 -4.444,-0.544c-3.35,0 -6.412,0.6 -9.187,1.8c-2.775,1.2 -5.156,2.844 -7.144,4.931c-1.987,2.088 -3.531,4.525 -4.631,7.313c-1.1,2.787 -1.65,5.768 -1.65,8.943c0,3.175 0.625,6.157 1.875,8.944c1.25,2.788 2.937,5.225 5.062,7.313c2.125,2.087 4.575,3.731 7.35,4.931c2.775,1.2 5.675,1.8 8.7,1.8c1.325,0 2.675,-0.1 4.05,-0.3c1.375,-0.2 2.775,-0.544 4.2,-1.031c1.425,-0.488 2.857,-1.138 4.294,-1.95c1.438,-0.813 2.881,-1.832 4.331,-3.057c0.1,-0.1 0.2,-0.218 0.3,-0.356c0.1,-0.137 0.15,-0.256 0.15,-0.356c0,-0.225 -0.15,-0.55 -0.45,-0.975l-4.612,-6.375c-0.175,-0.15 -0.388,-0.225 -0.638,-0.225c-0.225,0 -0.412,0.05 -0.562,0.15Zm-0.675,-0.9c0.375,-0.3 0.812,-0.45 1.312,-0.45c0.275,0.025 0.538,0.087 0.788,0.187c0.25,0.1 0.475,0.288 0.675,0.563l4.612,6.375c0.45,0.65 0.675,1.2 0.675,1.65c0,0.55 -0.275,1.062 -0.825,1.537c-1.55,1.35 -3.075,2.457 -4.575,3.319c-1.5,0.863 -2.981,1.538 -4.443,2.025c-1.463,0.488 -2.907,0.825 -4.332,1.013c-1.425,0.187 -2.85,0.281 -4.275,0.281c-3.175,0 -6.218,-0.631 -9.131,-1.894c-2.912,-1.262 -5.481,-2.987 -7.706,-5.175c-2.225,-2.187 -3.994,-4.744 -5.306,-7.669c-1.313,-2.925 -1.969,-6.05 -1.969,-9.375c0,-3.325 0.575,-6.45 1.725,-9.375c1.15,-2.925 2.769,-5.481 4.856,-7.668c2.088,-2.188 4.588,-3.913 7.5,-5.175c2.913,-1.263 6.131,-1.894 9.656,-1.894c1.475,0 3.038,0.194 4.688,0.581c1.65,0.388 3.281,0.988 4.894,1.8c1.612,0.813 3.162,1.856 4.65,3.131c1.487,1.275 2.8,2.794 3.937,4.557c1.138,1.762 2.044,3.781 2.719,6.056c0.675,2.275 1.012,4.837 1.012,7.687c0,1.1 -0.106,1.982 -0.318,2.644c-0.213,0.663 -0.557,1.175 -1.032,1.538c-0.475,0.362 -1.087,0.606 -1.837,0.731c-0.75,0.125 -1.663,0.187 -2.738,0.187l-25.2,0c0.375,1 0.888,1.919 1.538,2.757c0.65,0.837 1.387,1.556 2.212,2.156c0.825,0.6 1.732,1.069 2.719,1.406c0.988,0.338 2.006,0.506 3.056,0.506c1.65,0 3.025,-0.137 4.125,-0.412c1.1,-0.275 2.032,-0.613 2.794,-1.013c0.763,-0.4 1.413,-0.837 1.95,-1.312c0.538,-0.475 1.069,-0.9 1.594,-1.275Zm-11.175,-20.85c2.2,0 4.169,0.669 5.906,2.006c1.738,1.338 3.169,3.256 4.294,5.756l-19.913,0c0.5,-1.075 1.082,-2.087 1.744,-3.037c0.663,-0.95 1.4,-1.775 2.213,-2.475c0.812,-0.7 1.706,-1.25 2.681,-1.65c0.975,-0.4 2,-0.6 3.075,-0.6Zm0,1.125c-1.85,0 -3.438,0.506 -4.763,1.519c-1.325,1.012 -2.387,2.343 -3.187,3.993l16.387,0c-0.9,-1.775 -2.075,-3.137 -3.525,-4.087c-1.45,-0.95 -3.087,-1.425 -4.912,-1.425Z" style="fill:#dabfff;fill-rule:nonzero;stroke:#dabfff;stroke-width:2.4px;stroke-linejoin:round;stroke-miterlimit:1.41421;"/><path d="M-123.977,354.112c0,0.675 0.337,1.013 1.012,1.013l10.688,0c0.675,0 1.012,-0.338 1.012,-1.013l0,-42.787c0,-0.3 -0.1,-0.544 -0.3,-0.731c-0.2,-0.188 -0.437,-0.282 -0.712,-0.282l-10.688,0c-0.25,0 -0.481,0.082 -0.693,0.244c-0.213,0.163 -0.319,0.419 -0.319,0.769l0,42.787Zm-1.125,-42.787c0,-0.725 0.231,-1.263 0.694,-1.613c0.462,-0.35 0.943,-0.525 1.443,-0.525l10.688,0c0.625,0 1.137,0.194 1.537,0.582c0.4,0.387 0.6,0.906 0.6,1.556l0,42.787c0,1.425 -0.712,2.138 -2.137,2.138l-10.688,0c-1.425,0 -2.137,-0.713 -2.137,-2.138l0,-42.787Zm1.087,-9.713c0,0.8 0.225,1.338 0.675,1.613c0.45,0.275 1.025,0.412 1.725,0.412l8.25,0c0.675,0 1.2,-0.143 1.575,-0.431c0.375,-0.287 0.563,-0.831 0.563,-1.631l0,-6.825c0,-0.75 -0.163,-1.344 -0.488,-1.781c-0.325,-0.438 -0.875,-0.657 -1.65,-0.657l-8.25,0c-0.9,0 -1.525,0.232 -1.875,0.694c-0.35,0.463 -0.525,1.044 -0.525,1.744l0,6.862Zm-1.125,-6.862c0,-1 0.257,-1.844 0.769,-2.531c0.513,-0.688 1.431,-1.032 2.756,-1.032l8.25,0c1.2,0 2.044,0.319 2.532,0.957c0.487,0.637 0.731,1.506 0.731,2.606l0,6.825c0,1.25 -0.281,2.094 -0.844,2.531c-0.562,0.438 -1.369,0.656 -2.419,0.656l-8.25,0c-1.05,0 -1.9,-0.212 -2.55,-0.637c-0.65,-0.425 -0.975,-1.263 -0.975,-2.513l0,-6.862Z" style="fill:#dabfff;fill-rule:nonzero;stroke:#dabfff;stroke-width:2.4px;stroke-linejoin:round;stroke-miterlimit:1.41421;"/><path d="M-55.99,311.475c0,-0.425 -0.106,-0.719 -0.318,-0.881c-0.213,-0.163 -0.494,-0.244 -0.844,-0.244l-6.825,0c-0.45,0 -0.763,0.144 -0.938,0.431c-0.175,0.288 -0.362,0.719 -0.562,1.294c-0.1,0.275 -0.213,0.6 -0.338,0.975c-0.125,0.375 -0.262,0.762 -0.412,1.162c-0.15,0.4 -0.288,0.782 -0.413,1.144c-0.125,0.363 -0.237,0.681 -0.337,0.956c-1.75,-2.025 -3.738,-3.631 -5.963,-4.818c-2.225,-1.188 -4.662,-1.782 -7.312,-1.782c-2.875,0 -5.625,0.607 -8.25,1.819c-2.625,1.213 -4.938,2.863 -6.938,4.95c-2,2.088 -3.587,4.519 -4.762,7.294c-1.175,2.775 -1.763,5.725 -1.763,8.85c0,3.275 0.588,6.262 1.763,8.962c1.175,2.7 2.762,5.019 4.762,6.957c2,1.937 4.313,3.443 6.938,4.518c2.625,1.075 5.375,1.613 8.25,1.613c2.2,0 4.356,-0.544 6.469,-1.631c2.112,-1.088 4.093,-2.569 5.943,-4.444l0,2.362c0,1.6 -0.337,3.038 -1.012,4.313c-0.675,1.275 -1.556,2.35 -2.644,3.225c-1.087,0.875 -2.331,1.55 -3.731,2.025c-1.4,0.475 -2.813,0.712 -4.238,0.712c-2.4,0 -4.425,-0.293 -6.075,-0.881c-1.65,-0.587 -3.112,-1.406 -4.387,-2.456l0,0.037c-0.4,-0.325 -0.75,-0.487 -1.05,-0.487c-0.375,0 -0.725,0.237 -1.05,0.712l0,-0.037l-4.125,6.037c-0.125,0.15 -0.231,0.319 -0.319,0.507c-0.087,0.187 -0.131,0.343 -0.131,0.468c0,0.15 0.137,0.363 0.412,0.638l-0.037,0c1.125,1.1 2.375,2.05 3.75,2.85c1.375,0.8 2.825,1.462 4.35,1.987c1.525,0.525 3.1,0.913 4.725,1.163c1.625,0.25 3.237,0.375 4.837,0.375c2.875,0 5.669,-0.475 8.382,-1.425c2.712,-0.95 5.118,-2.406 7.218,-4.369c2.1,-1.962 3.788,-4.444 5.063,-7.444c1.275,-3 1.912,-6.562 1.912,-10.687l0,-36.75Zm-12.225,21.3c0,-1.5 -0.275,-2.906 -0.825,-4.219c-0.55,-1.312 -1.3,-2.462 -2.25,-3.45c-0.95,-0.987 -2.081,-1.769 -3.393,-2.344c-1.313,-0.575 -2.732,-0.862 -4.257,-0.862c-1.55,0 -2.937,0.294 -4.162,0.881c-1.225,0.588 -2.256,1.375 -3.094,2.363c-0.837,0.987 -1.481,2.143 -1.931,3.468c-0.45,1.325 -0.675,2.738 -0.675,4.238c0,1.5 0.237,2.894 0.712,4.181c0.475,1.288 1.15,2.413 2.025,3.375c0.875,0.963 1.938,1.719 3.188,2.269c1.25,0.55 2.65,0.825 4.2,0.825c1.425,0 2.775,-0.275 4.05,-0.825c1.275,-0.55 2.387,-1.306 3.337,-2.269c0.95,-0.962 1.7,-2.094 2.25,-3.394c0.55,-1.3 0.825,-2.712 0.825,-4.237Zm13.35,15.45c0,4.3 -0.668,8.025 -2.006,11.175c-1.337,3.15 -3.106,5.75 -5.306,7.8c-2.2,2.05 -4.725,3.575 -7.575,4.575c-2.85,1 -5.788,1.5 -8.813,1.5c-1.7,0 -3.393,-0.131 -5.081,-0.394c-1.687,-0.262 -3.325,-0.669 -4.912,-1.219c-1.588,-0.55 -3.1,-1.243 -4.538,-2.081c-1.437,-0.837 -2.744,-1.831 -3.919,-2.981c-0.475,-0.45 -0.712,-0.938 -0.712,-1.463c0,-0.275 0.062,-0.537 0.187,-0.787c0.125,-0.25 0.288,-0.513 0.488,-0.788l4.125,-6.037c0.275,-0.425 0.581,-0.731 0.919,-0.919c0.337,-0.187 0.681,-0.281 1.031,-0.281c0.625,0 1.225,0.25 1.8,0.75c1.125,0.95 2.462,1.694 4.012,2.231c1.55,0.538 3.45,0.806 5.7,0.806c1.275,0 2.532,-0.2 3.769,-0.6c1.238,-0.4 2.344,-0.975 3.319,-1.725c0.975,-0.75 1.775,-1.668 2.4,-2.756c0.625,-1.087 0.962,-2.319 1.012,-3.694c-1.575,1.4 -3.306,2.494 -5.193,3.282c-1.888,0.787 -3.919,1.181 -6.094,1.181c-3.025,0 -5.919,-0.563 -8.681,-1.688c-2.763,-1.125 -5.194,-2.706 -7.294,-4.743c-2.1,-2.038 -3.769,-4.475 -5.006,-7.313c-1.238,-2.837 -1.857,-5.981 -1.857,-9.431c0,-3.275 0.619,-6.369 1.857,-9.281c1.237,-2.913 2.906,-5.463 5.006,-7.65c2.1,-2.188 4.531,-3.919 7.294,-5.194c2.762,-1.275 5.656,-1.913 8.681,-1.913c2.625,0 5.006,0.5 7.144,1.5c2.137,1 4.031,2.363 5.681,4.088c0.3,-0.85 0.55,-1.581 0.75,-2.194c0.2,-0.612 0.406,-1.125 0.619,-1.537c0.212,-0.413 0.475,-0.719 0.787,-0.919c0.313,-0.2 0.744,-0.3 1.294,-0.3l6.825,0c0.7,0 1.256,0.156 1.669,0.469c0.412,0.312 0.618,0.906 0.618,1.781l0,36.75Zm-12.225,-15.45c0,1.675 -0.306,3.237 -0.918,4.687c-0.613,1.45 -1.444,2.707 -2.494,3.769c-1.05,1.063 -2.281,1.894 -3.694,2.494c-1.412,0.6 -2.906,0.9 -4.481,0.9c-1.725,0 -3.281,-0.306 -4.669,-0.919c-1.387,-0.612 -2.569,-1.45 -3.544,-2.512c-0.975,-1.063 -1.725,-2.307 -2.25,-3.732c-0.525,-1.425 -0.787,-2.962 -0.787,-4.612c0,-1.65 0.25,-3.206 0.75,-4.669c0.5,-1.462 1.225,-2.744 2.175,-3.844c0.95,-1.1 2.1,-1.968 3.45,-2.606c1.35,-0.637 2.887,-0.956 4.612,-0.956c1.7,0 3.275,0.319 4.725,0.956c1.45,0.638 2.7,1.5 3.75,2.588c1.05,1.087 1.875,2.356 2.475,3.806c0.6,1.45 0.9,3 0.9,4.65Z" style="fill:#dabfff;fill-rule:nonzero;stroke:#dabfff;stroke-width:2.4px;stroke-linejoin:round;stroke-miterlimit:1.41421;"/><path d="M-17.665,354c0,0.75 0.375,1.125 1.125,1.125l10.425,0c0.35,0 0.625,-0.1 0.825,-0.3c0.2,-0.2 0.3,-0.475 0.3,-0.825l0,-20.963c0,-3.275 -0.231,-6.325 -0.693,-9.15c-0.463,-2.825 -1.307,-5.281 -2.532,-7.368c-1.225,-2.088 -2.918,-3.732 -5.081,-4.932c-2.162,-1.2 -4.956,-1.8 -8.381,-1.8c-1.05,0 -2.088,0.157 -3.113,0.469c-1.025,0.313 -2.037,0.738 -3.037,1.275c-1,0.538 -1.981,1.169 -2.944,1.894c-0.962,0.725 -1.894,1.512 -2.794,2.362l0,-17.7c0,-0.325 -0.1,-0.593 -0.3,-0.806c-0.2,-0.212 -0.475,-0.319 -0.825,-0.319l-10.425,0c-0.35,0 -0.625,0.094 -0.825,0.282c-0.2,0.187 -0.3,0.468 -0.3,0.843l0,55.913c0,0.75 0.375,1.125 1.125,1.125l10.425,0c0.35,0 0.625,-0.1 0.825,-0.3c0.2,-0.2 0.3,-0.475 0.3,-0.825l0,-23.1c0,-1.55 0.207,-2.919 0.619,-4.106c0.413,-1.188 0.981,-2.175 1.706,-2.963c0.725,-0.787 1.575,-1.381 2.55,-1.781c0.975,-0.4 2.025,-0.6 3.15,-0.6c1.15,0 2.207,0.225 3.169,0.675c0.963,0.45 1.794,1.112 2.494,1.987c0.7,0.875 1.244,1.944 1.631,3.207c0.388,1.262 0.581,2.706 0.581,4.331l0,22.35Zm-1.125,-22.35c0,-1.425 -0.168,-2.7 -0.506,-3.825c-0.337,-1.125 -0.806,-2.075 -1.406,-2.85c-0.6,-0.775 -1.313,-1.369 -2.138,-1.781c-0.825,-0.413 -1.725,-0.619 -2.7,-0.619c-0.975,0 -1.881,0.175 -2.718,0.525c-0.838,0.35 -1.569,0.875 -2.194,1.575c-0.625,0.7 -1.113,1.569 -1.463,2.606c-0.35,1.038 -0.525,2.244 -0.525,3.619l0,23.1c0,0.675 -0.193,1.219 -0.581,1.631c-0.387,0.413 -0.944,0.619 -1.669,0.619l-10.425,0c-1.5,0 -2.25,-0.75 -2.25,-2.25l0,-55.913c0,-0.75 0.207,-1.312 0.619,-1.687c0.413,-0.375 0.956,-0.563 1.631,-0.563l10.425,0c0.675,0 1.219,0.213 1.632,0.638c0.412,0.425 0.618,0.962 0.618,1.612l0,15.188c1.55,-1.35 3.219,-2.456 5.007,-3.319c1.787,-0.862 3.706,-1.294 5.756,-1.294c3.65,0 6.625,0.625 8.925,1.875c2.3,1.25 4.112,2.975 5.437,5.175c1.325,2.2 2.232,4.782 2.719,7.744c0.488,2.963 0.731,6.156 0.731,9.581l0,20.963c0,0.675 -0.193,1.219 -0.581,1.631c-0.387,0.413 -0.944,0.619 -1.669,0.619l-10.425,0c-1.5,0 -2.25,-0.75 -2.25,-2.25l0,-22.35Z" style="fill:#dabfff;fill-rule:nonzero;stroke:#dabfff;stroke-width:2.4px;stroke-linejoin:round;stroke-miterlimit:1.41421;"/><path d="M26.473,321.975c0.575,0 0.862,-0.3 0.862,-0.9l0,-9.713c0,-0.2 -0.075,-0.393 -0.225,-0.581c-0.15,-0.187 -0.362,-0.281 -0.637,-0.281l-6.6,0l0,-11.1c0,-0.575 -0.138,-1 -0.413,-1.275c-0.275,-0.275 -0.612,-0.413 -1.012,-0.413c-0.2,0 -0.4,0.038 -0.6,0.113l-9.413,3.112c-0.525,0.2 -0.887,0.432 -1.087,0.694c-0.2,0.263 -0.3,0.569 -0.3,0.919l0,7.95l-5.588,0c-0.6,0 -0.9,0.287 -0.9,0.862l0,9.713c0,0.6 0.3,0.9 0.9,0.9l5.588,0l0,32.137c0,0.675 0.337,1.013 1.012,1.013l10.763,0c0.7,0 1.05,-0.338 1.05,-1.013l0,-32.137l6.6,0Zm-5.475,1.125l0,31.012c0,0.875 -0.181,1.45 -0.544,1.725c-0.362,0.275 -0.906,0.413 -1.631,0.413l-10.763,0c-1.425,0 -2.137,-0.713 -2.137,-2.138l0,-31.012l-4.463,0c-1.35,0 -2.025,-0.675 -2.025,-2.025l0,-9.713c0,-0.6 0.175,-1.081 0.525,-1.443c0.35,-0.363 0.85,-0.544 1.5,-0.544l4.463,0l0,-6.825c0,-0.65 0.137,-1.188 0.412,-1.613c0.275,-0.425 0.85,-0.775 1.725,-1.05l9.413,-3.112c0.175,-0.05 0.344,-0.088 0.506,-0.113c0.163,-0.025 0.319,-0.037 0.469,-0.037c0.7,0 1.3,0.231 1.8,0.694c0.5,0.462 0.75,1.156 0.75,2.081l0,9.975l5.475,0c0.65,0 1.144,0.206 1.481,0.619c0.338,0.412 0.506,0.868 0.506,1.368l0,9.713c0,1.35 -0.662,2.025 -1.987,2.025l-5.475,0Z" style="fill:#dabfff;fill-rule:nonzero;stroke:#dabfff;stroke-width:2.4px;stroke-linejoin:round;stroke-miterlimit:1.41421;"/><path d="M34.348,348.6c1.175,1.475 2.425,2.694 3.75,3.656c1.325,0.963 2.706,1.725 4.144,2.288c1.437,0.562 2.906,0.956 4.406,1.181c1.5,0.225 2.987,0.337 4.462,0.337c2.175,0 4.282,-0.318 6.319,-0.956c2.038,-0.637 3.844,-1.562 5.419,-2.775c1.575,-1.212 2.844,-2.706 3.806,-4.481c0.963,-1.775 1.444,-3.8 1.444,-6.075c0,-1.3 -0.156,-2.625 -0.469,-3.975c-0.312,-1.35 -0.881,-2.65 -1.706,-3.9c-0.825,-1.25 -1.956,-2.419 -3.394,-3.506c-1.437,-1.088 -3.281,-2.019 -5.531,-2.794l-4.163,-1.313c-1.025,-0.3 -1.893,-0.568 -2.606,-0.806c-0.712,-0.237 -1.287,-0.487 -1.725,-0.75c-0.437,-0.262 -0.756,-0.569 -0.956,-0.919c-0.2,-0.35 -0.3,-0.8 -0.3,-1.35c0,-0.725 0.394,-1.368 1.181,-1.931c0.788,-0.562 1.981,-0.844 3.581,-0.844c0.825,0 1.563,0.088 2.213,0.263c0.65,0.175 1.244,0.4 1.781,0.675c0.538,0.275 1.031,0.587 1.481,0.937c0.45,0.35 0.9,0.713 1.35,1.088c0.4,0.325 0.675,0.487 0.825,0.487c0.2,0 0.463,-0.15 0.788,-0.45l0,0.038c0.45,-0.375 1.025,-0.85 1.725,-1.425c0.7,-0.575 1.375,-1.15 2.025,-1.725c0.65,-0.575 1.212,-1.106 1.687,-1.594c0.475,-0.487 0.713,-0.831 0.713,-1.031c0,-0.25 -0.213,-0.563 -0.638,-0.938l-0.487,-0.45l0.037,0c-0.7,-0.65 -1.462,-1.325 -2.287,-2.025c-0.825,-0.7 -1.781,-1.337 -2.869,-1.912c-1.087,-0.575 -2.337,-1.05 -3.75,-1.425c-1.412,-0.375 -3.056,-0.563 -4.931,-0.563c-2.625,0 -4.969,0.313 -7.031,0.938c-2.063,0.625 -3.807,1.481 -5.232,2.569c-1.425,1.087 -2.506,2.381 -3.243,3.881c-0.738,1.5 -1.107,3.137 -1.107,4.912c0,1.975 0.257,3.744 0.769,5.307c0.513,1.562 1.294,2.943 2.344,4.143c1.05,1.2 2.387,2.25 4.012,3.15c1.625,0.9 3.55,1.675 5.775,2.325c1.55,0.45 2.813,0.85 3.788,1.2c0.975,0.35 1.737,0.7 2.287,1.05c0.55,0.35 0.925,0.738 1.125,1.163c0.2,0.425 0.3,0.937 0.3,1.537c0,0.525 -0.081,1.013 -0.243,1.463c-0.163,0.45 -0.45,0.844 -0.863,1.181c-0.412,0.338 -0.969,0.606 -1.669,0.806c-0.7,0.2 -1.587,0.3 -2.662,0.3c-0.85,0 -1.694,-0.118 -2.531,-0.356c-0.838,-0.237 -1.644,-0.556 -2.419,-0.956c-0.775,-0.4 -1.519,-0.856 -2.231,-1.369c-0.713,-0.512 -1.382,-1.031 -2.007,-1.556c-0.175,-0.15 -0.356,-0.275 -0.543,-0.375c-0.188,-0.1 -0.344,-0.15 -0.469,-0.15c-0.2,0 -0.4,0.1 -0.6,0.3l-5.063,4.95l0.038,0c-0.375,0.375 -0.563,0.737 -0.563,1.087c0,0.25 0.069,0.494 0.207,0.732c0.137,0.237 0.306,0.481 0.506,0.731Zm-0.9,0.675c-0.275,-0.325 -0.5,-0.656 -0.675,-0.994c-0.175,-0.337 -0.263,-0.719 -0.263,-1.144c0,-0.3 0.063,-0.612 0.188,-0.937c0.125,-0.325 0.35,-0.65 0.675,-0.975l5.1,-4.95l-0.038,0c0.4,-0.4 0.863,-0.6 1.388,-0.6c0.55,0 1.137,0.275 1.762,0.825c0.575,0.525 1.194,1.025 1.857,1.5c0.662,0.475 1.35,0.894 2.062,1.256c0.713,0.363 1.45,0.65 2.213,0.863c0.762,0.212 1.531,0.318 2.306,0.318c1.7,0 2.844,-0.25 3.431,-0.75c0.588,-0.5 0.881,-1.125 0.881,-1.875c0,-0.425 -0.1,-0.793 -0.3,-1.106c-0.2,-0.312 -0.55,-0.606 -1.05,-0.881c-0.5,-0.275 -1.181,-0.563 -2.043,-0.863c-0.863,-0.3 -1.957,-0.65 -3.282,-1.05c-4.525,-1.4 -7.943,-3.375 -10.256,-5.925c-2.312,-2.55 -3.469,-5.9 -3.469,-10.05c0,-1.925 0.394,-3.706 1.182,-5.343c0.787,-1.638 1.937,-3.057 3.45,-4.257c1.512,-1.2 3.368,-2.137 5.568,-2.812c2.2,-0.675 4.713,-1.013 7.538,-1.013c1.975,0 3.706,0.194 5.194,0.582c1.487,0.387 2.806,0.887 3.956,1.5c1.15,0.612 2.162,1.287 3.037,2.025c0.875,0.737 1.675,1.443 2.4,2.118l0.525,0.45l-0.037,0c0.65,0.6 0.975,1.188 0.975,1.763c-0.05,0.625 -0.388,1.225 -1.013,1.8l-5.512,4.837c-0.275,0.25 -0.544,0.425 -0.806,0.525c-0.263,0.1 -0.507,0.15 -0.732,0.15c-0.275,0 -0.537,-0.068 -0.787,-0.206c-0.25,-0.137 -0.513,-0.306 -0.788,-0.506c-0.4,-0.325 -0.812,-0.65 -1.237,-0.975c-0.425,-0.325 -0.881,-0.619 -1.369,-0.881c-0.487,-0.263 -1.019,-0.475 -1.594,-0.638c-0.575,-0.162 -1.2,-0.244 -1.875,-0.244c-1.225,0 -2.137,0.169 -2.737,0.507c-0.6,0.337 -0.9,0.718 -0.9,1.143c0,0.45 0.169,0.825 0.506,1.125c0.338,0.3 0.869,0.582 1.594,0.844c0.725,0.263 1.656,0.55 2.794,0.863c1.137,0.312 2.506,0.731 4.106,1.256c2.475,0.825 4.487,1.812 6.037,2.962c1.55,1.15 2.757,2.4 3.619,3.75c0.863,1.35 1.444,2.757 1.744,4.219c0.3,1.463 0.45,2.894 0.45,4.294c0,2.475 -0.506,4.669 -1.519,6.581c-1.012,1.913 -2.362,3.525 -4.05,4.838c-1.687,1.312 -3.619,2.306 -5.794,2.981c-2.175,0.675 -4.425,1.012 -6.75,1.012c-1.55,0 -3.112,-0.118 -4.687,-0.356c-1.575,-0.237 -3.119,-0.656 -4.631,-1.256c-1.513,-0.6 -2.969,-1.406 -4.369,-2.419c-1.4,-1.012 -2.725,-2.306 -3.975,-3.881Z" style="fill:#dabfff;fill-rule:nonzero;stroke:#dabfff;stroke-width:2.4px;stroke-linejoin:round;stroke-miterlimit:1.41421;"/></g></g></svg>