<svg id="Layer_1" data-name="Layer 1" xmlns="http://www.w3.org/2000/svg" xmlns:xlink="http://www.w3.org/1999/xlink" viewBox="0 0 2094.02 1325.56"><defs><style>.cls-1,.cls-4{fill:#28366e;}.cls-2{clip-path:url(#clip-path);}.cls-3{opacity:0.05;}.cls-10,.cls-4,.cls-6,.cls-7{stroke:#dabfff;}.cls-10,.cls-4,.cls-7{stroke-miterlimit:10;}.cls-4{stroke-width:3px;}.cls-5{fill:#5b6dbc;}.cls-10,.cls-6,.cls-7{fill:none;stroke-width:5px;}.cls-6,.cls-7{stroke-linecap:round;}.cls-6{stroke-linejoin:round;}.cls-8{fill:#3e5087;}.cls-9{fill:#263572;}</style><clipPath id="clip-path"><rect class="cls-1" width="2094.02" height="1325.56"/></clipPath></defs><title>hth3 splash</title><rect class="cls-1" width="2094.02" height="1325.56"/><g class="cls-2"><g class="cls-3"><rect class="cls-4" x="-278.26" y="-337.22" width="3000" height="3000" transform="translate(-132.6 157.56) rotate(-7)"/><line class="cls-4" x1="-227.65" y1="1666.7" x2="2749.98" y2="1301.09"/><line class="cls-4" x1="-234.82" y1="1608.32" x2="2742.82" y2="1242.71"/><line class="cls-4" x1="-241.99" y1="1549.93" x2="2735.65" y2="1184.32"/><line class="cls-4" x1="-249.16" y1="1491.55" x2="2728.48" y2="1125.94"/><line class="cls-4" x1="-256.33" y1="1433.16" x2="2721.31" y2="1067.55"/><line class="cls-4" x1="-263.5" y1="1374.78" x2="2714.14" y2="1009.17"/><line class="cls-4" x1="-270.67" y1="1316.39" x2="2706.97" y2="950.78"/><line class="cls-4" x1="-277.84" y1="1258.01" x2="2699.8" y2="892.4"/><line class="cls-4" x1="-285" y1="1199.62" x2="2692.63" y2="834.01"/><line class="cls-4" x1="-292.17" y1="1141.24" x2="2685.47" y2="775.63"/><line class="cls-4" x1="-299.34" y1="1082.85" x2="2678.3" y2="717.24"/><line class="cls-4" x1="-306.51" y1="1024.47" x2="2671.13" y2="658.86"/><line class="cls-4" x1="-313.68" y1="966.08" x2="2663.96" y2="600.47"/><line class="cls-4" x1="-320.85" y1="907.7" x2="2656.79" y2="542.09"/><line class="cls-4" x1="-328.02" y1="849.31" x2="2649.62" y2="483.7"/><line class="cls-4" x1="-335.19" y1="790.93" x2="2642.45" y2="425.32"/><line class="cls-4" x1="-342.35" y1="732.54" x2="2635.28" y2="366.93"/><line class="cls-4" x1="-349.52" y1="674.16" x2="2628.12" y2="308.55"/><line class="cls-4" x1="-356.69" y1="615.77" x2="2620.95" y2="250.16"/><line class="cls-4" x1="-363.86" y1="557.39" x2="2613.78" y2="191.78"/><line class="cls-4" x1="-371.03" y1="499" x2="2606.61" y2="133.39"/><line class="cls-4" x1="-378.2" y1="440.61" x2="2599.44" y2="75.01"/><line class="cls-4" x1="-385.37" y1="382.23" x2="2592.27" y2="16.62"/><line class="cls-4" x1="-392.54" y1="323.84" x2="2585.1" y2="-41.76"/><line class="cls-4" x1="-399.7" y1="265.46" x2="2577.93" y2="-100.15"/><line class="cls-4" x1="-406.87" y1="207.07" x2="2570.76" y2="-158.53"/><line class="cls-4" x1="-414.04" y1="148.69" x2="2563.6" y2="-216.92"/><line class="cls-4" x1="-421.21" y1="90.3" x2="2556.43" y2="-275.3"/><line class="cls-4" x1="-428.38" y1="31.92" x2="2549.26" y2="-333.69"/><line class="cls-4" x1="2060.67" y1="-451.49" x2="2426.28" y2="2526.14"/><line class="cls-4" x1="2002.29" y1="-444.33" x2="2367.9" y2="2533.31"/><line class="cls-4" x1="1943.9" y1="-437.16" x2="2309.51" y2="2540.48"/><line class="cls-4" x1="1885.52" y1="-429.99" x2="2251.13" y2="2547.65"/><line class="cls-4" x1="1827.13" y1="-422.82" x2="2192.74" y2="2554.82"/><line class="cls-4" x1="1768.75" y1="-415.65" x2="2134.36" y2="2561.99"/><line class="cls-4" x1="1710.36" y1="-408.48" x2="2075.97" y2="2569.16"/><line class="cls-4" x1="1651.98" y1="-401.31" x2="2017.58" y2="2576.33"/><line class="cls-4" x1="1593.59" y1="-394.14" x2="1959.2" y2="2583.49"/><line class="cls-4" x1="1535.21" y1="-386.98" x2="1900.81" y2="2590.66"/><line class="cls-4" x1="1476.82" y1="-379.81" x2="1842.43" y2="2597.83"/><line class="cls-4" x1="1418.44" y1="-372.64" x2="1784.04" y2="2605"/><line class="cls-4" x1="1360.05" y1="-365.47" x2="1725.66" y2="2612.17"/><line class="cls-4" x1="1301.67" y1="-358.3" x2="1667.27" y2="2619.34"/><line class="cls-4" x1="1243.28" y1="-351.13" x2="1608.89" y2="2626.51"/><line class="cls-4" x1="1184.9" y1="-343.96" x2="1550.5" y2="2633.68"/><line class="cls-4" x1="1126.51" y1="-336.79" x2="1492.12" y2="2640.84"/><line class="cls-4" x1="1068.13" y1="-329.62" x2="1433.73" y2="2648.01"/><line class="cls-4" x1="1009.74" y1="-322.46" x2="1375.35" y2="2655.18"/><line class="cls-4" x1="951.35" y1="-315.29" x2="1316.96" y2="2662.35"/><line class="cls-4" x1="892.97" y1="-308.12" x2="1258.58" y2="2669.52"/><line class="cls-4" x1="834.58" y1="-300.95" x2="1200.19" y2="2676.69"/><line class="cls-4" x1="776.2" y1="-293.78" x2="1141.81" y2="2683.86"/><line class="cls-4" x1="717.81" y1="-286.61" x2="1083.42" y2="2691.03"/><line class="cls-4" x1="659.43" y1="-279.44" x2="1025.04" y2="2698.2"/><line class="cls-4" x1="601.04" y1="-272.27" x2="966.65" y2="2705.36"/><line class="cls-4" x1="542.66" y1="-265.11" x2="908.27" y2="2712.53"/><line class="cls-4" x1="484.27" y1="-257.94" x2="849.88" y2="2719.7"/><line class="cls-4" x1="425.89" y1="-250.77" x2="791.5" y2="2726.87"/><line class="cls-4" x1="367.5" y1="-243.6" x2="733.11" y2="2734.04"/><line class="cls-4" x1="309.12" y1="-236.43" x2="674.73" y2="2741.21"/><line class="cls-4" x1="250.73" y1="-229.26" x2="616.34" y2="2748.38"/><line class="cls-4" x1="192.35" y1="-222.09" x2="557.96" y2="2755.55"/><line class="cls-4" x1="133.96" y1="-214.92" x2="499.57" y2="2762.71"/><line class="cls-4" x1="75.58" y1="-207.75" x2="441.19" y2="2769.88"/><line class="cls-4" x1="17.19" y1="-200.59" x2="382.8" y2="2777.05"/><line class="cls-4" x1="-41.19" y1="-193.42" x2="324.42" y2="2784.22"/><line class="cls-4" x1="-99.58" y1="-186.25" x2="266.03" y2="2791.39"/><line class="cls-4" x1="-157.96" y1="-179.08" x2="207.65" y2="2798.56"/><line class="cls-4" x1="-216.35" y1="-171.91" x2="149.26" y2="2805.73"/><line class="cls-4" x1="-274.73" y1="-164.74" x2="90.88" y2="2812.9"/><line class="cls-4" x1="-333.12" y1="-157.57" x2="32.49" y2="2820.07"/></g></g><path class="cls-5" d="M220.43,327.66l-42.85-74a10,10,0,0,1,0-10l42.62-74.09a10,10,0,0,1,8.66-5l85.47-.14a10,10,0,0,1,8.67,5l42.85,73.95a10,10,0,0,1,0,10L323.22,327.5a10,10,0,0,1-8.65,5l-85.47.14A10,10,0,0,1,220.43,327.66Z"/><path class="cls-6" d="M408.34,243.62l-56.16,71.91a10,10,0,0,1-9.27,3.75L258.27,307.4a10,10,0,0,1-7.88-6.15l-32-79.24a10,10,0,0,1,1.39-9.91l52.61-67.36a10,10,0,0,1,9.27-3.75l84.64,11.88a10,10,0,0,1,7.89,6.16l11.47,28.39"/><path class="cls-5" d="M1879.92,68.78l51.17,220.86a10,10,0,0,1-12.66,11.83l-216.86-66.12a10,10,0,0,1-3.9-16.88L1863.36,63.73A10,10,0,0,1,1879.92,68.78Z"/><path class="cls-7" d="M1652,261.86h-25.77a10,10,0,0,1-8.66-15L1730.91,50.52a10,10,0,0,1,17.32,0l113.35,196.34a10,10,0,0,1-8.66,15h-98"/><rect class="cls-5" x="534.46" y="1056.54" width="155.15" height="155.15" rx="10" ry="10" transform="translate(647.03 -154.13) rotate(29.91)"/><path class="cls-7" d="M652.28,990.16l41.67,11.1a10,10,0,0,1,7.09,12.23l-34.77,130.6a10,10,0,0,1-12.24,7.09l-130.59-34.77a10,10,0,0,1-7.09-12.24l34.77-130.6a10,10,0,0,1,12.24-7.09l30.12,8"/><path class="cls-7" d="M1116.4,976.76l.5-10a10,10,0,0,1,15.42-7.9l29,18.73a10,10,0,0,1-.86,17.3l-30.74,15.76a10,10,0,0,1-14.55-9.4"/><path class="cls-8" d="M1174.83,960.28l-24.38,24.46a10,10,0,0,1-16.74-4.46l-9-33.34A10,10,0,0,1,1137,934.67l33.37,8.89A10,10,0,0,1,1174.83,960.28Z"/><path class="cls-7" d="M906.59,260.31a10,10,0,0,1,13-5.6l15.56,6.19,42.28,16.81a10,10,0,0,1,5.6,13l-23,57.85a10,10,0,0,1-13,5.6l-57.85-23a10,10,0,0,1-5.59-13l5-12.51"/><rect class="cls-8" x="903.71" y="288.48" width="82.25" height="82.25" rx="10" ry="10" transform="translate(290.2 -427.23) rotate(29.91)"/><path class="cls-7" d="M1430.08,105h13.1a10,10,0,0,1,8.66,5l13.1,22.69a10,10,0,0,1,0,10l-13.1,22.69a10,10,0,0,1-8.66,5H1417a10,10,0,0,1-8.66-5l-13.1-22.69a10,10,0,0,1,0-10l7.77-13.46"/><path class="cls-8" d="M1434.53,195.63,1408.94,190a10,10,0,0,1-7.39-6.74l-7.93-25a10,10,0,0,1,2.14-9.76l17.65-19.36a10,10,0,0,1,9.53-3l25.59,5.61a10,10,0,0,1,7.39,6.74l7.93,25a10,10,0,0,1-2.14,9.77l-17.65,19.35A10,10,0,0,1,1434.53,195.63Z"/><path class="cls-7" d="M254.77,776.69l9.45,7.22A10,10,0,0,1,262,801.08l-79.34,33.08a10,10,0,0,1-13.76-10.51l11-85.24a10,10,0,0,1,16-6.67l5.85,4.47"/><path class="cls-8" d="M207.2,760.37l60.87,60.69a10,10,0,0,1-4.45,16.74l-83,22.37a10,10,0,0,1-12.27-12.23l22.12-83.06A10,10,0,0,1,207.2,760.37Z"/><path class="cls-5" d="M1851.42,1162.84l-95.27-73.61a10,10,0,0,1-3.8-9.25l16.12-119.31a10,10,0,0,1,6.11-7.92L1886,907.05a10,10,0,0,1,9.91,1.34L1991.15,982a10,10,0,0,1,3.79,9.25l-16.11,119.31a10,10,0,0,1-6.12,7.91l-111.38,45.7A10,10,0,0,1,1851.42,1162.84Z"/><path class="cls-7" d="M1957.39,924.29l24.61,77.45a10,10,0,0,1-2.14,9.77l-81.14,89a10,10,0,0,1-9.53,3l-117.6-25.79a10,10,0,0,1-7.39-6.74l-36.46-114.75a10,10,0,0,1,2.14-9.76l81.14-89a10,10,0,0,1,9.53-3l90.8,19.91"/><polygon class="cls-8" points="1199.67 572.42 1344.97 488.23 1345.23 656.16 1199.67 572.42"/><polygon class="cls-5" points="1490.54 571.96 1344.97 488.23 1345.23 656.16 1490.54 571.96"/><path class="cls-9" d="M1416.86,774.13q-.18-40.92-.37-81.82c-.06-13.68-.17-27.37-.25-41.06-.08-13.89-.18-27.78-.21-41.68q-.12-40.05-.17-80.11c0-.62,0-1.23,0-1.79-2.52-.61-2.59-.82-2.36-3.36.11-1.28-.06-2.58-.06-3.87,0-5.75,0-11.51-.07-17.26a4.33,4.33,0,0,0-.72-1.87c-.32-.6-1-1.07-1.13-1.69-.88-3.24-1.65-6.5-2.48-9.76-1.63-6.35-3.31-12.7-4.87-19.08-.72-2.94-1.24-5.95-1.79-8.93-.16-.86.05-1.5,1.21-1.5.33,0,.9-.77.92-1.21s-.53-1.23-.85-1.25c-1.19,0-1.33-.66-1.32-1.62,0-2.75,0-5.5,0-8.24,0-1.11-.15-2-1.54-2s-1.73.84-1.72,2c0,2.7,0,5.39,0,8.09,0,1-.09,1.72-1.38,1.76-.28,0-.73.85-.74,1.32s.51,1.08.82,1.09c1.26.07,1.45.82,1.38,1.79a11.18,11.18,0,0,1-.26,2c-1.55,5.95-3.17,11.88-4.69,17.84s-2.9,11.85-4.41,17.76c-.15.58-.77,1.44-1.22,1.47-1.5.1-1.59.92-1.58,2.09,0,7,0,13.9,0,20.84,0,3.14,0,3.14-3.09,3.15-2.44,0-2.51.07-2.5,2.57q0,8.4,0,16.8c0,.71.14,1.7-.92,1.61-2.2-.19-2.14,1.2-2.13,2.68q0,9.74,0,19.45c0,.77.16,1.77-1,1.66-.34,0-.85-1-.86-1.6-.06-4.57,0-9.13-.06-13.69,0-.74-.33-1.91-.84-2.13a33.74,33.74,0,0,0-6.81-2.43c-3.5-.73-6.71.59-9.85,2.05a2.79,2.79,0,0,0-1.8,2.91c.07,4.46,0,8.92,0,13.38,0,.57.39,1.56-.74,1.45-.27,0-.66-.91-.66-1.41-.06-6.17-.06-12.34-.06-18.51,0-4,.22-3.71-3.69-3.7-4.28,0-4.29,0-4.35-4.28,0-.94,0-1.74-1.24-2-.29-.06-.61-.76-.62-1.18-.07-2.43,0-4.87,0-7.31,0-.88.25-1.4,1.23-1.31s1.57-.38,1.63-1.52a1.6,1.6,0,0,1,1.09-1c1-.12,1.54-.64,1.35-1.49a2.27,2.27,0,0,0-1.26-1.54c-1-.21-1.33-.56-1.24-1.53s-.42-1.69-1.46-1.5c-1.4.24-1.72-.3-1.72-1.59,0-.43-.84-1.27-1.13-1.2-.55.13-1.42.83-1.37,1.2.19,1.63-.6,1.73-1.85,1.58-1-.12-1.68.5-1.52,1.47.18,1.16-.26,1.36-1.27,1.59-.5.11-1,1-1.16,1.62s.24,1.42,1.24,1.34,1.34.34,1.22,1.3.47,1.41,1.41,1.33c1.09-.1,1.5.4,1.49,1.44,0,2.39,0,4.78,0,7.16,0,.4-.22,1.09-.47,1.15-1.14.28-1.06,1.1-1,1.94s0,1.56,0,2.33c0,2,0,2.05-2.13,2.06-1.24,0-2.49.08-3.73,0-1.46-.1-2,.42-2,1.95.07,6.58.06,13.17,0,19.76,0,.72.52,2-.74,2s-.88-1.32-.88-2.08q0-6.45.11-12.9a2.68,2.68,0,0,0-2.11-3c-1.93-.6-3.86-1.19-5.73-1.94a4.47,4.47,0,0,0-3.72,0c-1.71.73-3.5,1.25-5.27,1.82-2.43.78-2.44.78-2.44,3.36,0,4.46,0,8.92,0,13.38A2.09,2.09,0,0,1,1312,572a1.09,1.09,0,0,1-1.09-.06,2.54,2.54,0,0,1-.38-1.4q0-10.19,0-20.38c0-1.09-.23-1.9-1.53-1.76-1.65.18-2-.63-1.94-2.11.07-5.65,0-11.31,0-17,0-1.14-.24-2-1.58-2-3.23.09-2.89-.44-3-3.27,0-.73,0-1.45,0-2.18q0-9.26,0-18.51c0-1.1,0-2.1-1.56-2.14-.34,0-.85-.7-1-1.16-1.05-3.9-2-7.81-3-11.72-1.64-6.51-3.31-13-4.91-19.54-.55-2.24-.93-4.53-1.32-6.82-.13-.82,0-1.56,1.22-1.48.93.06,1.16-.67,1-1.37-.13-.46-.64-1.13-1-1.14-1.14,0-1.23-.61-1.22-1.5,0-2.8,0-5.6,0-8.4,0-1.11-.19-2-1.57-2s-1.72.77-1.7,2c0,2.75,0,5.5,0,8.25,0,.86-.1,1.48-1.2,1.61-.37.05-.85.7-1,1.16-.18.69,0,1.39,1,1.34s1.24.56,1.19,1.4a12.73,12.73,0,0,1-.19,2.15q-2.45,9.87-4.93,19.7-2.08,8.25-4.2,16.49c-.08.32-.25.82-.47.87-1.58.4-1.55,1.59-1.54,2.83,0,7.36,0,14.73.07,22.09,0,1-.18,1.48-1.27,1.34s-1.47.49-1.39,1.5c0,.36,0,.73,0,1.09.14,93.14.08,110.27.36,203.4l142.95,4.21C1416.82,724.46,1416.92,787.29,1416.86,774.13Z"/><path class="cls-10" d="M1407.94,766.19q-.18-40.91-.37-81.81c-.06-13.69-.17-27.38-.25-41.06q-.12-20.84-.21-41.68-.12-40.07-.17-80.12c0-.61,0-1.22,0-1.79-2.52-.61-2.59-.81-2.36-3.35.11-1.28-.06-2.58-.06-3.87,0-5.76,0-11.51-.07-17.27a4.29,4.29,0,0,0-.72-1.86c-.32-.6-1-1.08-1.12-1.7-.89-3.23-1.66-6.5-2.49-9.75-1.63-6.36-3.31-12.7-4.87-19.08-.72-3-1.24-6-1.79-8.94-.16-.86,0-1.49,1.21-1.5.33,0,.9-.77.92-1.2s-.53-1.24-.85-1.25c-1.19,0-1.33-.67-1.32-1.62,0-2.75,0-5.5,0-8.25,0-1.1-.15-2-1.54-2s-1.73.84-1.72,2c0,2.69,0,5.39,0,8.09,0,1-.08,1.72-1.38,1.75-.28,0-.72.86-.74,1.33s.51,1.07.82,1.09c1.26.06,1.45.81,1.38,1.79a10.34,10.34,0,0,1-.26,2c-1.55,5.94-3.17,11.88-4.69,17.83s-2.9,11.86-4.41,17.77c-.15.58-.77,1.43-1.22,1.46-1.5.1-1.59.92-1.58,2.09,0,6.95,0,13.9.05,20.85,0,3.13,0,3.13-3.1,3.14-2.43,0-2.5.08-2.5,2.57q0,8.4,0,16.8c0,.72.14,1.71-.92,1.62-2.19-.19-2.14,1.2-2.13,2.68q0,9.72,0,19.44c0,.77.17,1.78-1,1.67-.34,0-.85-1-.86-1.61-.06-4.56,0-9.12,0-13.69,0-.74-.34-1.9-.85-2.13a34.36,34.36,0,0,0-6.81-2.43c-3.5-.72-6.71.59-9.85,2.06a2.77,2.77,0,0,0-1.8,2.91c.07,4.45.05,8.92,0,13.37,0,.58.39,1.56-.74,1.46-.27,0-.66-.92-.66-1.41-.06-6.17-.06-12.34-.06-18.52,0-4,.23-3.71-3.69-3.69-4.28,0-4.29,0-4.35-4.29,0-.93,0-1.74-1.24-2-.29-.06-.61-.76-.62-1.18-.07-2.44,0-4.87,0-7.31,0-.89.25-1.41,1.23-1.31s1.57-.39,1.63-1.53a1.62,1.62,0,0,1,1.09-1.05c1-.11,1.54-.63,1.35-1.48a2.27,2.27,0,0,0-1.26-1.54c-1-.21-1.33-.56-1.24-1.54s-.42-1.68-1.46-1.5c-1.4.25-1.71-.3-1.72-1.58,0-.43-.84-1.27-1.13-1.2-.55.13-1.42.83-1.37,1.2.19,1.63-.6,1.73-1.85,1.58-1-.13-1.67.49-1.52,1.46.18,1.16-.26,1.37-1.27,1.59-.5.12-1,1-1.16,1.62s.24,1.42,1.24,1.35,1.34.34,1.23,1.29.46,1.42,1.4,1.33,1.5.4,1.49,1.45c0,2.38,0,4.77,0,7.16,0,.4-.22,1.09-.46,1.15-1.15.28-1.07,1.09-1.06,1.94s0,1.55,0,2.33c0,2-.05,2-2.13,2.06-1.24,0-2.49.07-3.73,0-1.46-.1-2,.41-2,1.94.07,6.59.06,13.18,0,19.76,0,.72.52,2-.74,2s-.88-1.31-.88-2.07q0-6.46.11-12.91a2.7,2.7,0,0,0-2.11-3c-1.93-.6-3.86-1.19-5.73-1.93a4.47,4.47,0,0,0-3.72,0c-1.7.73-3.5,1.25-5.27,1.83-2.43.78-2.44.78-2.44,3.35,0,4.46,0,8.92,0,13.38a2.14,2.14,0,0,1-.49,1.34,1.12,1.12,0,0,1-1.09-.06,2.49,2.49,0,0,1-.37-1.4q-.06-10.2,0-20.38c0-1.1-.23-1.9-1.53-1.76-1.65.17-2-.63-1.94-2.12.07-5.65,0-11.3,0-17,0-1.14-.24-2-1.57-2-3.24.08-2.9-.45-3-3.28,0-.72,0-1.45,0-2.17,0-6.18,0-12.35,0-18.52,0-1.09,0-2.1-1.56-2.13-.34,0-.85-.71-1-1.17-1-3.89-2-7.8-3-11.71-1.64-6.51-3.31-13-4.91-19.54-.55-2.25-.93-4.54-1.32-6.82-.13-.83,0-1.56,1.22-1.48.94.06,1.16-.68,1-1.37-.13-.46-.64-1.14-1-1.14-1.14,0-1.22-.61-1.22-1.5,0-2.8,0-5.6,0-8.4,0-1.12-.19-2-1.57-2s-1.72.78-1.7,2c0,2.74,0,5.49,0,8.24,0,.86-.1,1.49-1.2,1.62-.37,0-.85.7-1,1.16-.18.68,0,1.38,1,1.33s1.24.56,1.19,1.4a12.85,12.85,0,0,1-.19,2.16c-1.62,6.57-3.28,13.14-4.93,19.7q-2.09,8.25-4.19,16.49c-.09.32-.26.81-.48.87-1.58.4-1.55,1.59-1.54,2.82,0,7.37,0,14.73.07,22.09,0,1-.18,1.49-1.26,1.35s-1.48.48-1.4,1.5c0,.36,0,.72,0,1.09.14,93.13.08,110.26.36,203.39l143,4.22C1407.9,716.53,1408,779.36,1407.94,766.19Z"/><polygon class="cls-5" points="1199.67 572.42 1199.93 740.35 1345.5 824.09 1345.23 656.16 1199.67 572.42"/><polygon class="cls-8" points="1490.54 571.96 1490.8 739.9 1345.5 824.09 1345.23 656.16 1490.54 571.96"/><path class="cls-10" d="M1399.4,689.1a2.14,2.14,0,0,1,0-.68,76.42,76.42,0,0,1,8.28-28.14q6.7-12.67,20.8-21.1,8-4.81,13.84-4.46a11.41,11.41,0,0,1,8.86,4.39,18.93,18.93,0,0,1,3.61,10.07c.06.61.09,1.47.09,2.56a32.3,32.3,0,0,1-1.25,8.79,43.41,43.41,0,0,1-3.1,7.87q-1.87,3.68-4.8,8.33c3.48,0,6.17,1.12,8.08,3.32s3,5.33,3.41,9.4a44.54,44.54,0,0,1-.19,8.42,69.12,69.12,0,0,1-5.66,20.25,80.92,80.92,0,0,1-12.11,19.39,66.5,66.5,0,0,1-16.88,14.57q-13.68,8.19-22.52,6.62t-10.08-15.55a52.17,52.17,0,0,1-.12-7.11,10.35,10.35,0,0,1,.76-4,6.89,6.89,0,0,1,3-3.07l14.52-8.67c1.6-.91,2.46-.78,2.57.41a6.76,6.76,0,0,1-.09,1.47,28.62,28.62,0,0,0-.12,4.33q.45,5.12,3.57,5.5c2.07.25,4.51-.45,7.31-2.13a25.74,25.74,0,0,0,8.53-8.31,26.25,26.25,0,0,0,4-11.9,22.33,22.33,0,0,0,.06-3.4q-.36-4-3.3-4.46t-8.3,2.79c-1.6,1-2.46.83-2.57-.4a8.41,8.41,0,0,1,.06-1l1.7-16.72a9.26,9.26,0,0,1,.89-3,5.28,5.28,0,0,1,2-2,16.86,16.86,0,0,0,5.88-5.54,19.08,19.08,0,0,0,2.46-8.2,14.18,14.18,0,0,0,.07-2.43,4.58,4.58,0,0,0-1.61-3.49c-.93-.66-2.34-.44-4.22.69a14.45,14.45,0,0,0-4.92,5.26,21.38,21.38,0,0,0-2.69,8.49,5.14,5.14,0,0,1-2.52,4.2l-15.35,9C1400.12,690.24,1399.48,690.09,1399.4,689.1Z"/><path class="cls-10" d="M1399.4,689.1a2.14,2.14,0,0,1,0-.68,76.42,76.42,0,0,1,8.28-28.14q6.7-12.67,20.8-21.1,8-4.81,13.84-4.46a11.41,11.41,0,0,1,8.86,4.39,18.93,18.93,0,0,1,3.61,10.07c.06.61.09,1.47.09,2.56a32.3,32.3,0,0,1-1.25,8.79,43.41,43.41,0,0,1-3.1,7.87q-1.87,3.68-4.8,8.33c3.48,0,6.17,1.12,8.08,3.32s3,5.33,3.41,9.4a44.54,44.54,0,0,1-.19,8.42,69.12,69.12,0,0,1-5.66,20.25,80.92,80.92,0,0,1-12.11,19.39,66.5,66.5,0,0,1-16.88,14.57q-13.68,8.19-22.52,6.62t-10.08-15.55a52.17,52.17,0,0,1-.12-7.11,10.35,10.35,0,0,1,.76-4,6.89,6.89,0,0,1,3-3.07l14.52-8.67c1.6-.91,2.46-.78,2.57.41a6.76,6.76,0,0,1-.09,1.47,28.62,28.62,0,0,0-.12,4.33q.45,5.12,3.57,5.5c2.07.25,4.51-.45,7.31-2.13a25.74,25.74,0,0,0,8.53-8.31,26.25,26.25,0,0,0,4-11.9,22.33,22.33,0,0,0,.06-3.4q-.36-4-3.3-4.46t-8.3,2.79c-1.6,1-2.46.83-2.57-.4a8.41,8.41,0,0,1,.06-1l1.7-16.72a9.26,9.26,0,0,1,.89-3,5.28,5.28,0,0,1,2-2,16.86,16.86,0,0,0,5.88-5.54,19.08,19.08,0,0,0,2.46-8.2,14.18,14.18,0,0,0,.07-2.43,4.58,4.58,0,0,0-1.61-3.49c-.93-.66-2.34-.44-4.22.69a14.45,14.45,0,0,0-4.92,5.26,21.38,21.38,0,0,0-2.69,8.49,5.14,5.14,0,0,1-2.52,4.2l-15.35,9C1400.12,690.24,1399.48,690.09,1399.4,689.1Z"/><path class="cls-10" d="M631.26,541.8a2.63,2.63,0,0,1,.64-1.57,2,2,0,0,1,1.57-.7l15.29,0a2.65,2.65,0,0,1,1.6.64,2,2,0,0,1,.82,1.63l0,24.44,25.58,0,0-24.44a2.24,2.24,0,0,1,2.3-2.28l15,0a3.16,3.16,0,0,1,1.79.51,1.85,1.85,0,0,1,.78,1.65l.11,72a2.09,2.09,0,0,1-.67,1.7,2.57,2.57,0,0,1-1.74.57l-15.2,0a2.43,2.43,0,0,1-1.67-.56,2.14,2.14,0,0,1-.64-1.7l0-29.24-25.58,0,0,29.24a2.08,2.08,0,0,1-.69,1.68,2.82,2.82,0,0,1-1.88.59l-15.13,0c-1.44,0-2.18-.66-2.21-2Z"/><path class="cls-10" d="M778.79,611.94a4.49,4.49,0,0,1-.3,1.67,4.1,4.1,0,0,1-2.37,2,7.1,7.1,0,0,1-1.33.15l-10.14,0a4.48,4.48,0,0,1-1.75-.28,2.7,2.7,0,0,1-1.09-.8,4.43,4.43,0,0,1-.69-1.26q-.29-.75-.6-1.62L759,608q-1.38,1.39-3,3a28.1,28.1,0,0,1-3.62,2.91,22.22,22.22,0,0,1-4.3,2.25,13.72,13.72,0,0,1-4.94.91,34,34,0,0,1-9-1.17,33.64,33.64,0,0,1-8-3.36,33.2,33.2,0,0,1-6.78-5.24,33.8,33.8,0,0,1-9.81-24,33.55,33.55,0,0,1,2.6-13.31,33.93,33.93,0,0,1,7.14-10.72A33.32,33.32,0,0,1,743,549.4a17.5,17.5,0,0,1,5.87.94,19.78,19.78,0,0,1,4.87,2.49,24.51,24.51,0,0,1,4,3.49,38.43,38.43,0,0,1,3.17,4l2-6.23c.34-.86.62-1.55.85-2.08a3.58,3.58,0,0,1,.72-1.19,1.8,1.8,0,0,1,.95-.51,7.81,7.81,0,0,1,1.59-.14h7.67a7.11,7.11,0,0,1,1.34.15,2.67,2.67,0,0,1,1.34.72,3.28,3.28,0,0,1,1,1.29,4.07,4.07,0,0,1,.31,1.64Zm-50.74-28.75a18.9,18.9,0,0,0,1.06,6.36,15.24,15.24,0,0,0,3,5.11A14.29,14.29,0,0,0,743,599.33a16.22,16.22,0,0,0,6.41-1.27,16.59,16.59,0,0,0,5.14-3.43,15.61,15.61,0,0,0,3.41-5.13,16.72,16.72,0,0,0,0-12.64,16.64,16.64,0,0,0-3.43-5.24,16.18,16.18,0,0,0-5.15-3.57,15.57,15.57,0,0,0-6.41-1.3,13.91,13.91,0,0,0-6.1,1.32,14.34,14.34,0,0,0-4.71,3.58,16.35,16.35,0,0,0-3,5.26A18.52,18.52,0,0,0,728.05,583.19Z"/><path class="cls-10" d="M833,595.53a3.61,3.61,0,0,1,1.36-.64,5.21,5.21,0,0,1,1-.13,3.51,3.51,0,0,1,1.59.36,4.23,4.23,0,0,1,1.5,1.54l5.78,8.69a8.67,8.67,0,0,1,.49.92,2.27,2.27,0,0,1,.23.83,2.6,2.6,0,0,1-.74,1.93,9.59,9.59,0,0,1-1.62,1.31,38.85,38.85,0,0,1-9.23,4.73,31.76,31.76,0,0,1-10.63,1.79,33,33,0,0,1-8.93-1.17,32.31,32.31,0,0,1-8-3.36,34.43,34.43,0,0,1-6.81-5.24,32.45,32.45,0,0,1-5.26-6.81,35,35,0,0,1-3.38-8.1,35,35,0,0,1,0-18.2,34.12,34.12,0,0,1,3.36-8.11,32.22,32.22,0,0,1,5.24-6.8,33.93,33.93,0,0,1,6.79-5.24,33.24,33.24,0,0,1,8-3.36,33.8,33.8,0,0,1,8.92-1.2A34.77,34.77,0,0,1,833,550.75a60.38,60.38,0,0,1,8.78,4.26,6,6,0,0,1,1.81,1.57,3.67,3.67,0,0,1,.67,2.23,3.51,3.51,0,0,1-.62,1.91l-4.57,7.78c-.95,1.68-2.12,2.53-3.49,2.53a3.65,3.65,0,0,1-1.13-.23,6.53,6.53,0,0,1-1.5-.8,23.85,23.85,0,0,0-4.87-2.44,16,16,0,0,0-5.53-.94,13.67,13.67,0,0,0-6,1.32,14,14,0,0,0-4.65,3.59,16.78,16.78,0,0,0-3,5.25,19,19,0,0,0,0,12.64,15.8,15.8,0,0,0,3,5.12,14.16,14.16,0,0,0,10.64,4.67,14.84,14.84,0,0,0,5.51-1A24.8,24.8,0,0,0,833,595.53Z"/><path class="cls-10" d="M854.6,534.76c0-.58,0-1.11,0-1.6a2.27,2.27,0,0,1,.43-1.23,2.43,2.43,0,0,1,1.21-.8,7.37,7.37,0,0,1,2.32-.29l12.3,0a3.54,3.54,0,0,1,1.62.33,3,3,0,0,1,1,.85,2.83,2.83,0,0,1,.52,1.11,4.9,4.9,0,0,1,.13,1.1l.06,38.09,18.5-20.61a4.13,4.13,0,0,1,3.19-1.5l15.8,0c1.89,0,2.83.74,2.83,2.21a2,2,0,0,1-.17.93,6,6,0,0,1-.75,1L892.55,576.7l26.67,34.14a9.84,9.84,0,0,1,.85,1.36,3.4,3.4,0,0,1,.28,1.26,1.82,1.82,0,0,1-.64,1.63,3.46,3.46,0,0,1-1.93.44l-17.4,0a2.43,2.43,0,0,1-1.64-.66,10.32,10.32,0,0,1-1.7-2l-16.88-23.8-5.7,5.93,0,16.62a6.46,6.46,0,0,1-.13,1.08,4.29,4.29,0,0,1-.51,1.32,3.6,3.6,0,0,1-1.06,1.11,3.07,3.07,0,0,1-1.75.46l-12.92,0a2.59,2.59,0,0,1-1.59-.49,3.94,3.94,0,0,1-1.06-1.1,5.37,5.37,0,0,1-.57-1.16,3.5,3.5,0,0,1-.18-.64Z"/><path class="cls-10" d="M963.58,539.89a2.81,2.81,0,0,1,1-2.39,11.74,11.74,0,0,1,3-1.53l11.68-4.08a2.85,2.85,0,0,1,.49-.06h.43a2.7,2.7,0,0,1,2.55,1.11,5.69,5.69,0,0,1,.65,2.9l0,16.22,8.59,0a3.75,3.75,0,0,1,2.68,1,3.84,3.84,0,0,1,1,2.93l0,9.94a4.23,4.23,0,0,1-1,3.16,3.64,3.64,0,0,1-2.67,1l-8.6,0,.12,41.38a3.77,3.77,0,0,1-1.13,3,4.56,4.56,0,0,1-3.14,1l-11.63,0c-2.64,0-4-1.32-4-4l-.12-41.38h-3.75q-4,0-4-4.16l0-9.94c0-2.6,1.31-3.91,4-3.91h3.75Z"/><path class="cls-10" d="M1023.62,556.86A20.1,20.1,0,0,1,1026,554a15.78,15.78,0,0,1,3.26-2.52,18.4,18.4,0,0,1,4.27-1.8,19.22,19.22,0,0,1,5.43-.7,22.9,22.9,0,0,1,18.31,8.39,27.1,27.1,0,0,1,4.91,9.11,36.33,36.33,0,0,1,1.69,11.13l.05,33.71a4.53,4.53,0,0,1-.84,3,3.35,3.35,0,0,1-2.7,1l-11.9,0a4.53,4.53,0,0,1-3-.74,3.9,3.9,0,0,1-.83-2.91l-.06-34a9.93,9.93,0,0,0-.85-4.12,10.74,10.74,0,0,0-2.3-3.32A10.41,10.41,0,0,0,1038,568a10.66,10.66,0,0,0-4.1-.8,9.4,9.4,0,0,0-3.62.76,10.25,10.25,0,0,0-3.19,2.11,11.72,11.72,0,0,0-2.36,3.28,10.79,10.79,0,0,0-1.1,4.22l.05,34a4.89,4.89,0,0,1-.33,1.75,2.77,2.77,0,0,1-1,1.34,4.58,4.58,0,0,1-1.26.57,5.6,5.6,0,0,1-1.37.16l-11.63,0a3.64,3.64,0,0,1-4.18-4l-.06-41.9v-.36l0-15.31v-.26l0-19.1a4.08,4.08,0,0,1,1-2.83,4.15,4.15,0,0,1,3.19-1.09h11.63a5.31,5.31,0,0,1,2.63.82,2.74,2.74,0,0,1,1,1.33,4.51,4.51,0,0,1,.34,1.65Z"/><path class="cls-10" d="M1131,607.37a34.52,34.52,0,0,1-10.18,6.53,31.3,31.3,0,0,1-12,2.36,35.08,35.08,0,0,1-24.37-9.67,34.16,34.16,0,0,1-7.53-10.72,32.36,32.36,0,0,1-2.8-13.43,34.66,34.66,0,0,1,4.22-16.73,33.71,33.71,0,0,1,4.93-6.83,31.42,31.42,0,0,1,6.51-5.34,32,32,0,0,1,7.81-3.46,31.35,31.35,0,0,1,8.91-1.25,30.26,30.26,0,0,1,8.29,1.12,32.22,32.22,0,0,1,7.54,3.18,32.86,32.86,0,0,1,6.47,4.93,33.33,33.33,0,0,1,5.05,6.3,30.17,30.17,0,0,1,3.28,7.3,27.61,27.61,0,0,1,1.17,8c0,1.79,0,3.25-.07,4.38a4.94,4.94,0,0,1-.79,2.7,3.9,3.9,0,0,1-2.39,1.4,23.22,23.22,0,0,1-4.92.39l-37.06.06a12.65,12.65,0,0,0,5.73,9,14.38,14.38,0,0,0,4.38,1.88,18.23,18.23,0,0,0,4.38.55,19.38,19.38,0,0,0,3.8-.39,27.43,27.43,0,0,0,3.79-1,21.34,21.34,0,0,0,3.34-1.5,11.25,11.25,0,0,0,2.44-1.78,11.57,11.57,0,0,1,1.41-1,2.59,2.59,0,0,1,1.27-.33,2.44,2.44,0,0,1,1.36.46,10.91,10.91,0,0,1,1.57,1.33l5.47,6.17a3.39,3.39,0,0,1,.72,1.21,4.14,4.14,0,0,1,.16,1.11,2.82,2.82,0,0,1-.57,1.77A6.4,6.4,0,0,1,1131,607.37Zm-24.83-42.84a9.84,9.84,0,0,0-3.88.8,14.93,14.93,0,0,0-3.53,2.14,18.53,18.53,0,0,0-3,3,17.7,17.7,0,0,0-2.13,3.45l26.3,0a29,29,0,0,0-2.35-3.71,16,16,0,0,0-2.88-3,12.74,12.74,0,0,0-3.71-2A15,15,0,0,0,1106.2,564.53Z"/><path class="cls-10" d="M634.74,671.54a3,3,0,0,1,.72-1.77,2.24,2.24,0,0,1,1.77-.79l17.21,0a3,3,0,0,1,1.79.72,2.22,2.22,0,0,1,.93,1.83l.05,27.52L686,699l0-27.52a2.53,2.53,0,0,1,2.6-2.56l16.93,0a3.57,3.57,0,0,1,2,.57,2.08,2.08,0,0,1,.87,1.86l.13,81.06a2.36,2.36,0,0,1-.75,1.91,2.89,2.89,0,0,1-2,.64l-17.11,0a2.71,2.71,0,0,1-1.88-.64,2.41,2.41,0,0,1-.72-1.91L686,719.49l-28.8,0,0,32.91a2.33,2.33,0,0,1-.78,1.88,3.11,3.11,0,0,1-2.11.67l-17,0c-1.62,0-2.45-.75-2.49-2.26Z"/><path class="cls-10" d="M789.62,746a38.31,38.31,0,0,1-11.46,7.35,35.13,35.13,0,0,1-13.5,2.66,39.35,39.35,0,0,1-27.42-10.88A38.45,38.45,0,0,1,728.76,733a36.49,36.49,0,0,1-3.15-15.12,39.12,39.12,0,0,1,4.75-18.83,37.69,37.69,0,0,1,5.55-7.69,35.43,35.43,0,0,1,7.32-6,36.13,36.13,0,0,1,8.8-3.89,35.07,35.07,0,0,1,10-1.41,33.77,33.77,0,0,1,9.33,1.26,36.1,36.1,0,0,1,8.5,3.58,36.91,36.91,0,0,1,7.28,5.55,37.75,37.75,0,0,1,5.69,7.09,34,34,0,0,1,3.69,8.22,31.73,31.73,0,0,1,1.32,9c0,2,0,3.65-.08,4.92a5.62,5.62,0,0,1-.9,3,4.35,4.35,0,0,1-2.69,1.56,26.1,26.1,0,0,1-5.53.45l-41.72.06a14.39,14.39,0,0,0,2.36,6.2,14.61,14.61,0,0,0,4.09,4,16,16,0,0,0,4.93,2.11,21,21,0,0,0,4.92.63,22.16,22.16,0,0,0,4.29-.44,29.7,29.7,0,0,0,4.26-1.17,23.59,23.59,0,0,0,3.76-1.68,12.31,12.31,0,0,0,2.75-2,12.61,12.61,0,0,1,1.59-1.13,2.85,2.85,0,0,1,1.42-.38,2.76,2.76,0,0,1,1.54.52,12.35,12.35,0,0,1,1.77,1.51l6.15,6.94a3.65,3.65,0,0,1,.81,1.36,4.33,4.33,0,0,1,.18,1.24,3.17,3.17,0,0,1-.64,2A6.79,6.79,0,0,1,789.62,746Zm-28-48.22a11.08,11.08,0,0,0-4.37.91,16.22,16.22,0,0,0-4,2.41A20.34,20.34,0,0,0,750,704.5a21.32,21.32,0,0,0-2.4,3.89l29.61,0a35.72,35.72,0,0,0-2.64-4.17,18.12,18.12,0,0,0-3.25-3.35,13.92,13.92,0,0,0-4.18-2.26A17.06,17.06,0,0,0,761.67,697.76Z"/><path class="cls-10" d="M812.71,656.37a4.73,4.73,0,0,1,1-3.45,4.5,4.5,0,0,1,3.24-1l13.45,0a5,5,0,0,1,3.27,1,4.19,4.19,0,0,1,1.25,3.44l0,11.3a4.16,4.16,0,0,1-.31,1.51,6.85,6.85,0,0,1-.9,1.56,4.87,4.87,0,0,1-1.42,1.25,3.65,3.65,0,0,1-1.88.5l-13.44,0q-4.29,0-4.3-4.8Zm0,29.32a5,5,0,0,1,1-3.19,3.85,3.85,0,0,1,3.24-1.34l13.27,0a4.27,4.27,0,0,1,1.51.32,5.1,5.1,0,0,1,1.5.92,6,6,0,0,1,1.19,1.42,3.49,3.49,0,0,1,.5,1.85l.1,64.61a4.32,4.32,0,0,1-1.21,3.33,4.94,4.94,0,0,1-3.48,1.14l-13.26,0c-2.86,0-4.29-1.48-4.3-4.46Z"/><path class="cls-10" d="M905.22,752.06a13.86,13.86,0,0,0,.61-4.49c0-1.68,0-3.39,0-5.13q-1.68,1.8-3.41,3.8a30.84,30.84,0,0,1-3.85,3.72,19,19,0,0,1-4.78,2.81,16,16,0,0,1-6.2,1.11,38.65,38.65,0,0,1-14.49-2.64,34.5,34.5,0,0,1-11.54-7.43,33.77,33.77,0,0,1-7.61-11.43,38.45,38.45,0,0,1-2.74-14.65,40.2,40.2,0,0,1,2.7-14.87,36.89,36.89,0,0,1,7.57-12.06A35.23,35.23,0,0,1,873,682.72a35.59,35.59,0,0,1,14.48-2.94,17.8,17.8,0,0,1,6.46,1.09,21.86,21.86,0,0,1,5.22,2.83,27.88,27.88,0,0,1,4.29,3.9q2,2.17,3.69,4.31l2.19-6.9c.23-.65.44-1.25.64-1.79a4.38,4.38,0,0,1,.75-1.37,3,3,0,0,1,1.18-.84,5.25,5.25,0,0,1,1.89-.29h8.63a7.14,7.14,0,0,1,1.48.17,2.76,2.76,0,0,1,1.47.81,4.34,4.34,0,0,1,1.22,1.38A3.93,3.93,0,0,1,927,685l.1,59a41.43,41.43,0,0,1-2.93,16.11,33.83,33.83,0,0,1-20.2,19.39,44.35,44.35,0,0,1-21.78,2,49.32,49.32,0,0,1-7.16-1.64,42.81,42.81,0,0,1-6.9-2.8,27.76,27.76,0,0,1-5.88-4,5.6,5.6,0,0,1-1.22-1.21,4.18,4.18,0,0,1-.73-3.45,5.67,5.67,0,0,1,1-2.11l5.49-7.6a4.69,4.69,0,0,1,2.84-1.75,5.36,5.36,0,0,1,3.36,1.39,11.53,11.53,0,0,0,3.34,2.22,23.6,23.6,0,0,0,7.82,2c1.3.1,2.47.14,3.51.14A23,23,0,0,0,893,762a21.49,21.49,0,0,0,5.3-2.07,17.87,17.87,0,0,0,4.34-3.34A10.31,10.31,0,0,0,905.22,752.06ZM872,717.69a21.16,21.16,0,0,0,1.2,7.22,16.88,16.88,0,0,0,3.39,5.76,15.67,15.67,0,0,0,5.31,3.81,16.41,16.41,0,0,0,6.87,1.38,18.67,18.67,0,0,0,7-1.31,17.91,17.91,0,0,0,5.7-3.63,18.34,18.34,0,0,0,3.91-5.46,17.79,17.79,0,0,0,1.64-6.78v-1.91a17.68,17.68,0,0,0-1.66-6.69,19.17,19.17,0,0,0-3.92-5.56,18.43,18.43,0,0,0-5.71-3.81,17.5,17.5,0,0,0-7-1.41,15.64,15.64,0,0,0-6.86,1.49,16.37,16.37,0,0,0-5.3,4,17.64,17.64,0,0,0-3.38,5.85A20.9,20.9,0,0,0,872,717.69Z"/><path class="cls-10" d="M966,688.67a23.06,23.06,0,0,1,2.66-3.21,17.38,17.38,0,0,1,3.68-2.84,20.76,20.76,0,0,1,4.8-2,22,22,0,0,1,6.11-.79,25.81,25.81,0,0,1,20.62,9.44,30.8,30.8,0,0,1,5.52,10.26,40.93,40.93,0,0,1,1.9,12.53l.06,38a5,5,0,0,1-1,3.33,3.75,3.75,0,0,1-3,1.14l-13.38,0a5.22,5.22,0,0,1-3.43-.83c-.61-.56-.92-1.65-.93-3.28l-.06-38.3a11.19,11.19,0,0,0-1-4.63,11.91,11.91,0,0,0-11-7.11,10.34,10.34,0,0,0-4.09.85,11.49,11.49,0,0,0-3.58,2.38,13,13,0,0,0-2.66,3.68,12.18,12.18,0,0,0-1.24,4.75l.06,38.25a5.55,5.55,0,0,1-.38,2,3.1,3.1,0,0,1-1.12,1.5,5.27,5.27,0,0,1-1.42.64,6,6,0,0,1-1.54.18l-13.09,0a4.07,4.07,0,0,1-4.7-4.45l-.08-47.17v-.4l0-17.24V685l0-21.49a4.53,4.53,0,0,1,1.1-3.19,4.67,4.67,0,0,1,3.59-1.23l13.09,0a6.06,6.06,0,0,1,3,.93,3.07,3.07,0,0,1,1.13,1.5,5.27,5.27,0,0,1,.38,1.85Z"/><path class="cls-10" d="M1032.51,669.35a3.17,3.17,0,0,1,1.18-2.7,13.25,13.25,0,0,1,3.39-1.71l13.14-4.6a2.81,2.81,0,0,1,.56-.06h.49a3,3,0,0,1,2.87,1.24,6.49,6.49,0,0,1,.73,3.27l0,18.26,9.67,0a4.22,4.22,0,0,1,3,1.1,4.34,4.34,0,0,1,1.16,3.3l0,11.18a4.83,4.83,0,0,1-1.15,3.57,4.15,4.15,0,0,1-3,1.13l-9.68,0,.13,46.58a4.24,4.24,0,0,1-1.27,3.34,5.14,5.14,0,0,1-3.53,1.13l-13.1,0c-3,0-4.46-1.48-4.47-4.45l-.13-46.59h-4.23q-4.46,0-4.46-4.69l0-11.18c0-2.94,1.48-4.41,4.45-4.41h4.23Z"/><path class="cls-10" d="M1091.82,731.43a16.94,16.94,0,0,0,3.4,2.63,25.13,25.13,0,0,0,3.5,1.73,21.2,21.2,0,0,0,3,1,9.61,9.61,0,0,0,1.74.28c.73,0,1.67,0,2.81-.09a14.51,14.51,0,0,0,3.27-.53,6.86,6.86,0,0,0,2.7-1.42,3.51,3.51,0,0,0,1.12-2.78,4.65,4.65,0,0,0-.64-2.58,5.13,5.13,0,0,0-1.86-1.62,15.15,15.15,0,0,0-3-1.18c-1.18-.35-2.51-.75-4-1.21a47.35,47.35,0,0,1-11.48-4.45,25.66,25.66,0,0,1-7.17-5.81,19,19,0,0,1-3.69-6.92,28.9,28.9,0,0,1-1.06-7.82,19.87,19.87,0,0,1,1.9-8.75,19.38,19.38,0,0,1,5.44-6.76,25.69,25.69,0,0,1,8.45-4.36,36.76,36.76,0,0,1,11-1.55,36.13,36.13,0,0,1,6.84.6,27.1,27.1,0,0,1,6.09,1.9,30.29,30.29,0,0,1,5.65,3.35,44.83,44.83,0,0,1,5.48,4.89,3.6,3.6,0,0,1,1,2.17,3,3,0,0,1-1.3,2.18q-2.25,1.85-4.31,3.65t-4.25,4a3.26,3.26,0,0,1-1.39.72,2.84,2.84,0,0,1-1.33,0,3.9,3.9,0,0,1-1.22-.58,4.91,4.91,0,0,1-1-1,10.09,10.09,0,0,0-4.64-3,16.66,16.66,0,0,0-4.86-.77,8.86,8.86,0,0,0-4.52,1,3,3,0,0,0-1.56,3,3.21,3.21,0,0,0,1.13,2.35,8.22,8.22,0,0,0,2.49,1.36,22.51,22.51,0,0,0,3.14.83c1.1.21,2.11.45,3,.72a90,90,0,0,1,9.56,3.64,29.16,29.16,0,0,1,7.54,4.82,20.14,20.14,0,0,1,5,6.86,24.13,24.13,0,0,1,1.78,9.73,22.32,22.32,0,0,1-2.27,10.26,21.82,21.82,0,0,1-6.28,7.6,28.84,28.84,0,0,1-9.46,4.71,41.37,41.37,0,0,1-11.79,1.64,42.44,42.44,0,0,1-7.3-.63,34.33,34.33,0,0,1-7.19-2,32.61,32.61,0,0,1-6.61-3.64,25.7,25.7,0,0,1-5.57-5.41,5.83,5.83,0,0,1-1-1.71,4.55,4.55,0,0,1-.29-1.76,4.2,4.2,0,0,1,.34-1.6,3.07,3.07,0,0,1,1-1.24l7.47-7.49a2.65,2.65,0,0,1,2.46-.82A8.24,8.24,0,0,1,1091.82,731.43Z"/></svg>