<svg xmlns="http://www.w3.org/2000/svg" viewBox="0 0 433.69 577.51"><defs><style>.cls-1{fill:#3e5087;}.cls-2{fill:#5b6dbc;}.cls-3{fill:#263572;}.cls-4{fill:none;stroke:#dabfff;stroke-miterlimit:10;stroke-width:5px;}</style></defs><title>Asset 14</title><g id="Layer_2" data-name="Layer 2"><g id="Layer_1-2" data-name="Layer 1"><polygon class="cls-1" points="0 202.6 216.45 77.18 216.85 327.35 0 202.6"/><polygon class="cls-2" points="433.3 201.92 216.45 77.18 216.85 327.35 433.3 201.92"/><path class="cls-3" d="M323.55,503.08q-.27-60.93-.55-121.88-.15-30.57-.38-61.16c-.12-20.7-.26-41.39-.31-62.09q-.18-59.67-.26-119.35v-2.66c-3.75-.91-3.87-1.22-3.53-5,.18-1.9-.08-3.84-.09-5.76,0-8.58,0-17.15-.09-25.73a6.6,6.6,0,0,0-1.07-2.77c-.48-.89-1.43-1.6-1.68-2.53-1.33-4.82-2.47-9.68-3.71-14.53-2.42-9.47-4.93-18.92-7.25-28.42-1.08-4.39-1.84-8.86-2.67-13.32-.24-1.27.07-2.22,1.8-2.23.49,0,1.35-1.15,1.37-1.79S304.34,32,303.86,32c-1.77-.07-2-1-1.95-2.42,0-4.09,0-8.19,0-12.28,0-1.64-.23-3-2.29-3s-2.58,1.25-2.56,3c0,4,0,8,0,12,0,1.47-.12,2.56-2,2.61-.42,0-1.09,1.28-1.11,2s.76,1.61,1.22,1.63c1.88.09,2.15,1.21,2.06,2.66a16.56,16.56,0,0,1-.4,3c-2.31,8.86-4.71,17.7-7,26.57s-4.32,17.66-6.58,26.46c-.22.87-1.15,2.14-1.82,2.19-2.23.14-2.36,1.37-2.35,3.11.06,10.35.05,20.7.07,31.06,0,4.66,0,4.66-4.61,4.67-3.63,0-3.73.12-3.73,3.84q0,12.51,0,25c0,1.06.21,2.54-1.37,2.41-3.27-.28-3.18,1.79-3.17,4,0,9.66,0,19.31.05,29,0,1.14.24,2.64-1.46,2.48-.52-.05-1.27-1.55-1.28-2.39-.1-6.8,0-13.6-.09-20.4,0-1.1-.5-2.83-1.26-3.17a50.27,50.27,0,0,0-10.14-3.62c-5.21-1.08-10,.88-14.68,3.06a4.13,4.13,0,0,0-2.67,4.33c.09,6.65.07,13.29,0,19.93,0,.86.59,2.32-1.09,2.17-.41,0-1-1.37-1-2.1-.08-9.2-.09-18.39-.08-27.58,0-6,.33-5.53-5.5-5.51-6.39,0-6.4,0-6.48-6.38,0-1.4-.06-2.59-1.85-3-.43-.08-.91-1.14-.93-1.75-.09-3.63,0-7.26-.07-10.89,0-1.33.37-2.1,1.84-2,1.66.16,2.33-.57,2.43-2.27a2.33,2.33,0,0,1,1.62-1.56c1.48-.18,2.29-.95,2-2.22a3.36,3.36,0,0,0-1.89-2.29c-1.47-.31-2-.84-1.84-2.28s-.62-2.52-2.18-2.24c-2.08.36-2.55-.45-2.55-2.36,0-.64-1.26-1.89-1.69-1.79-.82.19-2.11,1.24-2,1.79.28,2.43-.9,2.57-2.75,2.35-1.53-.18-2.5.74-2.28,2.18.27,1.73-.38,2-1.88,2.37-.74.17-1.51,1.49-1.72,2.42-.26,1.13.35,2.11,1.83,2s2,.5,1.83,1.93.7,2.1,2.09,2c1.63-.15,2.23.59,2.22,2.15,0,3.56,0,7.11,0,10.66,0,.61-.33,1.63-.69,1.72-1.71.42-1.59,1.63-1.57,2.89s0,2.32,0,3.47c0,3-.07,3.06-3.16,3.07-1.86,0-3.72.11-5.56,0-2.18-.15-3,.61-3,2.9.11,9.8.09,19.62,0,29.43,0,1.07.77,3-1.1,3s-1.31-2-1.31-3.09q0-9.62.16-19.23a4,4,0,0,0-3.15-4.45c-2.86-.89-5.74-1.77-8.52-2.89a6.76,6.76,0,0,0-5.55,0c-2.54,1.08-5.22,1.86-7.86,2.72-3.61,1.16-3.63,1.16-3.62,5,0,6.64,0,13.28,0,19.93a3.16,3.16,0,0,1-.73,2,1.64,1.64,0,0,1-1.63-.1,3.75,3.75,0,0,1-.56-2.08q-.06-15.18-.05-30.36c0-1.63-.34-2.83-2.27-2.62-2.46.26-2.93-.94-2.9-3.15.1-8.42,0-16.84,0-25.26,0-1.7-.34-3-2.33-2.93-4.82.12-4.32-.67-4.42-4.88,0-1.08,0-2.16,0-3.24q0-13.8,0-27.58c0-1.63,0-3.13-2.31-3.18-.52,0-1.28-1.05-1.46-1.74-1.55-5.8-3-11.63-4.47-17.45-2.45-9.7-4.94-19.39-7.32-29.11-.82-3.34-1.39-6.76-2-10.16-.21-1.23.05-2.32,1.8-2.2,1.4.09,1.74-1,1.45-2.05-.19-.68-.95-1.69-1.47-1.7-1.7,0-1.83-.9-1.81-2.23,0-4.17,0-8.34,0-12.51,0-1.66-.28-2.91-2.34-2.92s-2.56,1.15-2.53,3c.07,4.09,0,8.19,0,12.28,0,1.28-.16,2.22-1.79,2.41-.56.06-1.27,1-1.45,1.73-.26,1,0,2.06,1.48,2s1.84.84,1.76,2.09a17.11,17.11,0,0,1-.28,3.21c-2.41,9.79-4.88,19.57-7.34,29.35Q120,82.9,116.86,95.17c-.12.48-.38,1.21-.71,1.3-2.35.59-2.3,2.37-2.3,4.21,0,11,0,21.94.11,32.9,0,1.49-.26,2.22-1.88,2s-2.19.72-2.08,2.23c0,.54,0,1.08,0,1.63.22,138.73.12,164.25.54,303l213,6.28C323.49,429.1,323.64,522.7,323.55,503.08Z"/><path class="cls-4" d="M310.26,491.26q-.27-60.94-.55-121.88c-.1-20.38-.26-40.77-.37-61.16q-.18-31.05-.32-62.09-.16-59.67-.25-119.35c0-.91,0-1.82,0-2.66-3.75-.91-3.87-1.22-3.52-5,.17-1.9-.09-3.84-.09-5.76,0-8.58,0-17.15-.1-25.73A6.6,6.6,0,0,0,304,84.86c-.48-.89-1.43-1.6-1.68-2.53-1.32-4.82-2.47-9.68-3.71-14.53-2.42-9.47-4.93-18.92-7.25-28.42-1.08-4.39-1.84-8.86-2.67-13.32-.23-1.27.08-2.22,1.8-2.23.5,0,1.35-1.15,1.37-1.79s-.78-1.84-1.26-1.86c-1.78-.07-2-1-2-2.42,0-4.09,0-8.19,0-12.28,0-1.64-.23-3-2.29-3s-2.58,1.25-2.56,3c0,4,0,8,0,12,0,1.47-.13,2.56-2.05,2.61-.42,0-1.09,1.28-1.11,2s.76,1.61,1.22,1.63c1.88.09,2.16,1.21,2.06,2.66a15.69,15.69,0,0,1-.39,3c-2.31,8.86-4.72,17.7-7,26.57S272.25,73.67,270,82.47c-.22.87-1.15,2.14-1.82,2.19-2.23.14-2.36,1.37-2.35,3.11.06,10.35.06,20.7.07,31.06,0,4.66,0,4.66-4.61,4.67-3.63,0-3.73.12-3.73,3.84q0,12.51,0,25c0,1.06.2,2.54-1.37,2.41-3.27-.28-3.19,1.79-3.18,4q0,14.49.05,29c0,1.14.24,2.64-1.46,2.48-.52-.05-1.27-1.55-1.28-2.39-.09-6.8,0-13.6-.09-20.4,0-1.1-.49-2.83-1.25-3.17a50.58,50.58,0,0,0-10.15-3.62c-5.21-1.08-10,.88-14.67,3.06a4.14,4.14,0,0,0-2.68,4.33c.1,6.65.07,13.29,0,19.93,0,.86.58,2.32-1.1,2.17-.41,0-1-1.37-1-2.1-.08-9.2-.09-18.39-.08-27.58,0-6,.33-5.53-5.5-5.51-6.38,0-6.4,0-6.48-6.38,0-1.4-.06-2.59-1.85-3-.42-.09-.91-1.14-.93-1.75-.09-3.63,0-7.26-.07-10.89,0-1.33.37-2.1,1.84-2,1.66.16,2.34-.57,2.43-2.27a2.33,2.33,0,0,1,1.62-1.56c1.48-.18,2.29-1,2-2.22a3.37,3.37,0,0,0-1.88-2.29c-1.48-.31-2-.84-1.84-2.28s-.63-2.52-2.18-2.24c-2.08.36-2.56-.45-2.56-2.36,0-.64-1.26-1.89-1.69-1.79-.81.19-2.11,1.24-2,1.79.29,2.43-.89,2.57-2.75,2.35-1.52-.18-2.5.74-2.27,2.18.27,1.73-.39,2-1.89,2.37-.74.17-1.51,1.49-1.72,2.42-.26,1.13.35,2.11,1.83,2s2,.5,1.83,1.93.7,2.1,2.1,2c1.62-.15,2.23.59,2.21,2.15,0,3.56,0,7.11,0,10.66,0,.61-.33,1.63-.68,1.72-1.71.42-1.59,1.63-1.57,2.89s0,2.32,0,3.47c0,3-.08,3.06-3.17,3.07-1.86,0-3.72.11-5.56,0-2.18-.15-3,.61-3,2.9.11,9.8.09,19.62,0,29.43,0,1.07.78,2.95-1.09,3s-1.31-2-1.32-3.09c0-6.41,0-12.82.16-19.23a4,4,0,0,0-3.14-4.45c-2.87-.89-5.75-1.77-8.53-2.89a6.73,6.73,0,0,0-5.54,0c-2.55,1.08-5.22,1.86-7.86,2.72-3.61,1.16-3.63,1.16-3.63,5,0,6.64,0,13.28,0,19.93a3.16,3.16,0,0,1-.73,2,1.64,1.64,0,0,1-1.63-.1,3.67,3.67,0,0,1-.55-2.08q-.08-15.18-.06-30.36c0-1.63-.34-2.83-2.27-2.62-2.46.26-2.92-.94-2.9-3.15.1-8.42,0-16.84,0-25.26,0-1.7-.35-3-2.34-2.93-4.81.12-4.32-.67-4.42-4.88,0-1.08,0-2.16,0-3.24q0-13.8,0-27.58c0-1.63,0-3.13-2.32-3.18-.51,0-1.27-1-1.46-1.74-1.55-5.8-3-11.63-4.47-17.45-2.45-9.7-4.94-19.39-7.32-29.11-.81-3.34-1.39-6.76-2-10.16-.21-1.23,0-2.32,1.8-2.2,1.4.09,1.74-1,1.45-2.05-.19-.68-1-1.69-1.46-1.7-1.7,0-1.83-.9-1.82-2.23,0-4.17,0-8.34,0-12.51,0-1.66-.27-2.91-2.34-2.92s-2.56,1.15-2.53,3c.07,4.09,0,8.19,0,12.28,0,1.28-.15,2.22-1.79,2.41-.56.06-1.26,1-1.44,1.73-.27,1,0,2.06,1.47,2s1.84.84,1.77,2.09a18,18,0,0,1-.29,3.21q-3.61,14.68-7.34,29.35-3.09,12.29-6.25,24.56c-.12.48-.38,1.21-.71,1.3-2.34.59-2.3,2.37-2.29,4.21,0,11,0,21.94.1,32.9,0,1.49-.26,2.22-1.88,2s-2.19.72-2.07,2.23c0,.54,0,1.08,0,1.63.21,138.73.12,164.25.54,303l213,6.28C310.2,417.28,310.35,510.88,310.26,491.26Z"/><polygon class="cls-2" points="0 202.6 0.39 452.77 217.24 577.51 216.85 327.35 0 202.6"/><polygon class="cls-1" points="433.3 201.92 433.69 452.09 217.24 577.51 216.85 327.35 433.3 201.92"/><path class="cls-4" d="M297.53,376.42a3.66,3.66,0,0,1,0-1,114,114,0,0,1,12.35-41.92q10-18.89,31-31.43,12-7.17,20.61-6.64T374.69,302a28.32,28.32,0,0,1,5.38,15c.08.91.12,2.19.12,3.82a47.59,47.59,0,0,1-1.85,13.09,66,66,0,0,1-4.62,11.73q-2.81,5.46-7.15,12.4,7.77,0,12,4.95t5.08,14a68.07,68.07,0,0,1-.29,12.54A102.46,102.46,0,0,1,375,419.64a120.24,120.24,0,0,1-18,28.89,99.46,99.46,0,0,1-25.15,21.72q-20.38,12.18-33.54,9.85t-15-23.17a77,77,0,0,1-.18-10.58,15.13,15.13,0,0,1,1.14-6,10.12,10.12,0,0,1,4.39-4.58l21.62-12.92c2.4-1.36,3.67-1.15,3.83.61a9.36,9.36,0,0,1-.13,2.19,42.47,42.47,0,0,0-.18,6.46q.68,7.62,5.32,8.18t10.88-3.16a38.36,38.36,0,0,0,12.71-12.39,39.09,39.09,0,0,0,6-17.72,31.75,31.75,0,0,0,.09-5.06c-.36-4-2-6.23-4.91-6.65s-7,1-12.36,4.16c-2.4,1.43-3.67,1.23-3.83-.61a9.83,9.83,0,0,1,.08-1.49l2.53-24.91a13.59,13.59,0,0,1,1.33-4.42,7.81,7.81,0,0,1,3-2.95,25,25,0,0,0,8.76-8.24,28.75,28.75,0,0,0,3.66-12.21A21.55,21.55,0,0,0,347,341c-.21-2.47-1-4.2-2.4-5.2s-3.47-.65-6.27,1a21.52,21.52,0,0,0-7.35,7.84,32.16,32.16,0,0,0-4,12.64,7.61,7.61,0,0,1-3.75,6.25l-22.87,13.45Q297.72,378.64,297.53,376.42Z"/><path class="cls-4" d="M297.53,376.42a3.66,3.66,0,0,1,0-1,114,114,0,0,1,12.35-41.92q10-18.89,31-31.43,12-7.17,20.61-6.64T374.69,302a28.32,28.32,0,0,1,5.38,15c.08.91.12,2.19.12,3.82a47.59,47.59,0,0,1-1.85,13.09,66,66,0,0,1-4.62,11.73q-2.81,5.46-7.15,12.4,7.77,0,12,4.95t5.08,14a68.07,68.07,0,0,1-.29,12.54A102.46,102.46,0,0,1,375,419.64a120.24,120.24,0,0,1-18,28.89,99.46,99.46,0,0,1-25.15,21.72q-20.38,12.18-33.54,9.85t-15-23.17a77,77,0,0,1-.18-10.58,15.13,15.13,0,0,1,1.14-6,10.12,10.12,0,0,1,4.39-4.58l21.62-12.92c2.4-1.36,3.67-1.15,3.83.61a9.36,9.36,0,0,1-.13,2.19,42.47,42.47,0,0,0-.18,6.46q.68,7.62,5.32,8.18t10.88-3.16a38.36,38.36,0,0,0,12.71-12.39,39.09,39.09,0,0,0,6-17.72,31.75,31.75,0,0,0,.09-5.06c-.36-4-2-6.23-4.91-6.65s-7,1-12.36,4.16c-2.4,1.43-3.67,1.23-3.83-.61a9.83,9.83,0,0,1,.08-1.49l2.53-24.91a13.59,13.59,0,0,1,1.33-4.42,7.81,7.81,0,0,1,3-2.95,25,25,0,0,0,8.76-8.24,28.75,28.75,0,0,0,3.66-12.21A21.55,21.55,0,0,0,347,341c-.21-2.47-1-4.2-2.4-5.2s-3.47-.65-6.27,1a21.52,21.52,0,0,0-7.35,7.84,32.16,32.16,0,0,0-4,12.64,7.61,7.61,0,0,1-3.75,6.25l-22.87,13.45Q297.72,378.64,297.53,376.42Z"/></g></g></svg>