<svg id="Layer_1" data-name="Layer 1" xmlns="http://www.w3.org/2000/svg" xmlns:xlink="http://www.w3.org/1999/xlink" viewBox="0 0 2094.02 1325.56"><defs><style>.cls-1,.cls-4{fill:#28366e;}.cls-2{clip-path:url(#clip-path);}.cls-3{opacity:0.05;}.cls-10,.cls-4,.cls-6,.cls-7{stroke:#dabfff;}.cls-10,.cls-4,.cls-7{stroke-miterlimit:10;}.cls-4{stroke-width:3px;}.cls-5{fill:#5b6dbc;}.cls-10,.cls-6,.cls-7{fill:none;stroke-width:5px;}.cls-6,.cls-7{stroke-linecap:round;}.cls-6{stroke-linejoin:round;}.cls-8{fill:#3e5087;}.cls-9{fill:#263572;}</style><clipPath id="clip-path"><rect class="cls-1" width="2094.02" height="1325.56"/></clipPath></defs><title>HTH3 Design</title><rect class="cls-1" width="2094.02" height="1325.56"/><g class="cls-2"><g class="cls-3"><rect class="cls-4" x="-278.26" y="-337.22" width="3000" height="3000" transform="translate(-132.6 157.56) rotate(-7)"/><line class="cls-4" x1="-227.65" y1="1666.7" x2="2749.98" y2="1301.09"/><line class="cls-4" x1="-234.82" y1="1608.32" x2="2742.82" y2="1242.71"/><line class="cls-4" x1="-241.99" y1="1549.93" x2="2735.65" y2="1184.32"/><line class="cls-4" x1="-249.16" y1="1491.55" x2="2728.48" y2="1125.94"/><line class="cls-4" x1="-256.33" y1="1433.16" x2="2721.31" y2="1067.55"/><line class="cls-4" x1="-263.5" y1="1374.78" x2="2714.14" y2="1009.17"/><line class="cls-4" x1="-270.67" y1="1316.39" x2="2706.97" y2="950.78"/><line class="cls-4" x1="-277.84" y1="1258.01" x2="2699.8" y2="892.4"/><line class="cls-4" x1="-285" y1="1199.62" x2="2692.63" y2="834.01"/><line class="cls-4" x1="-292.17" y1="1141.24" x2="2685.47" y2="775.63"/><line class="cls-4" x1="-299.34" y1="1082.85" x2="2678.3" y2="717.24"/><line class="cls-4" x1="-306.51" y1="1024.47" x2="2671.13" y2="658.86"/><line class="cls-4" x1="-313.68" y1="966.08" x2="2663.96" y2="600.47"/><line class="cls-4" x1="-320.85" y1="907.7" x2="2656.79" y2="542.09"/><line class="cls-4" x1="-328.02" y1="849.31" x2="2649.62" y2="483.7"/><line class="cls-4" x1="-335.19" y1="790.93" x2="2642.45" y2="425.32"/><line class="cls-4" x1="-342.35" y1="732.54" x2="2635.28" y2="366.93"/><line class="cls-4" x1="-349.52" y1="674.16" x2="2628.12" y2="308.55"/><line class="cls-4" x1="-356.69" y1="615.77" x2="2620.95" y2="250.16"/><line class="cls-4" x1="-363.86" y1="557.39" x2="2613.78" y2="191.78"/><line class="cls-4" x1="-371.03" y1="499" x2="2606.61" y2="133.39"/><line class="cls-4" x1="-378.2" y1="440.61" x2="2599.44" y2="75.01"/><line class="cls-4" x1="-385.37" y1="382.23" x2="2592.27" y2="16.62"/><line class="cls-4" x1="-392.54" y1="323.84" x2="2585.1" y2="-41.76"/><line class="cls-4" x1="-399.7" y1="265.46" x2="2577.93" y2="-100.15"/><line class="cls-4" x1="-406.87" y1="207.07" x2="2570.76" y2="-158.53"/><line class="cls-4" x1="-414.04" y1="148.69" x2="2563.6" y2="-216.92"/><line class="cls-4" x1="-421.21" y1="90.3" x2="2556.43" y2="-275.3"/><line class="cls-4" x1="-428.38" y1="31.92" x2="2549.26" y2="-333.69"/><line class="cls-4" x1="2060.67" y1="-451.49" x2="2426.28" y2="2526.14"/><line class="cls-4" x1="2002.29" y1="-444.33" x2="2367.9" y2="2533.31"/><line class="cls-4" x1="1943.9" y1="-437.16" x2="2309.51" y2="2540.48"/><line class="cls-4" x1="1885.52" y1="-429.99" x2="2251.13" y2="2547.65"/><line class="cls-4" x1="1827.13" y1="-422.82" x2="2192.74" y2="2554.82"/><line class="cls-4" x1="1768.75" y1="-415.65" x2="2134.36" y2="2561.99"/><line class="cls-4" x1="1710.36" y1="-408.48" x2="2075.97" y2="2569.16"/><line class="cls-4" x1="1651.98" y1="-401.31" x2="2017.58" y2="2576.33"/><line class="cls-4" x1="1593.59" y1="-394.14" x2="1959.2" y2="2583.49"/><line class="cls-4" x1="1535.21" y1="-386.98" x2="1900.81" y2="2590.66"/><line class="cls-4" x1="1476.82" y1="-379.81" x2="1842.43" y2="2597.83"/><line class="cls-4" x1="1418.44" y1="-372.64" x2="1784.04" y2="2605"/><line class="cls-4" x1="1360.05" y1="-365.47" x2="1725.66" y2="2612.17"/><line class="cls-4" x1="1301.67" y1="-358.3" x2="1667.27" y2="2619.34"/><line class="cls-4" x1="1243.28" y1="-351.13" x2="1608.89" y2="2626.51"/><line class="cls-4" x1="1184.9" y1="-343.96" x2="1550.5" y2="2633.68"/><line class="cls-4" x1="1126.51" y1="-336.79" x2="1492.12" y2="2640.84"/><line class="cls-4" x1="1068.13" y1="-329.62" x2="1433.73" y2="2648.01"/><line class="cls-4" x1="1009.74" y1="-322.46" x2="1375.35" y2="2655.18"/><line class="cls-4" x1="951.35" y1="-315.29" x2="1316.96" y2="2662.35"/><line class="cls-4" x1="892.97" y1="-308.12" x2="1258.58" y2="2669.52"/><line class="cls-4" x1="834.58" y1="-300.95" x2="1200.19" y2="2676.69"/><line class="cls-4" x1="776.2" y1="-293.78" x2="1141.81" y2="2683.86"/><line class="cls-4" x1="717.81" y1="-286.61" x2="1083.42" y2="2691.03"/><line class="cls-4" x1="659.43" y1="-279.44" x2="1025.04" y2="2698.2"/><line class="cls-4" x1="601.04" y1="-272.27" x2="966.65" y2="2705.36"/><line class="cls-4" x1="542.66" y1="-265.11" x2="908.27" y2="2712.53"/><line class="cls-4" x1="484.27" y1="-257.94" x2="849.88" y2="2719.7"/><line class="cls-4" x1="425.89" y1="-250.77" x2="791.5" y2="2726.87"/><line class="cls-4" x1="367.5" y1="-243.6" x2="733.11" y2="2734.04"/><line class="cls-4" x1="309.12" y1="-236.43" x2="674.73" y2="2741.21"/><line class="cls-4" x1="250.73" y1="-229.26" x2="616.34" y2="2748.38"/><line class="cls-4" x1="192.35" y1="-222.09" x2="557.96" y2="2755.55"/><line class="cls-4" x1="133.96" y1="-214.92" x2="499.57" y2="2762.71"/><line class="cls-4" x1="75.58" y1="-207.75" x2="441.19" y2="2769.88"/><line class="cls-4" x1="17.19" y1="-200.59" x2="382.8" y2="2777.05"/><line class="cls-4" x1="-41.19" y1="-193.42" x2="324.42" y2="2784.22"/><line class="cls-4" x1="-99.58" y1="-186.25" x2="266.03" y2="2791.39"/><line class="cls-4" x1="-157.96" y1="-179.08" x2="207.65" y2="2798.56"/><line class="cls-4" x1="-216.35" y1="-171.91" x2="149.26" y2="2805.73"/><line class="cls-4" x1="-274.73" y1="-164.74" x2="90.88" y2="2812.9"/><line class="cls-4" x1="-333.12" y1="-157.57" x2="32.49" y2="2820.07"/></g></g><path class="cls-5" d="M220.43,327.66l-42.85-74a10,10,0,0,1,0-10l42.62-74.09a10,10,0,0,1,8.66-5l85.47-.14a10,10,0,0,1,8.67,5l42.85,73.95a10,10,0,0,1,0,10L323.22,327.5a10,10,0,0,1-8.65,5l-85.47.14A10,10,0,0,1,220.43,327.66Z"/><path class="cls-6" d="M408.34,243.62l-56.16,71.91a10,10,0,0,1-9.27,3.75L258.27,307.4a10,10,0,0,1-7.88-6.15l-32-79.24a10,10,0,0,1,1.39-9.91l52.61-67.36a10,10,0,0,1,9.27-3.75l84.64,11.88a10,10,0,0,1,7.89,6.16l11.47,28.39"/><path class="cls-5" d="M1879.92,68.78l51.17,220.86a10,10,0,0,1-12.66,11.83l-216.86-66.12a10,10,0,0,1-3.9-16.88L1863.36,63.73A10,10,0,0,1,1879.92,68.78Z"/><path class="cls-7" d="M1652,261.86h-25.77a10,10,0,0,1-8.66-15L1730.91,50.52a10,10,0,0,1,17.32,0l113.35,196.34a10,10,0,0,1-8.66,15h-98"/><rect class="cls-5" x="534.46" y="1056.54" width="155.15" height="155.15" rx="10" transform="translate(647.03 -154.13) rotate(29.91)"/><path class="cls-7" d="M652.28,990.16l41.67,11.1a10,10,0,0,1,7.09,12.23l-34.77,130.6a10,10,0,0,1-12.24,7.09l-130.59-34.77a10,10,0,0,1-7.09-12.24l34.77-130.6a10,10,0,0,1,12.24-7.09l30.12,8"/><path class="cls-7" d="M1116.4,976.76l.5-10a10,10,0,0,1,15.42-7.9l29,18.73a10,10,0,0,1-.86,17.3l-30.74,15.76a10,10,0,0,1-14.55-9.4"/><path class="cls-8" d="M1174.83,960.28l-24.38,24.46a10,10,0,0,1-16.74-4.46l-9-33.34A10,10,0,0,1,1137,934.67l33.37,8.89A10,10,0,0,1,1174.83,960.28Z"/><path class="cls-7" d="M906.59,260.31a10,10,0,0,1,13-5.6l15.56,6.19,42.28,16.81a10,10,0,0,1,5.6,13l-23,57.85a10,10,0,0,1-13,5.6l-57.85-23a10,10,0,0,1-5.59-13l5-12.51"/><rect class="cls-8" x="903.71" y="288.48" width="82.25" height="82.25" rx="10" transform="translate(290.2 -427.23) rotate(29.91)"/><path class="cls-7" d="M1430.08,105h13.1a10,10,0,0,1,8.66,5l13.1,22.69a10,10,0,0,1,0,10l-13.1,22.69a10,10,0,0,1-8.66,5H1417a10,10,0,0,1-8.66-5l-13.1-22.69a10,10,0,0,1,0-10l7.77-13.46"/><path class="cls-8" d="M1434.53,195.63,1408.94,190a10,10,0,0,1-7.39-6.74l-7.93-25a10,10,0,0,1,2.14-9.76l17.65-19.36a10,10,0,0,1,9.53-3l25.59,5.61a10,10,0,0,1,7.39,6.74l7.93,25a10,10,0,0,1-2.14,9.77l-17.65,19.35A10,10,0,0,1,1434.53,195.63Z"/><path class="cls-7" d="M254.77,776.69l9.45,7.22A10,10,0,0,1,262,801.08l-79.34,33.08a10,10,0,0,1-13.76-10.51l11-85.24a10,10,0,0,1,16-6.67l5.85,4.47"/><path class="cls-8" d="M207.2,760.37l60.87,60.69a10,10,0,0,1-4.45,16.74l-83,22.37a10,10,0,0,1-12.27-12.23l22.12-83.06A10,10,0,0,1,207.2,760.37Z"/><path class="cls-5" d="M1851.42,1162.84l-95.27-73.61a10,10,0,0,1-3.8-9.25l16.12-119.31a10,10,0,0,1,6.11-7.92L1886,907.05a10,10,0,0,1,9.91,1.34L1991.15,982a10,10,0,0,1,3.79,9.25l-16.11,119.31a10,10,0,0,1-6.12,7.91l-111.38,45.7A10,10,0,0,1,1851.42,1162.84Z"/><path class="cls-7" d="M1957.39,924.29l24.61,77.45a10,10,0,0,1-2.14,9.77l-81.14,89a10,10,0,0,1-9.53,3l-117.6-25.79a10,10,0,0,1-7.39-6.74l-36.46-114.75a10,10,0,0,1,2.14-9.76l81.14-89a10,10,0,0,1,9.53-3l90.8,19.91"/><polygon class="cls-8" points="1386.68 580.36 1531.98 496.16 1532.25 664.09 1386.68 580.36"/><polygon class="cls-5" points="1677.55 579.9 1531.98 496.16 1532.25 664.09 1677.55 579.9"/><path class="cls-9" d="M1603.87,782.06q-.18-40.9-.36-81.81c-.07-13.69-.18-27.38-.26-41.06q-.12-20.85-.21-41.68-.12-40.07-.17-80.12V535.6c-2.52-.61-2.6-.81-2.37-3.35.12-1.28-.06-2.58-.06-3.87,0-5.76,0-11.51-.06-17.27a4.51,4.51,0,0,0-.72-1.86c-.32-.6-1-1.08-1.13-1.7-.89-3.23-1.66-6.5-2.49-9.75-1.62-6.36-3.31-12.71-4.87-19.08-.72-3-1.23-6-1.79-8.94-.16-.86,0-1.49,1.21-1.5.33,0,.91-.77.92-1.2s-.53-1.24-.85-1.25c-1.19-.05-1.33-.67-1.31-1.62,0-2.75,0-5.5,0-8.25,0-1.1-.15-2-1.53-2s-1.73.84-1.72,2c0,2.69,0,5.39,0,8.09,0,1-.08,1.72-1.37,1.75-.28,0-.73.86-.75,1.33s.51,1.07.82,1.09c1.27.06,1.45.81,1.39,1.79a11,11,0,0,1-.27,2c-1.55,5.95-3.17,11.89-4.68,17.84s-2.9,11.86-4.42,17.77c-.15.58-.77,1.43-1.22,1.46-1.5.1-1.59.92-1.58,2.09,0,6.95,0,13.9,0,20.85,0,3.13,0,3.13-3.1,3.14-2.43,0-2.5.08-2.5,2.57q0,8.4,0,16.8c0,.71.14,1.71-.92,1.62-2.19-.19-2.13,1.2-2.13,2.68q0,9.72,0,19.44c0,.77.16,1.78-1,1.67-.35,0-.86-1-.86-1.61-.07-4.56,0-9.12-.06-13.69,0-.74-.34-1.9-.85-2.13a33.92,33.92,0,0,0-6.81-2.43c-3.49-.72-6.71.59-9.85,2.06a2.77,2.77,0,0,0-1.8,2.91c.07,4.45,0,8.91,0,13.37,0,.58.39,1.56-.74,1.46-.27,0-.66-.92-.66-1.41q-.08-9.25-.05-18.52c0-4,.22-3.71-3.69-3.69-4.29,0-4.3,0-4.35-4.29,0-.93,0-1.74-1.25-2-.28-.06-.61-.77-.62-1.18-.06-2.44,0-4.87,0-7.31,0-.89.25-1.41,1.24-1.31s1.57-.39,1.63-1.53a1.58,1.58,0,0,1,1.09-1.05c1-.11,1.53-.63,1.34-1.48a2.24,2.24,0,0,0-1.26-1.54c-1-.21-1.32-.57-1.24-1.54s-.42-1.68-1.46-1.5c-1.39.25-1.71-.3-1.71-1.58,0-.43-.85-1.27-1.14-1.2-.55.13-1.41.83-1.37,1.2.19,1.63-.6,1.73-1.84,1.58-1-.13-1.68.49-1.53,1.46.18,1.16-.26,1.37-1.26,1.59-.5.12-1,1-1.16,1.62s.23,1.42,1.23,1.35,1.34.34,1.23,1.29.47,1.42,1.4,1.33c1.09-.1,1.5.4,1.49,1.45,0,2.38,0,4.77,0,7.15,0,.41-.22,1.1-.46,1.16-1.15.28-1.07,1.09-1,1.93s0,1.56,0,2.34c0,2,0,2-2.12,2.06-1.25,0-2.5.07-3.74,0-1.46-.1-2,.41-2,1.94.07,6.59.06,13.17,0,19.76,0,.72.52,2-.73,2s-.88-1.31-.89-2.07q0-6.46.11-12.91a2.7,2.7,0,0,0-2.11-3c-1.92-.6-3.86-1.19-5.72-1.94a4.51,4.51,0,0,0-3.72,0c-1.71.73-3.51,1.25-5.28,1.83-2.42.78-2.44.77-2.43,3.35,0,4.46,0,8.92,0,13.38a2.15,2.15,0,0,1-.5,1.34,1.12,1.12,0,0,1-1.09-.06,2.5,2.5,0,0,1-.37-1.41q0-10.18,0-20.37c0-1.1-.23-1.9-1.52-1.77-1.65.18-2-.62-2-2.11.07-5.65,0-11.3,0-17,0-1.14-.23-2-1.57-2-3.23.08-2.9-.45-3-3.28,0-.72,0-1.45,0-2.18l0-18.51c0-1.09,0-2.1-1.55-2.13-.35,0-.86-.71-1-1.17-1-3.89-2-7.8-3-11.71-1.65-6.51-3.32-13-4.91-19.54-.55-2.25-.94-4.54-1.32-6.82-.14-.83,0-1.56,1.21-1.48.94.06,1.16-.68,1-1.38-.13-.45-.64-1.13-1-1.14-1.14,0-1.23-.61-1.22-1.49,0-2.8,0-5.6,0-8.4,0-1.12-.18-2-1.57-2s-1.72.78-1.7,2c0,2.74,0,5.49,0,8.24,0,.86-.11,1.49-1.2,1.62-.38,0-.85.7-1,1.16-.18.68,0,1.38,1,1.33s1.24.56,1.19,1.4a11.89,11.89,0,0,1-.19,2.16q-2.43,9.85-4.93,19.7-2.07,8.25-4.19,16.49c-.08.32-.26.81-.48.87-1.57.4-1.55,1.59-1.54,2.82,0,7.37,0,14.73.07,22.09,0,1-.18,1.49-1.26,1.35s-1.47.48-1.4,1.5c0,.36,0,.72,0,1.09.15,93.13.08,110.26.36,203.39l143,4.22C1603.83,732.4,1603.93,795.23,1603.87,782.06Z"/><path class="cls-10" d="M1595,774.13q-.2-40.92-.37-81.82c-.07-13.68-.18-27.37-.26-41.06q-.12-20.84-.21-41.68-.11-40.05-.17-80.11v-1.79c-2.52-.61-2.6-.82-2.37-3.36a38.49,38.49,0,0,0-.06-3.87c0-5.75,0-11.51-.06-17.26a4.6,4.6,0,0,0-.72-1.87c-.32-.6-1-1.07-1.13-1.69-.89-3.24-1.66-6.5-2.49-9.76-1.62-6.35-3.31-12.7-4.87-19.08-.72-2.94-1.23-5.95-1.79-8.93-.16-.86,0-1.5,1.21-1.5.33,0,.91-.77.92-1.21s-.53-1.23-.85-1.25c-1.19,0-1.32-.66-1.31-1.62,0-2.75,0-5.5,0-8.24,0-1.11-.15-2-1.53-2s-1.73.84-1.72,2c0,2.7,0,5.39,0,8.09,0,1-.08,1.72-1.37,1.76-.28,0-.73.85-.75,1.32s.51,1.08.82,1.09c1.27.07,1.45.82,1.39,1.79a11.19,11.19,0,0,1-.27,2c-1.55,5.95-3.16,11.88-4.68,17.84s-2.9,11.85-4.42,17.76c-.15.58-.77,1.44-1.22,1.47-1.5.1-1.59.92-1.58,2.09,0,7,0,13.9.05,20.84,0,3.14,0,3.14-3.09,3.15-2.44,0-2.51.07-2.51,2.57q0,8.4,0,16.8c0,.71.14,1.7-.91,1.61-2.2-.19-2.14,1.2-2.14,2.68q0,9.74,0,19.45c0,.77.16,1.77-1,1.66-.35,0-.85-1-.86-1.6-.07-4.57,0-9.13-.06-13.69,0-.74-.34-1.91-.85-2.13a33.31,33.31,0,0,0-6.81-2.43c-3.49-.73-6.71.59-9.85,2.05a2.77,2.77,0,0,0-1.79,2.91c.06,4.46,0,8.92,0,13.38,0,.57.4,1.56-.74,1.45-.27,0-.65-.91-.66-1.41q-.07-9.25,0-18.51c0-4,.22-3.71-3.69-3.7-4.29,0-4.3,0-4.35-4.28,0-.94-.05-1.74-1.25-2-.28-.06-.61-.76-.62-1.18-.06-2.43,0-4.87,0-7.31,0-.88.25-1.4,1.24-1.31s1.57-.38,1.63-1.52a1.56,1.56,0,0,1,1.09-1c1-.12,1.54-.64,1.35-1.49a2.28,2.28,0,0,0-1.27-1.54c-1-.21-1.32-.56-1.24-1.53s-.41-1.69-1.46-1.5c-1.39.24-1.71-.3-1.71-1.59,0-.43-.85-1.27-1.14-1.2-.54.13-1.41.83-1.37,1.2.19,1.63-.6,1.73-1.84,1.58-1-.12-1.68.5-1.53,1.47.18,1.16-.26,1.36-1.26,1.59-.5.11-1,1-1.16,1.62s.23,1.42,1.23,1.34,1.35.34,1.23,1.3.47,1.41,1.4,1.33c1.09-.1,1.5.4,1.49,1.44,0,2.39,0,4.78,0,7.16,0,.4-.22,1.09-.46,1.15-1.15.28-1.07,1.1-1,1.94s0,1.56,0,2.33c0,2-.05,2.05-2.12,2.06-1.25,0-2.5.08-3.74,0-1.46-.1-2,.42-2,1.95.07,6.58.06,13.17,0,19.76,0,.72.52,2-.73,2s-.88-1.32-.89-2.08q0-6.45.11-12.9a2.68,2.68,0,0,0-2.11-3c-1.92-.6-3.86-1.19-5.72-1.94a4.47,4.47,0,0,0-3.72,0c-1.71.73-3.51,1.25-5.28,1.82-2.42.78-2.44.78-2.43,3.36,0,4.46,0,8.92,0,13.38a2,2,0,0,1-.5,1.33A1.09,1.09,0,0,1,1489,572a2.45,2.45,0,0,1-.37-1.4q0-10.19,0-20.38c0-1.09-.23-1.9-1.52-1.76-1.65.18-2-.63-2-2.11.07-5.65,0-11.31,0-17,0-1.14-.23-2-1.57-2-3.23.09-2.9-.44-3-3.27,0-.73,0-1.45,0-2.18l0-18.51c0-1.1,0-2.1-1.55-2.14-.35,0-.86-.7-1-1.16-1-3.9-2-7.81-3-11.72-1.65-6.51-3.32-13-4.91-19.54-.55-2.24-.94-4.53-1.32-6.82-.14-.82,0-1.56,1.21-1.48.94.06,1.16-.67,1-1.37-.13-.46-.64-1.13-1-1.14-1.14,0-1.23-.61-1.22-1.5,0-2.8,0-5.6,0-8.4,0-1.11-.18-2-1.57-2s-1.72.77-1.7,2c0,2.75,0,5.5,0,8.25,0,.86-.11,1.48-1.2,1.61-.38.05-.85.7-1,1.16-.18.69,0,1.39,1,1.34s1.24.56,1.19,1.4a11.78,11.78,0,0,1-.19,2.15q-2.43,9.87-4.93,19.7-2.07,8.25-4.19,16.49c-.08.32-.26.82-.48.87-1.57.4-1.54,1.59-1.54,2.83,0,7.36,0,14.73.07,22.09,0,1-.18,1.48-1.26,1.34s-1.47.49-1.4,1.5c0,.36,0,.73,0,1.09.15,93.14.08,110.27.36,203.4l143,4.21C1594.92,724.46,1595,787.29,1595,774.13Z"/><polygon class="cls-5" points="1386.68 580.36 1386.94 748.29 1532.51 832.02 1532.25 664.09 1386.68 580.36"/><polygon class="cls-8" points="1677.55 579.9 1677.81 747.83 1532.51 832.02 1532.25 664.09 1677.55 579.9"/><path class="cls-10" d="M1586.41,697a2.48,2.48,0,0,1,0-.68,76.43,76.43,0,0,1,8.29-28.13q6.69-12.68,20.79-21.1,8.05-4.82,13.84-4.46a11.43,11.43,0,0,1,8.87,4.38,19,19,0,0,1,3.61,10.07c0,.62.08,1.47.08,2.57a32.22,32.22,0,0,1-1.24,8.78,44.27,44.27,0,0,1-3.11,7.88q-1.87,3.66-4.8,8.33a10.21,10.21,0,0,1,8.09,3.31q2.87,3.32,3.41,9.41a45.51,45.51,0,0,1-.2,8.42,69,69,0,0,1-5.65,20.24,80.84,80.84,0,0,1-12.11,19.39A66.62,66.62,0,0,1,1609.4,760q-13.68,8.18-22.51,6.61t-10.08-15.55a52,52,0,0,1-.13-7.1,10.31,10.31,0,0,1,.77-4,6.79,6.79,0,0,1,3-3.07l14.51-8.68c1.61-.91,2.47-.77,2.57.41a6.07,6.07,0,0,1-.08,1.47,27.75,27.75,0,0,0-.13,4.34q.46,5.12,3.57,5.49c2.08.26,4.51-.45,7.31-2.12a26.13,26.13,0,0,0,12.54-20.21,20,20,0,0,0,.06-3.4q-.36-4.05-3.29-4.46t-8.3,2.79c-1.61,1-2.46.82-2.57-.41a6,6,0,0,1,.05-1l1.7-16.72a9,9,0,0,1,.9-3,5.18,5.18,0,0,1,2-2,16.75,16.75,0,0,0,5.88-5.53,19.12,19.12,0,0,0,2.46-8.2,14.31,14.31,0,0,0,.07-2.44,4.47,4.47,0,0,0-1.61-3.48q-1.4-1-4.21.68a14.51,14.51,0,0,0-4.93,5.27,21.44,21.44,0,0,0-2.69,8.48,5.12,5.12,0,0,1-2.52,4.2l-15.35,9C1587.14,698.17,1586.5,698,1586.41,697Z"/><path class="cls-10" d="M1586.41,697a2.48,2.48,0,0,1,0-.68,76.43,76.43,0,0,1,8.29-28.13q6.69-12.68,20.79-21.1,8.05-4.82,13.84-4.46a11.43,11.43,0,0,1,8.87,4.38,19,19,0,0,1,3.61,10.07c0,.62.08,1.47.08,2.57a32.22,32.22,0,0,1-1.24,8.78,44.27,44.27,0,0,1-3.11,7.88q-1.87,3.66-4.8,8.33a10.21,10.21,0,0,1,8.09,3.31q2.87,3.32,3.41,9.41a45.51,45.51,0,0,1-.2,8.42,69,69,0,0,1-5.65,20.24,80.84,80.84,0,0,1-12.11,19.39A66.62,66.62,0,0,1,1609.4,760q-13.68,8.18-22.51,6.61t-10.08-15.55a52,52,0,0,1-.13-7.1,10.31,10.31,0,0,1,.77-4,6.79,6.79,0,0,1,3-3.07l14.51-8.68c1.61-.91,2.47-.77,2.57.41a6.07,6.07,0,0,1-.08,1.47,27.75,27.75,0,0,0-.13,4.34q.46,5.12,3.57,5.49c2.08.26,4.51-.45,7.31-2.12a26.13,26.13,0,0,0,12.54-20.21,20,20,0,0,0,.06-3.4q-.36-4.05-3.29-4.46t-8.3,2.79c-1.61,1-2.46.82-2.57-.41a6,6,0,0,1,.05-1l1.7-16.72a9,9,0,0,1,.9-3,5.18,5.18,0,0,1,2-2,16.75,16.75,0,0,0,5.88-5.53,19.12,19.12,0,0,0,2.46-8.2,14.31,14.31,0,0,0,.07-2.44,4.47,4.47,0,0,0-1.61-3.48q-1.4-1-4.21.68a14.51,14.51,0,0,0-4.93,5.27,21.44,21.44,0,0,0-2.69,8.48,5.12,5.12,0,0,1-2.52,4.2l-15.35,9C1587.14,698.17,1586.5,698,1586.41,697Z"/><path class="cls-10" d="M818.28,549.74a2.52,2.52,0,0,1,.64-1.57,1.93,1.93,0,0,1,1.57-.7l15.28,0a2.55,2.55,0,0,1,1.6.64,2,2,0,0,1,.83,1.62l0,24.45,25.59,0,0-24.45a2.23,2.23,0,0,1,.64-1.6,2.18,2.18,0,0,1,1.67-.67l15,0a3.14,3.14,0,0,1,1.8.52,1.83,1.83,0,0,1,.77,1.64l.11,72a2.1,2.1,0,0,1-.66,1.7,2.61,2.61,0,0,1-1.75.57l-15.19,0a2.4,2.4,0,0,1-1.67-.57,2.12,2.12,0,0,1-.65-1.69l0-29.24-25.59,0,0,29.24a2.09,2.09,0,0,1-.69,1.67,2.79,2.79,0,0,1-1.88.59l-15.13,0q-2.18,0-2.22-2Z"/><path class="cls-10" d="M965.81,619.87a4.46,4.46,0,0,1-.31,1.67,4,4,0,0,1-2.36,2,7.31,7.31,0,0,1-1.34.16H951.66a4.51,4.51,0,0,1-1.75-.28,2.67,2.67,0,0,1-1.08-.79,4.74,4.74,0,0,1-.7-1.26c-.19-.5-.39-1-.59-1.62l-1.5-3.86c-.93.93-1.94,1.91-3,3a27.65,27.65,0,0,1-3.62,2.92,21.63,21.63,0,0,1-4.3,2.24,13.51,13.51,0,0,1-4.94.91,33.66,33.66,0,0,1-9-1.17,32.78,32.78,0,0,1-8-3.36,32.33,32.33,0,0,1-6.78-5.24,33.75,33.75,0,0,1-5.24-6.81,33.39,33.39,0,0,1-3.38-8.1,34.44,34.44,0,0,1-1.2-9.09,33.58,33.58,0,0,1,2.6-13.31,34.05,34.05,0,0,1,7.14-10.71A33,33,0,0,1,916.92,560,33.44,33.44,0,0,1,930,557.33a17.33,17.33,0,0,1,5.87.95,20,20,0,0,1,4.87,2.49,24,24,0,0,1,4,3.49,39,39,0,0,1,3.17,4l2-6.23c.35-.86.63-1.56.85-2.09a3.52,3.52,0,0,1,.72-1.18,1.93,1.93,0,0,1,.95-.52,7.36,7.36,0,0,1,1.6-.13h7.67a7.29,7.29,0,0,1,1.34.15,2.5,2.5,0,0,1,1.33.72,3.21,3.21,0,0,1,1,1.28,4.26,4.26,0,0,1,.31,1.65Zm-50.75-28.75a18.62,18.62,0,0,0,1.07,6.36,15.1,15.1,0,0,0,3,5.12A14.33,14.33,0,0,0,930,607.26a16,16,0,0,0,6.41-1.27,16.25,16.25,0,0,0,5.14-3.43,15.38,15.38,0,0,0,3.42-5.13,16.83,16.83,0,0,0,0-12.63,16.77,16.77,0,0,0-3.44-5.25,16.23,16.23,0,0,0-5.15-3.57,15.7,15.7,0,0,0-6.41-1.3,14.09,14.09,0,0,0-6.1,1.32,14.33,14.33,0,0,0-4.7,3.59,16.19,16.19,0,0,0-3,5.25A18.86,18.86,0,0,0,915.06,591.12Z"/><path class="cls-10" d="M1020,603.47a3.66,3.66,0,0,1,1.36-.65,6.06,6.06,0,0,1,1-.13,3.55,3.55,0,0,1,1.6.36,4.22,4.22,0,0,1,1.49,1.54l5.78,8.69a8.07,8.07,0,0,1,.49.93,2.1,2.1,0,0,1,.24.82,2.59,2.59,0,0,1-.75,1.93,10.17,10.17,0,0,1-1.62,1.32,38.82,38.82,0,0,1-9.23,4.72,31.47,31.47,0,0,1-10.63,1.79,33.5,33.5,0,0,1-8.93-1.16,33.09,33.09,0,0,1-8-3.36A34.75,34.75,0,0,1,986,615a31.93,31.93,0,0,1-5.26-6.82,34.64,34.64,0,0,1-3.39-8.1,34.93,34.93,0,0,1,0-18.19,35,35,0,0,1,3.36-8.12,32.82,32.82,0,0,1,5.24-6.8,34.31,34.31,0,0,1,6.79-5.24,33.39,33.39,0,0,1,8-3.35,33,33,0,0,1,8.93-1.2,34.66,34.66,0,0,1,10.37,1.47,60.13,60.13,0,0,1,8.79,4.26,6.18,6.18,0,0,1,1.8,1.57,3.63,3.63,0,0,1,.67,2.24,3.54,3.54,0,0,1-.61,1.9l-4.57,7.78q-1.44,2.54-3.5,2.53a3.38,3.38,0,0,1-1.13-.23,6.22,6.22,0,0,1-1.49-.79,23.36,23.36,0,0,0-4.87-2.44,15.88,15.88,0,0,0-5.54-.94,13.53,13.53,0,0,0-6,1.32,14.21,14.21,0,0,0-4.65,3.58,16.81,16.81,0,0,0-3,5.26,19,19,0,0,0,0,12.63,15.53,15.53,0,0,0,3,5.12,14,14,0,0,0,10.63,4.67,14.64,14.64,0,0,0,5.51-1A25.11,25.11,0,0,0,1020,603.47Z"/><path class="cls-10" d="M1041.61,542.69c0-.58,0-1.11.05-1.59a2.35,2.35,0,0,1,.44-1.24,2.45,2.45,0,0,1,1.21-.8,7.34,7.34,0,0,1,2.31-.28l12.3,0a3.43,3.43,0,0,1,1.63.33,2.89,2.89,0,0,1,1,.85,2.83,2.83,0,0,1,.51,1.1,5.06,5.06,0,0,1,.13,1.11l.06,38.09,18.5-20.62a4.17,4.17,0,0,1,3.19-1.5l15.8,0c1.89,0,2.84.73,2.84,2.21a2.07,2.07,0,0,1-.18.92,6,6,0,0,1-.74,1l-21.13,22.38,26.67,34.14a9.84,9.84,0,0,1,.85,1.36,3.35,3.35,0,0,1,.29,1.26,1.82,1.82,0,0,1-.64,1.62,3.49,3.49,0,0,1-1.93.44l-17.4,0a2.46,2.46,0,0,1-1.65-.67,10.57,10.57,0,0,1-1.7-2L1067.18,597l-5.71,5.93,0,16.63a5.73,5.73,0,0,1-.13,1.08,3.87,3.87,0,0,1-.51,1.31,3.69,3.69,0,0,1-1,1.11,3.09,3.09,0,0,1-1.75.47l-12.92,0a2.62,2.62,0,0,1-1.6-.49,4,4,0,0,1-1.06-1.11,5.74,5.74,0,0,1-.56-1.15,3.1,3.1,0,0,1-.19-.65Z"/><path class="cls-10" d="M1150.59,547.83a2.82,2.82,0,0,1,1.05-2.4,11.93,11.93,0,0,1,3-1.52l11.68-4.09a2.81,2.81,0,0,1,.49-.05h.44a2.69,2.69,0,0,1,2.55,1.1,5.76,5.76,0,0,1,.64,2.91l0,16.21H1179a3.73,3.73,0,0,1,2.68,1,3.86,3.86,0,0,1,1,2.94v9.93a4.26,4.26,0,0,1-1,3.17,3.73,3.73,0,0,1-2.68,1h-8.59l.11,41.38a3.74,3.74,0,0,1-1.12,3,4.62,4.62,0,0,1-3.14,1h-11.64q-4,0-4-4l-.11-41.39h-3.76c-2.64,0-4-1.39-4-4.17l0-9.93q0-3.91,4-3.92h3.76Z"/><path class="cls-10" d="M1210.64,564.8a21.37,21.37,0,0,1,2.36-2.86,16,16,0,0,1,3.26-2.52,18.73,18.73,0,0,1,9.7-2.5,23.56,23.56,0,0,1,10.48,2.24,23.26,23.26,0,0,1,7.84,6.15,27.35,27.35,0,0,1,4.9,9.11,36.12,36.12,0,0,1,1.69,11.13l.05,33.72a4.47,4.47,0,0,1-.84,3,3.36,3.36,0,0,1-2.7,1l-11.89,0a4.66,4.66,0,0,1-3-.74,3.9,3.9,0,0,1-.83-2.91l0-34a9.92,9.92,0,0,0-.86-4.11,10.76,10.76,0,0,0-2.29-3.32,10.63,10.63,0,0,0-7.47-3,9.22,9.22,0,0,0-3.63.75,10.4,10.4,0,0,0-3.19,2.12,11.81,11.81,0,0,0-2.36,3.27,11,11,0,0,0-1.1,4.22l0,34a5,5,0,0,1-.33,1.75,2.82,2.82,0,0,1-1,1.34,5.27,5.27,0,0,1-1.26.57,5.55,5.55,0,0,1-1.36.15l-11.64,0a3.62,3.62,0,0,1-4.17-4l-.07-41.9v-.36l0-15.31v-.26l0-19.09a4,4,0,0,1,1-2.84,4.11,4.11,0,0,1,3.19-1.08l11.63,0a5.38,5.38,0,0,1,2.63.82,2.79,2.79,0,0,1,1,1.34,4.65,4.65,0,0,1,.33,1.64Z"/><path class="cls-10" d="M1318,615.3a34.19,34.19,0,0,1-10.18,6.53,31.07,31.07,0,0,1-12,2.36,35,35,0,0,1-24.36-9.66,34.25,34.25,0,0,1-7.54-10.72,32.59,32.59,0,0,1-2.8-13.43,35,35,0,0,1,4.22-16.74,34,34,0,0,1,4.94-6.83,31.1,31.1,0,0,1,6.5-5.34,32,32,0,0,1,7.82-3.46,31.64,31.64,0,0,1,8.9-1.25,30.59,30.59,0,0,1,8.29,1.12,32,32,0,0,1,7.54,3.18,32.57,32.57,0,0,1,6.47,4.93,33.39,33.39,0,0,1,5.06,6.3,30.73,30.73,0,0,1,3.28,7.3,28.38,28.38,0,0,1,1.17,8c0,1.78,0,3.24-.07,4.37a5,5,0,0,1-.8,2.71,3.86,3.86,0,0,1-2.39,1.39,23.11,23.11,0,0,1-4.91.39l-37.06.06a12.73,12.73,0,0,0,2.09,5.51,13.3,13.3,0,0,0,3.63,3.52,14.82,14.82,0,0,0,4.38,1.87,18.39,18.39,0,0,0,4.38.56,19.56,19.56,0,0,0,3.81-.39,27.71,27.71,0,0,0,3.78-1,20.93,20.93,0,0,0,3.34-1.5,11,11,0,0,0,2.45-1.78,10,10,0,0,1,1.41-1,2.36,2.36,0,0,1,2.62.12,11.07,11.07,0,0,1,1.58,1.34l5.46,6.17a3.5,3.5,0,0,1,.73,1.21,4,4,0,0,1,.15,1.1,2.91,2.91,0,0,1-.56,1.78A6.17,6.17,0,0,1,1318,615.3Zm-24.82-42.84a9.72,9.72,0,0,0-3.89.81,14.24,14.24,0,0,0-3.52,2.14,18.52,18.52,0,0,0-3,3,19.06,19.06,0,0,0-2.13,3.45l26.31,0a31.2,31.2,0,0,0-2.35-3.7,16,16,0,0,0-2.89-3,12.16,12.16,0,0,0-3.71-2A14.89,14.89,0,0,0,1293.22,572.46Z"/><path class="cls-10" d="M821.75,679.47a3,3,0,0,1,.72-1.77,2.23,2.23,0,0,1,1.77-.78l17.21,0a2.93,2.93,0,0,1,1.8.73,2.27,2.27,0,0,1,.93,1.82l0,27.52,28.8,0,0-27.52a2.51,2.51,0,0,1,.72-1.8,2.46,2.46,0,0,1,1.88-.76l16.93,0a3.56,3.56,0,0,1,2,.58,2.06,2.06,0,0,1,.87,1.85l.12,81.06a2.36,2.36,0,0,1-.74,1.92,3,3,0,0,1-2,.64l-17.1,0a2.76,2.76,0,0,1-1.88-.63,2.38,2.38,0,0,1-.73-1.91l-.05-32.91-28.8,0,0,32.91a2.37,2.37,0,0,1-.78,1.89,3.16,3.16,0,0,1-2.11.67l-17,0c-1.62,0-2.45-.75-2.49-2.25Z"/><path class="cls-10" d="M976.63,753.92a38.7,38.7,0,0,1-11.46,7.35,34.85,34.85,0,0,1-13.49,2.65A39.35,39.35,0,0,1,924.25,753,38.56,38.56,0,0,1,915.77,741a36.52,36.52,0,0,1-3.15-15.12A39.19,39.19,0,0,1,917.37,707a38,38,0,0,1,5.55-7.69,35.06,35.06,0,0,1,7.32-6A35.71,35.71,0,0,1,949.07,688a34.65,34.65,0,0,1,9.33,1.26,36.5,36.5,0,0,1,15.77,9.13,37.67,37.67,0,0,1,5.69,7.09,34.14,34.14,0,0,1,3.69,8.22,31,31,0,0,1,1.32,9c0,2,0,3.65-.08,4.93a5.5,5.5,0,0,1-.89,3,4.34,4.34,0,0,1-2.69,1.57,26.34,26.34,0,0,1-5.54.44l-41.72.07a14.35,14.35,0,0,0,2.36,6.19,14.79,14.79,0,0,0,4.09,4,16.34,16.34,0,0,0,4.93,2.1,20,20,0,0,0,4.93.63,22,22,0,0,0,4.28-.44,31,31,0,0,0,4.26-1.16,24.66,24.66,0,0,0,3.77-1.69,12.79,12.79,0,0,0,2.74-2,11.93,11.93,0,0,1,1.6-1.13,2.66,2.66,0,0,1,3,.14,11.59,11.59,0,0,1,1.77,1.5l6.15,6.94a4,4,0,0,1,.82,1.36,4.77,4.77,0,0,1,.17,1.25,3.25,3.25,0,0,1-.63,2A7.57,7.57,0,0,1,976.63,753.92ZM948.69,705.7a11.08,11.08,0,0,0-4.38.9,16.54,16.54,0,0,0-4,2.41,20.8,20.8,0,0,0-3.33,3.43,21.25,21.25,0,0,0-2.4,3.88l29.61-.05a33.55,33.55,0,0,0-2.64-4.16,17.86,17.86,0,0,0-3.25-3.36,14.12,14.12,0,0,0-4.18-2.25A16.5,16.5,0,0,0,948.69,705.7Z"/><path class="cls-10" d="M999.73,664.3a4.68,4.68,0,0,1,1-3.45,4.55,4.55,0,0,1,3.24-1l13.44,0a5.1,5.1,0,0,1,3.28,1,4.26,4.26,0,0,1,1.25,3.45l0,11.3a4.18,4.18,0,0,1-.32,1.5,6.06,6.06,0,0,1-.9,1.57,5,5,0,0,1-1.41,1.25,3.67,3.67,0,0,1-1.89.49l-13.44,0q-4.29,0-4.29-4.8Zm0,29.32a5.07,5.07,0,0,1,1-3.19,3.9,3.9,0,0,1,3.24-1.34l13.27,0a4.18,4.18,0,0,1,1.51.32,5.1,5.1,0,0,1,1.51.93,6,6,0,0,1,1.19,1.41,3.49,3.49,0,0,1,.49,1.86l.1,64.6a4.32,4.32,0,0,1-1.21,3.34,4.93,4.93,0,0,1-3.47,1.13l-13.27,0c-2.86,0-4.29-1.48-4.3-4.45Z"/><path class="cls-10" d="M1092.24,760a14.15,14.15,0,0,0,.6-4.49c0-1.68,0-3.39,0-5.12-1.12,1.2-2.25,2.46-3.41,3.79a30.14,30.14,0,0,1-3.85,3.72,19.5,19.5,0,0,1-4.77,2.82,16.45,16.45,0,0,1-6.2,1.11,38.38,38.38,0,0,1-14.49-2.65,34.38,34.38,0,0,1-11.54-7.42,33.63,33.63,0,0,1-7.61-11.43,38.31,38.31,0,0,1-2.75-14.66,40.2,40.2,0,0,1,2.7-14.87,37,37,0,0,1,7.57-12.06,35.41,35.41,0,0,1,26-11,18,18,0,0,1,6.46,1.09,21.83,21.83,0,0,1,5.22,2.83,28.49,28.49,0,0,1,4.3,3.91q1.93,2.16,3.68,4.31l2.19-6.9c.24-.66.45-1.26.64-1.8a4.32,4.32,0,0,1,.75-1.36,2.86,2.86,0,0,1,1.19-.84,5.17,5.17,0,0,1,1.88-.3h8.63a7.81,7.81,0,0,1,1.48.17,3,3,0,0,1,1.48.81,4.5,4.5,0,0,1,1.22,1.39,4,4,0,0,1,.41,1.91l.09,59a41.5,41.5,0,0,1-2.93,16.11A33.73,33.73,0,0,1,1091,787.4a43.7,43.7,0,0,1-15.06,2.58,45.49,45.49,0,0,1-6.73-.54,50.54,50.54,0,0,1-7.15-1.64,43,43,0,0,1-6.9-2.8,28.34,28.34,0,0,1-5.89-4,5.88,5.88,0,0,1-1.22-1.22,4.15,4.15,0,0,1-.73-1.56,4.57,4.57,0,0,1,0-1.88,5.87,5.87,0,0,1,1-2.12l5.5-7.6a4.7,4.7,0,0,1,2.83-1.74,5.38,5.38,0,0,1,3.37,1.38,11.37,11.37,0,0,0,3.33,2.23,22.46,22.46,0,0,0,3.88,1.32,24.23,24.23,0,0,0,3.95.64c1.29.09,2.46.14,3.5.14a23.18,23.18,0,0,0,5.45-.71,21.23,21.23,0,0,0,5.3-2.06,18.32,18.32,0,0,0,4.34-3.34A10.44,10.44,0,0,0,1092.24,760ZM1059,725.63a21.1,21.1,0,0,0,1.2,7.21,16.91,16.91,0,0,0,3.4,5.76,15.83,15.83,0,0,0,5.31,3.82,16.65,16.65,0,0,0,6.86,1.38,18.84,18.84,0,0,0,7-1.32,17.51,17.51,0,0,0,5.71-3.63,18.09,18.09,0,0,0,3.9-5.45,17.69,17.69,0,0,0,1.64-6.78v-1.91a17.74,17.74,0,0,0-1.67-6.7,18.94,18.94,0,0,0-3.92-5.55,18.63,18.63,0,0,0-5.71-3.82,17.45,17.45,0,0,0-7-1.41,16,16,0,0,0-6.87,1.49,16.47,16.47,0,0,0-5.29,4,17.35,17.35,0,0,0-3.38,5.86A21.11,21.11,0,0,0,1059,725.63Z"/><path class="cls-10" d="M1153,696.6a23.16,23.16,0,0,1,2.67-3.21,17.65,17.65,0,0,1,3.67-2.84,21.28,21.28,0,0,1,4.81-2,22.3,22.3,0,0,1,6.11-.79,26.52,26.52,0,0,1,11.79,2.53,26.2,26.2,0,0,1,8.82,6.92,30.57,30.57,0,0,1,5.52,10.25,40.63,40.63,0,0,1,1.9,12.53l.06,38a5,5,0,0,1-1,3.33,3.77,3.77,0,0,1-3,1.13l-13.38,0a5.15,5.15,0,0,1-3.42-.83q-.93-.84-.93-3.27l-.06-38.3a11.41,11.41,0,0,0-1-4.64,12.21,12.21,0,0,0-2.58-3.73,11.74,11.74,0,0,0-3.8-2.48,12,12,0,0,0-4.61-.9,10.62,10.62,0,0,0-4.08.85,11.71,11.71,0,0,0-3.59,2.38,13.41,13.41,0,0,0-2.66,3.69,12.31,12.31,0,0,0-1.24,4.75l.06,38.24a5.5,5.5,0,0,1-.37,2,3.14,3.14,0,0,1-1.13,1.51,5.45,5.45,0,0,1-1.42.64,6.3,6.3,0,0,1-1.53.18l-13.1,0a4.09,4.09,0,0,1-4.7-4.46l-.07-47.16v-.41l0-17.23v-.29l0-21.5a4.07,4.07,0,0,1,4.69-4.41l13.1,0a6.14,6.14,0,0,1,3,.92,3.24,3.24,0,0,1,1.14,1.5,5.25,5.25,0,0,1,.37,1.86Z"/><path class="cls-10" d="M1219.52,677.28a3.15,3.15,0,0,1,1.19-2.69,13.47,13.47,0,0,1,3.38-1.72l13.15-4.6a3.62,3.62,0,0,1,.55,0h.49a3,3,0,0,1,2.87,1.24,6.39,6.39,0,0,1,.73,3.27l0,18.25h9.68a4.16,4.16,0,0,1,3,1.09,4.36,4.36,0,0,1,1.17,3.3v11.19a4.75,4.75,0,0,1-1.15,3.56,4.1,4.1,0,0,1-3,1.14h-9.68l.13,46.59a4.2,4.2,0,0,1-1.26,3.33,5.22,5.22,0,0,1-3.54,1.14l-13.09,0c-3,0-4.47-1.48-4.47-4.46l-.13-46.58h-4.23q-4.47,0-4.47-4.68l0-11.19c0-2.93,1.48-4.4,4.46-4.41h4.23Z"/><path class="cls-10" d="M1278.84,739.36a16.66,16.66,0,0,0,3.39,2.64,25.78,25.78,0,0,0,3.51,1.73,20.52,20.52,0,0,0,3,.95,9.93,9.93,0,0,0,1.74.29c.74,0,1.67,0,2.81-.09a15.29,15.29,0,0,0,3.28-.53,6.77,6.77,0,0,0,2.69-1.43,3.45,3.45,0,0,0,1.12-2.78,4.56,4.56,0,0,0-.64-2.58,5.2,5.2,0,0,0-1.85-1.62,15.92,15.92,0,0,0-3-1.18c-1.18-.34-2.5-.75-4-1.21a47.78,47.78,0,0,1-11.48-4.44,25.82,25.82,0,0,1-7.17-5.82,19,19,0,0,1-3.69-6.91,28.57,28.57,0,0,1-1-7.82,19.74,19.74,0,0,1,1.9-8.76,19.44,19.44,0,0,1,5.43-6.76,25.73,25.73,0,0,1,8.46-4.35,39.2,39.2,0,0,1,17.78-1,27.3,27.3,0,0,1,6.09,1.9,30,30,0,0,1,5.65,3.36,44,44,0,0,1,5.49,4.88,3.67,3.67,0,0,1,1,2.17,3,3,0,0,1-1.3,2.18q-2.25,1.86-4.31,3.66c-1.37,1.2-2.78,2.53-4.25,4a3.18,3.18,0,0,1-1.39.73,2.71,2.71,0,0,1-1.33,0,3.79,3.79,0,0,1-1.22-.58,4.81,4.81,0,0,1-1-1,10.06,10.06,0,0,0-4.64-3,17.1,17.1,0,0,0-4.87-.78,8.89,8.89,0,0,0-4.52,1,3,3,0,0,0-1.56,3,3.25,3.25,0,0,0,1.13,2.34,8.16,8.16,0,0,0,2.5,1.36,22.37,22.37,0,0,0,3.13.84c1.1.21,2.11.45,3,.72a88.89,88.89,0,0,1,9.57,3.63,29.18,29.18,0,0,1,7.54,4.83,20.07,20.07,0,0,1,5,6.85,24,24,0,0,1,1.78,9.74,22.37,22.37,0,0,1-2.27,10.26,22,22,0,0,1-6.27,7.6,28.78,28.78,0,0,1-9.47,4.7,41.37,41.37,0,0,1-11.79,1.65,43.55,43.55,0,0,1-7.3-.63,33.93,33.93,0,0,1-7.19-2.05,32.13,32.13,0,0,1-6.61-3.64,25.87,25.87,0,0,1-5.57-5.4,5.83,5.83,0,0,1-1-1.71,4.83,4.83,0,0,1-.29-1.77,4.3,4.3,0,0,1,.34-1.59,3.13,3.13,0,0,1,1-1.25l7.46-7.49a2.65,2.65,0,0,1,2.46-.81A8.34,8.34,0,0,1,1278.84,739.36Z"/></svg>