<svg xmlns="http://www.w3.org/2000/svg" xmlns:xlink="http://www.w3.org/1999/xlink" viewBox="0 0 881.54 386.79"><defs><style>.cls-1{fill:url(#linear-gradient);}.cls-2{fill:url(#linear-gradient-2);}.cls-3,.cls-4{fill:none;stroke-miterlimit:10;stroke-width:5px;}.cls-3{stroke:#ffc65f;}.cls-4{stroke:#29abe2;}.cls-5,.cls-8{fill:#fff;}.cls-6{fill:url(#linear-gradient-3);}.cls-7{fill:url(#linear-gradient-4);}.cls-8{font-size:133.34px;font-family:CocogoosePro-Italic, Cocogoose Pro;font-style:italic;}.cls-9{fill:#ffc65f;}.cls-10{fill:#35c8ff;}</style><linearGradient id="linear-gradient" x1="590.41" y1="131.6" x2="735.97" y2="131.6" gradientUnits="userSpaceOnUse"><stop offset="0" stop-color="#0071bc"/><stop offset="0.89" stop-color="#6ed2ff"/></linearGradient><linearGradient id="linear-gradient-2" x1="735.71" y1="131.6" x2="881.27" y2="131.6" gradientUnits="userSpaceOnUse"><stop offset="0" stop-color="#29abe2"/><stop offset="0.89" stop-color="#fff"/></linearGradient><linearGradient id="linear-gradient-3" x1="590.41" y1="257.66" x2="736.23" y2="257.66" gradientUnits="userSpaceOnUse"><stop offset="0.11" stop-color="#fff"/><stop offset="1" stop-color="#29abe2"/></linearGradient><linearGradient id="linear-gradient-4" x1="735.97" y1="257.43" x2="881.54" y2="257.43" gradientUnits="userSpaceOnUse"><stop offset="0.11" stop-color="#6ed2ff"/><stop offset="1" stop-color="#0071bc"/></linearGradient></defs><title>full-logo</title><g id="Layer_2" data-name="Layer 2"><g id="Layer_1-2" data-name="Layer 1"><polygon class="cls-1" points="590.4 131.83 735.71 47.63 735.97 215.56 590.4 131.83"/><polygon class="cls-2" points="881.27 131.37 735.71 47.63 735.97 215.56 881.27 131.37"/><path class="cls-3" d="M805.68,330.6q-.18-40.91-.37-81.82-.1-20.52-.25-41.05c-.08-13.9-.18-27.79-.22-41.69q-.11-40-.17-80.11V84.14c-2.52-.61-2.59-.81-2.36-3.36.11-1.27-.06-2.57-.06-3.86,0-5.76,0-11.52-.07-17.27a4.33,4.33,0,0,0-.72-1.87c-.32-.59-1-1.07-1.13-1.69-.88-3.23-1.65-6.5-2.48-9.75C796.22,40,794.54,33.63,793,27.26c-.73-3-1.24-6-1.79-8.94-.16-.86,0-1.49,1.2-1.5.34,0,.91-.77.93-1.2s-.53-1.24-.86-1.25c-1.18,0-1.32-.67-1.31-1.63,0-2.74,0-5.49,0-8.24,0-1.1-.15-2-1.54-2s-1.73.84-1.72,2c0,2.7,0,5.4,0,8.09,0,1-.09,1.72-1.38,1.76-.28,0-.73.85-.74,1.33s.51,1.07.82,1.09c1.26.06,1.44.81,1.38,1.78a11.06,11.06,0,0,1-.26,2c-1.55,6-3.17,11.88-4.69,17.84s-2.9,11.85-4.41,17.77c-.15.57-.78,1.43-1.22,1.46-1.5.1-1.59.92-1.58,2.09,0,6.95,0,13.9,0,20.85,0,3.13,0,3.13-3.09,3.14-2.44,0-2.51.08-2.5,2.57,0,5.6,0,11.2,0,16.8,0,.71.14,1.7-.92,1.61-2.2-.18-2.14,1.2-2.13,2.69q0,9.72,0,19.44c0,.77.16,1.77-1,1.66-.35,0-.85-1-.86-1.6-.06-4.56,0-9.13-.06-13.69,0-.74-.33-1.9-.84-2.13a33.74,33.74,0,0,0-6.81-2.43c-3.5-.72-6.71.59-9.85,2.06a2.77,2.77,0,0,0-1.8,2.9c.07,4.46,0,8.92,0,13.38,0,.58.39,1.56-.74,1.46-.27,0-.66-.92-.66-1.42-.06-6.17-.06-12.34-.06-18.51,0-4,.22-3.71-3.69-3.7-4.29,0-4.29,0-4.35-4.28,0-.94,0-1.74-1.24-2-.29-.06-.61-.77-.63-1.18-.06-2.44,0-4.88,0-7.31,0-.89.25-1.41,1.23-1.32s1.57-.38,1.63-1.52a1.56,1.56,0,0,1,1.09-1c1-.12,1.54-.64,1.35-1.49a2.25,2.25,0,0,0-1.27-1.54c-1-.21-1.32-.56-1.23-1.53s-.42-1.68-1.46-1.5c-1.4.24-1.72-.3-1.72-1.59,0-.43-.85-1.27-1.13-1.2-.55.14-1.42.84-1.37,1.21.19,1.63-.6,1.72-1.85,1.57-1-.12-1.68.5-1.52,1.47.17,1.16-.26,1.36-1.27,1.59-.5.11-1,1-1.16,1.62a1,1,0,0,0,1.23,1.34c.93-.07,1.35.34,1.23,1.3s.47,1.41,1.41,1.33c1.09-.1,1.49.4,1.48,1.45,0,2.38,0,4.77,0,7.15,0,.41-.23,1.1-.47,1.15-1.14.28-1.06,1.1-1,1.94s0,1.56,0,2.34c0,2,0,2-2.13,2-1.24,0-2.49.08-3.73,0-1.46-.09-2,.42-2,2,.08,6.59.07,13.17,0,19.76,0,.72.52,2-.74,2s-.88-1.31-.88-2.08q0-6.45.11-12.9a2.71,2.71,0,0,0-2.12-3c-1.92-.6-3.85-1.19-5.72-1.94a4.51,4.51,0,0,0-3.72,0c-1.71.73-3.5,1.25-5.28,1.82-2.42.79-2.43.78-2.43,3.36,0,4.46,0,8.92,0,13.38a2.14,2.14,0,0,1-.49,1.34,1.11,1.11,0,0,1-1.1-.07,2.62,2.62,0,0,1-.37-1.4q0-10.19,0-20.38c0-1.09-.23-1.9-1.53-1.76-1.65.18-2-.63-1.94-2.11.06-5.65,0-11.3,0-17,0-1.13-.23-2-1.57-2-3.23.08-2.9-.45-3-3.28,0-.73,0-1.45,0-2.18q0-9.25,0-18.51c0-1.09,0-2.1-1.56-2.14-.34,0-.85-.7-1-1.16-1-3.89-2-7.81-3-11.72-1.64-6.51-3.31-13-4.91-19.53-.55-2.25-.93-4.54-1.32-6.83-.14-.82,0-1.55,1.21-1.48.94.07,1.17-.67,1-1.37-.13-.45-.64-1.13-1-1.14-1.14,0-1.23-.61-1.22-1.5,0-2.8,0-5.6,0-8.4,0-1.11-.19-1.95-1.57-2s-1.72.78-1.7,2c0,2.75,0,5.5,0,8.25,0,.86-.1,1.49-1.2,1.61-.38.05-.85.71-1,1.16-.18.69,0,1.39,1,1.34s1.24.56,1.19,1.4a12.94,12.94,0,0,1-.19,2.16q-2.44,9.86-4.93,19.7-2.08,8.25-4.2,16.48c-.08.32-.25.82-.48.87-1.57.4-1.54,1.6-1.54,2.83,0,7.36,0,14.73.08,22.09,0,1-.18,1.49-1.27,1.35s-1.47.48-1.39,1.5c0,.36,0,.72,0,1.08.14,93.14.08,110.27.36,203.4l142.95,4.21C805.64,280.93,805.74,343.77,805.68,330.6Z"/><path class="cls-4" d="M810.68,335.6q-.18-40.91-.37-81.82-.1-20.52-.25-41.05c-.08-13.9-.18-27.79-.22-41.69q-.11-40-.17-80.11V89.14c-2.52-.61-2.59-.81-2.36-3.36.11-1.27-.06-2.57-.06-3.86,0-5.76,0-11.52-.07-17.27a4.33,4.33,0,0,0-.72-1.87c-.32-.59-1-1.07-1.13-1.69-.88-3.23-1.65-6.5-2.48-9.75C801.22,45,799.54,38.63,798,32.26c-.73-2.95-1.24-5.95-1.79-8.94-.16-.86,0-1.49,1.2-1.5.34,0,.91-.77.93-1.2s-.53-1.24-.86-1.25c-1.18-.05-1.32-.67-1.31-1.63,0-2.74,0-5.49,0-8.24,0-1.1-.15-2-1.54-2s-1.73.84-1.72,2c0,2.7,0,5.4,0,8.09,0,1-.09,1.72-1.38,1.76-.28,0-.73.85-.74,1.33s.51,1.07.82,1.09c1.26.06,1.44.81,1.38,1.78a11.06,11.06,0,0,1-.26,2c-1.55,6-3.17,11.88-4.69,17.84s-2.9,11.85-4.41,17.77c-.15.57-.78,1.43-1.22,1.46-1.5.1-1.59.92-1.58,2.09,0,7,0,13.9,0,20.85,0,3.13,0,3.13-3.09,3.14-2.44,0-2.51.08-2.5,2.57,0,5.6,0,11.2,0,16.8,0,.71.14,1.7-.92,1.61-2.2-.18-2.14,1.2-2.13,2.69q0,9.72,0,19.44c0,.77.16,1.77-1,1.66-.35,0-.85-1-.86-1.6-.06-4.56,0-9.13-.06-13.69,0-.74-.33-1.9-.84-2.13a33.74,33.74,0,0,0-6.81-2.43c-3.5-.72-6.71.59-9.85,2.06a2.77,2.77,0,0,0-1.8,2.9c.07,4.46,0,8.92,0,13.38,0,.58.39,1.56-.74,1.46-.27,0-.66-.92-.66-1.42-.06-6.17-.06-12.34-.06-18.51,0-4,.22-3.71-3.69-3.7-4.29,0-4.29,0-4.35-4.28,0-.94,0-1.74-1.24-2-.29-.06-.61-.77-.63-1.18-.06-2.44,0-4.88,0-7.31,0-.89.25-1.41,1.23-1.32s1.57-.38,1.63-1.52a1.56,1.56,0,0,1,1.09-1c1-.12,1.54-.64,1.35-1.49a2.25,2.25,0,0,0-1.27-1.54c-1-.21-1.32-.56-1.23-1.53s-.42-1.68-1.46-1.5c-1.4.24-1.72-.3-1.72-1.59,0-.43-.85-1.27-1.13-1.2-.55.14-1.42.84-1.37,1.21.19,1.63-.6,1.72-1.85,1.57-1-.12-1.68.5-1.52,1.47.17,1.16-.26,1.36-1.27,1.59-.5.11-1,1-1.16,1.62a1,1,0,0,0,1.23,1.34c.93-.07,1.35.34,1.23,1.3s.47,1.41,1.41,1.33c1.09-.1,1.49.4,1.48,1.45,0,2.38,0,4.77,0,7.15,0,.41-.23,1.1-.47,1.15-1.14.28-1.06,1.1-1,1.94s0,1.56,0,2.34c0,2,0,2-2.13,2-1.24,0-2.49.08-3.73,0-1.46-.09-2,.42-2,2,.08,6.59.07,13.17,0,19.76,0,.72.52,2-.74,2s-.88-1.31-.88-2.08q0-6.45.11-12.9a2.71,2.71,0,0,0-2.12-3c-1.92-.6-3.85-1.19-5.72-1.94a4.51,4.51,0,0,0-3.72,0c-1.71.73-3.5,1.25-5.28,1.82-2.42.79-2.43.78-2.43,3.36,0,4.46,0,8.92,0,13.38a2.14,2.14,0,0,1-.49,1.34,1.11,1.11,0,0,1-1.1-.07,2.62,2.62,0,0,1-.37-1.4q0-10.18,0-20.38c0-1.09-.23-1.9-1.53-1.76-1.65.18-2-.63-1.94-2.11.06-5.65,0-11.3,0-17,0-1.13-.23-2-1.57-2-3.23.08-2.9-.45-3-3.28,0-.73,0-1.45,0-2.18q0-9.25,0-18.51c0-1.09,0-2.1-1.56-2.14-.34,0-.85-.7-1-1.16-1-3.89-2-7.81-3-11.72-1.64-6.51-3.31-13-4.91-19.53-.55-2.25-.93-4.54-1.32-6.83-.14-.82,0-1.55,1.21-1.48.94.07,1.17-.67,1-1.37-.13-.45-.64-1.13-1-1.14-1.14,0-1.23-.61-1.22-1.5,0-2.8,0-5.6,0-8.4,0-1.11-.19-2-1.57-2s-1.72.78-1.7,2c0,2.75,0,5.5,0,8.25,0,.86-.1,1.49-1.2,1.61-.38,0-.85.71-1,1.16-.18.69,0,1.39,1,1.34s1.24.56,1.19,1.4a12.94,12.94,0,0,1-.19,2.16q-2.44,9.85-4.93,19.7-2.08,8.25-4.2,16.48c-.08.32-.25.82-.48.87-1.57.4-1.54,1.6-1.54,2.83,0,7.36,0,14.73.08,22.09,0,1-.18,1.49-1.27,1.35s-1.47.48-1.39,1.5c0,.36,0,.72,0,1.08.14,93.14.08,110.27.36,203.4l142.95,4.21C810.64,285.93,810.74,348.77,810.68,335.6Z"/><path class="cls-5" d="M807.6,333.53q-.18-40.9-.37-81.81-.11-20.53-.25-41.06c-.08-13.89-.18-27.79-.22-41.68q-.1-40.06-.17-80.12V87.08c-2.52-.62-2.59-.82-2.36-3.36.11-1.28-.06-2.58-.06-3.87,0-5.75,0-11.51-.07-17.27a4.42,4.42,0,0,0-.72-1.86c-.32-.6-1-1.08-1.13-1.69-.88-3.24-1.66-6.51-2.49-9.76-1.62-6.36-3.3-12.7-4.86-19.08-.73-3-1.24-6-1.79-8.94-.16-.85,0-1.49,1.2-1.49.34,0,.91-.78.92-1.21s-.52-1.24-.85-1.25c-1.19,0-1.32-.66-1.31-1.62,0-2.75,0-5.5,0-8.25,0-1.1-.15-2-1.54-2s-1.73.84-1.72,2c0,2.69,0,5.39,0,8.09,0,1-.09,1.72-1.38,1.75-.28,0-.73.86-.74,1.33s.51,1.08.82,1.09c1.26.06,1.44.81,1.38,1.79a10.35,10.35,0,0,1-.27,2c-1.55,5.95-3.16,11.88-4.68,17.84s-2.9,11.85-4.41,17.76c-.15.58-.78,1.43-1.22,1.46-1.5.1-1.59.93-1.58,2.1,0,6.94,0,13.89,0,20.84,0,3.13,0,3.13-3.09,3.14-2.44,0-2.51.08-2.5,2.57q0,8.42,0,16.81c0,.71.14,1.7-.92,1.61-2.2-.19-2.14,1.2-2.13,2.68q0,9.72,0,19.45c0,.76.16,1.77-1,1.66-.35,0-.85-1-.86-1.61-.06-4.56,0-9.12-.06-13.68,0-.74-.33-1.91-.84-2.14a34.36,34.36,0,0,0-6.81-2.43c-3.5-.72-6.71.6-9.85,2.06a2.79,2.79,0,0,0-1.8,2.91c.07,4.46.05,8.92,0,13.38,0,.57.39,1.55-.74,1.45-.27,0-.66-.92-.67-1.41,0-6.17,0-12.34,0-18.51,0-4,.22-3.71-3.69-3.7-4.29,0-4.3,0-4.35-4.29,0-.93,0-1.74-1.24-2-.29-.06-.62-.76-.63-1.18-.06-2.43,0-4.87,0-7.31,0-.89.26-1.41,1.24-1.31s1.57-.38,1.63-1.52a1.57,1.57,0,0,1,1.09-1.06c1-.11,1.54-.63,1.35-1.48a2.25,2.25,0,0,0-1.27-1.54c-1-.21-1.32-.56-1.23-1.53S739,82.87,738,83.05c-1.4.25-1.72-.3-1.72-1.58,0-.43-.85-1.27-1.13-1.2-.55.13-1.42.83-1.37,1.2.19,1.63-.6,1.73-1.85,1.58-1-.12-1.68.49-1.53,1.47.18,1.15-.25,1.36-1.26,1.59-.5.11-1,1-1.16,1.61a1,1,0,0,0,1.23,1.35c.93-.07,1.35.34,1.23,1.29s.47,1.42,1.41,1.33,1.49.4,1.48,1.45c0,2.39,0,4.77,0,7.16,0,.4-.23,1.09-.47,1.15-1.14.28-1.06,1.1-1.05,1.94s0,1.55,0,2.33c0,2,0,2-2.13,2.06-1.24,0-2.49.07-3.73,0-1.46-.1-2,.41-2,2,.08,6.58.06,13.17,0,19.75,0,.73.52,2-.74,2s-.88-1.31-.88-2.07q0-6.45.11-12.91a2.71,2.71,0,0,0-2.12-3c-1.92-.6-3.85-1.19-5.72-1.93a4.51,4.51,0,0,0-3.72,0c-1.71.73-3.5,1.25-5.28,1.83-2.42.78-2.43.78-2.43,3.36,0,4.46,0,8.91,0,13.37a2.12,2.12,0,0,1-.49,1.34,1.13,1.13,0,0,1-1.1-.06,2.64,2.64,0,0,1-.37-1.4q0-10.2,0-20.38c0-1.1-.23-1.9-1.53-1.76-1.65.17-2-.63-1.94-2.11.06-5.66,0-11.31,0-17,0-1.14-.23-2-1.57-2-3.23.08-2.9-.45-3-3.28,0-.72,0-1.45,0-2.17q0-9.25,0-18.52c0-1.09,0-2.1-1.56-2.13-.34,0-.85-.7-1-1.16-1-3.9-2-7.81-3-11.72-1.64-6.51-3.32-13-4.91-19.54-.55-2.25-.94-4.54-1.32-6.82-.14-.83,0-1.56,1.21-1.48.94.06,1.17-.68,1-1.37-.12-.46-.63-1.14-1-1.14-1.14,0-1.23-.61-1.22-1.5,0-2.8,0-5.6,0-8.4,0-1.12-.19-1.95-1.57-2s-1.72.77-1.7,2c0,2.75,0,5.49,0,8.24,0,.86-.1,1.49-1.2,1.62-.38,0-.85.7-1,1.16-.18.69,0,1.38,1,1.33s1.24.57,1.18,1.4a11.88,11.88,0,0,1-.18,2.16q-2.44,9.86-4.93,19.7-2.09,8.25-4.2,16.49c-.08.32-.25.81-.48.87-1.57.4-1.54,1.59-1.54,2.83,0,7.36,0,14.72.07,22.09,0,1-.17,1.48-1.26,1.34s-1.47.49-1.39,1.5c0,.36,0,.73,0,1.09.15,93.13.09,110.26.37,203.39l143,4.22C807.56,283.87,807.66,346.7,807.6,333.53Z"/><polygon class="cls-6" points="590.4 131.83 590.67 299.76 736.24 383.5 735.97 215.56 590.4 131.83"/><polygon class="cls-7" points="881.27 131.37 881.54 299.3 736.24 383.5 735.97 215.56 881.27 131.37"/><text class="cls-8" transform="matrix(1.15, -0.58, 0.11, 0.99, 753.06, 337.36)">4</text><path class="cls-9" d="M0,86.21a2.6,2.6,0,0,1,.64-1.57,2,2,0,0,1,1.57-.7l15.29,0a2.6,2.6,0,0,1,1.59.64,2,2,0,0,1,.83,1.62l0,24.45,25.58,0,0-24.45a2.27,2.27,0,0,1,.64-1.6,2.19,2.19,0,0,1,1.67-.67l15,0a3.17,3.17,0,0,1,1.8.51A1.81,1.81,0,0,1,65.42,86l.12,72a2.1,2.1,0,0,1-.67,1.7,2.62,2.62,0,0,1-1.74.56l-15.2,0a2.48,2.48,0,0,1-1.67-.56,2.15,2.15,0,0,1-.64-1.7l0-29.24-25.58,0,0,29.24a2.07,2.07,0,0,1-.69,1.67,2.77,2.77,0,0,1-1.88.6l-15.13,0c-1.44,0-2.18-.66-2.22-2Z"/><path class="cls-9" d="M147.53,156.34a4.72,4.72,0,0,1-.3,1.68,2.6,2.6,0,0,1-1,1.26,2.52,2.52,0,0,1-1.34.72,6.45,6.45,0,0,1-1.34.16H133.38a4.36,4.36,0,0,1-1.75-.28,2.71,2.71,0,0,1-1.08-.79,4.71,4.71,0,0,1-.7-1.26c-.19-.5-.38-1-.59-1.62l-1.5-3.86c-.92.93-1.93,1.92-3,3a28.44,28.44,0,0,1-3.63,2.92,21.82,21.82,0,0,1-4.29,2.24,13.3,13.3,0,0,1-4.94.91,33.33,33.33,0,0,1-9-1.17,33.1,33.1,0,0,1-14.81-8.6,33.68,33.68,0,0,1-8.62-14.91,34.84,34.84,0,0,1-1.2-9.08,33.78,33.78,0,0,1,9.75-24,33.32,33.32,0,0,1,23.76-9.79,17.25,17.25,0,0,1,5.87.94,19.78,19.78,0,0,1,4.87,2.49,24,24,0,0,1,4,3.49,37.65,37.65,0,0,1,3.17,4l2-6.23c.34-.86.62-1.56.85-2.09a3.63,3.63,0,0,1,.72-1.18,1.89,1.89,0,0,1,.95-.52,7.94,7.94,0,0,1,1.59-.13h7.67a7.11,7.11,0,0,1,1.34.15,2.56,2.56,0,0,1,1.34.72,3.34,3.34,0,0,1,1,1.28,4.08,4.08,0,0,1,.31,1.65ZM96.79,127.6A18.6,18.6,0,0,0,97.85,134a15.13,15.13,0,0,0,3,5.12,14.32,14.32,0,0,0,4.71,3.42,14.7,14.7,0,0,0,6.11,1.25,16.32,16.32,0,0,0,6.4-1.27,16.49,16.49,0,0,0,5.15-3.44,15.57,15.57,0,0,0,3.41-5.12A16.66,16.66,0,0,0,123.2,116a16.18,16.18,0,0,0-5.15-3.57,15.61,15.61,0,0,0-6.41-1.31,14.08,14.08,0,0,0-10.81,4.91,16.14,16.14,0,0,0-3,5.26A18.52,18.52,0,0,0,96.79,127.6Z"/><path class="cls-9" d="M201.71,139.94a3.73,3.73,0,0,1,1.36-.65,6.15,6.15,0,0,1,1-.13,3.51,3.51,0,0,1,1.59.36,4.36,4.36,0,0,1,1.5,1.55l5.78,8.69a8.67,8.67,0,0,1,.49.92,2.23,2.23,0,0,1,.23.82,2.66,2.66,0,0,1-.74,1.94,10.68,10.68,0,0,1-1.62,1.31,38.85,38.85,0,0,1-9.23,4.73,32,32,0,0,1-10.63,1.79,33.81,33.81,0,0,1-8.93-1.17,33.09,33.09,0,0,1-8-3.36,34.81,34.81,0,0,1-6.81-5.24,32.45,32.45,0,0,1-5.26-6.81,35.31,35.31,0,0,1-3.38-8.11,33.91,33.91,0,0,1-1.23-9.08,34.41,34.41,0,0,1,4.56-17.22,32.28,32.28,0,0,1,5.24-6.81,33.6,33.6,0,0,1,6.79-5.23,32.94,32.94,0,0,1,8-3.36,33.88,33.88,0,0,1,8.93-1.2,34.77,34.77,0,0,1,10.38,1.48,60.38,60.38,0,0,1,8.78,4.26,5.89,5.89,0,0,1,1.8,1.56,3.63,3.63,0,0,1,.06,4.15l-4.57,7.78q-1.44,2.52-3.49,2.52a3.23,3.23,0,0,1-1.14-.23,6.23,6.23,0,0,1-1.49-.79A23.36,23.36,0,0,0,196.8,112a16.06,16.06,0,0,0-5.53-.94,13.53,13.53,0,0,0-6,1.32,14,14,0,0,0-4.65,3.58,17,17,0,0,0-3,5.26,19,19,0,0,0,0,12.64,15.76,15.76,0,0,0,3,5.11,14.07,14.07,0,0,0,10.64,4.67,14.64,14.64,0,0,0,5.51-1A24.24,24.24,0,0,0,201.71,139.94Z"/><path class="cls-9" d="M223.34,79.17c0-.59,0-1.12,0-1.6a2.26,2.26,0,0,1,.43-1.24,2.57,2.57,0,0,1,1.21-.8,7.72,7.72,0,0,1,2.32-.28l12.3,0a3.54,3.54,0,0,1,1.62.33,3,3,0,0,1,1,.85,2.85,2.85,0,0,1,.52,1.1,5.75,5.75,0,0,1,.13,1.11l.06,38.09,18.5-20.62a4.15,4.15,0,0,1,3.19-1.49l15.8,0c1.89,0,2.83.73,2.83,2.21a2.09,2.09,0,0,1-.17.93,6.67,6.67,0,0,1-.75,1l-21.12,22.37L288,155.25a9.84,9.84,0,0,1,.85,1.36,3.32,3.32,0,0,1,.28,1.26,1.82,1.82,0,0,1-.64,1.62,3.38,3.38,0,0,1-1.93.44l-17.4,0a2.52,2.52,0,0,1-1.65-.66,11.42,11.42,0,0,1-1.7-2L248.9,133.48l-5.7,5.93,0,16.63a6.5,6.5,0,0,1-.12,1.08,4,4,0,0,1-.52,1.31,3.46,3.46,0,0,1-1.05,1.11,3,3,0,0,1-1.75.47l-12.92,0a2.62,2.62,0,0,1-1.6-.49,4,4,0,0,1-1-1.1,5.37,5.37,0,0,1-.57-1.16,3.5,3.5,0,0,1-.18-.64Z"/><path class="cls-9" d="M332.32,84.3a2.8,2.8,0,0,1,1.05-2.4,11.76,11.76,0,0,1,3-1.52l11.68-4.09a2.8,2.8,0,0,1,.48-.05H349a2.71,2.71,0,0,1,2.55,1.1,5.75,5.75,0,0,1,.65,2.91l0,16.22,8.6,0a3.75,3.75,0,0,1,2.68,1,3.83,3.83,0,0,1,1,2.93l0,9.93a4.26,4.26,0,0,1-1,3.17,3.64,3.64,0,0,1-2.67,1h-8.6l.12,41.39a3.77,3.77,0,0,1-1.13,3,4.56,4.56,0,0,1-3.14,1l-11.63,0q-4,0-4-4l-.12-41.39h-3.76c-2.64,0-4-1.38-4-4.16v-9.94c0-2.61,1.31-3.91,4-3.92h3.75Z"/><path class="cls-9" d="M392.36,101.27a20.7,20.7,0,0,1,2.36-2.85A15.77,15.77,0,0,1,398,95.9a18.22,18.22,0,0,1,4.27-1.8,19.52,19.52,0,0,1,5.43-.71A22.9,22.9,0,0,1,426,101.78a27.29,27.29,0,0,1,4.91,9.11A36.44,36.44,0,0,1,432.6,122l0,33.71a4.45,4.45,0,0,1-.85,3,3.33,3.33,0,0,1-2.7,1l-11.89,0a4.62,4.62,0,0,1-3-.74,3.91,3.91,0,0,1-.82-2.91l-.06-34a9.93,9.93,0,0,0-.85-4.12,10.91,10.91,0,0,0-2.3-3.32,10.58,10.58,0,0,0-7.47-3,9.48,9.48,0,0,0-3.63.75,10.35,10.35,0,0,0-3.18,2.12,11.84,11.84,0,0,0-2.37,3.27,11.2,11.2,0,0,0-1.1,4.23l.06,34a4.93,4.93,0,0,1-.33,1.75,2.88,2.88,0,0,1-1,1.34,4.81,4.81,0,0,1-1.27.57,5.49,5.49,0,0,1-1.36.15l-11.63,0a3.61,3.61,0,0,1-4.18-3.95l-.06-41.9v-.37l0-15.31V98l0-19.1a4.05,4.05,0,0,1,1-2.83A4.13,4.13,0,0,1,376.72,75l11.64,0a5.45,5.45,0,0,1,2.62.82,2.77,2.77,0,0,1,1,1.34,4.68,4.68,0,0,1,.34,1.65Z"/><path class="cls-9" d="M499.77,151.78a34.21,34.21,0,0,1-10.19,6.52,30.85,30.85,0,0,1-12,2.36A35,35,0,0,1,453.23,151a34.27,34.27,0,0,1-7.53-10.72,32.4,32.4,0,0,1-2.8-13.43,34.74,34.74,0,0,1,4.22-16.74,33.6,33.6,0,0,1,4.93-6.83,31,31,0,0,1,6.5-5.33,31.82,31.82,0,0,1,7.82-3.46,31.3,31.3,0,0,1,8.91-1.25,30.14,30.14,0,0,1,8.28,1.12,32.51,32.51,0,0,1,7.55,3.17,33.54,33.54,0,0,1,11.52,11.23,30.24,30.24,0,0,1,3.28,7.31,27.61,27.61,0,0,1,1.17,8c0,1.79,0,3.24-.07,4.38a4.94,4.94,0,0,1-.79,2.7,3.89,3.89,0,0,1-2.39,1.39,23.84,23.84,0,0,1-4.92.4l-37.06.05a12.56,12.56,0,0,0,5.73,9,14.35,14.35,0,0,0,4.38,1.87,18.25,18.25,0,0,0,4.37.56,19.4,19.4,0,0,0,3.81-.39,25.64,25.64,0,0,0,3.78-1,22,22,0,0,0,3.35-1.49,11.59,11.59,0,0,0,2.44-1.78,10.57,10.57,0,0,1,1.41-1,2.59,2.59,0,0,1,1.26-.34,2.55,2.55,0,0,1,1.37.46,11.06,11.06,0,0,1,1.57,1.34l5.47,6.17a3.45,3.45,0,0,1,.72,1.21,4.12,4.12,0,0,1,.16,1.1,2.85,2.85,0,0,1-.57,1.78A6.66,6.66,0,0,1,499.77,151.78Zm-24.83-42.84a9.92,9.92,0,0,0-3.89.8,14.74,14.74,0,0,0-3.52,2.14,19.12,19.12,0,0,0-5.08,6.49l26.3,0a30.74,30.74,0,0,0-2.35-3.7,15.7,15.7,0,0,0-2.89-3,12.33,12.33,0,0,0-3.7-2A14.7,14.7,0,0,0,474.94,108.94Z"/><path class="cls-9" d="M3.48,216a2.84,2.84,0,0,1,.72-1.77A2.17,2.17,0,0,1,6,213.39l17.21,0a3,3,0,0,1,1.8.73,2.22,2.22,0,0,1,.93,1.82l0,27.52,28.8,0,0-27.52a2.53,2.53,0,0,1,2.6-2.56l16.93,0a3.6,3.6,0,0,1,2,.58,2.06,2.06,0,0,1,.87,1.85l.13,81.07a2.37,2.37,0,0,1-.75,1.91,2.94,2.94,0,0,1-2,.64l-17.11,0a2.71,2.71,0,0,1-1.88-.64,2.41,2.41,0,0,1-.72-1.91l-.06-32.91L26,264,26,296.86a2.33,2.33,0,0,1-.78,1.88,3.12,3.12,0,0,1-2.11.67l-17,0c-1.62,0-2.46-.75-2.5-2.26Z"/><path class="cls-9" d="M158.36,290.39a39,39,0,0,1-11.46,7.35,35.13,35.13,0,0,1-13.5,2.66A39.47,39.47,0,0,1,106,289.52a38.45,38.45,0,0,1-8.48-12.07,36.49,36.49,0,0,1-3.15-15.12,39.19,39.19,0,0,1,4.75-18.84,37.91,37.91,0,0,1,5.55-7.68,35.11,35.11,0,0,1,7.32-6,35.78,35.78,0,0,1,8.8-3.9,35.32,35.32,0,0,1,10-1.4,33.77,33.77,0,0,1,9.33,1.26,36.07,36.07,0,0,1,8.5,3.57,37.85,37.85,0,0,1,13,12.64,34.83,34.83,0,0,1,3.69,8.23,31.61,31.61,0,0,1,1.32,9c0,2,0,3.66-.08,4.93a5.59,5.59,0,0,1-.9,3,4.32,4.32,0,0,1-2.69,1.57,26.79,26.79,0,0,1-5.53.45l-41.72.06a14.32,14.32,0,0,0,2.36,6.2,14.61,14.61,0,0,0,4.09,4,16.26,16.26,0,0,0,4.93,2.11,20.94,20.94,0,0,0,4.92.63,22.16,22.16,0,0,0,4.29-.44,31.46,31.46,0,0,0,4.26-1.17,23.61,23.61,0,0,0,3.76-1.69,12.54,12.54,0,0,0,2.75-2,12.61,12.61,0,0,1,1.59-1.13,2.85,2.85,0,0,1,1.42-.38,2.78,2.78,0,0,1,1.54.52,12.29,12.29,0,0,1,1.76,1.5l6.16,6.95a3.79,3.79,0,0,1,.81,1.36,4.33,4.33,0,0,1,.18,1.24,3.19,3.19,0,0,1-.64,2A7,7,0,0,1,158.36,290.39Zm-28-48.22a11.07,11.07,0,0,0-4.37.9,17.13,17.13,0,0,0-4,2.41,20.74,20.74,0,0,0-3.32,3.43,20.21,20.21,0,0,0-2.4,3.88l29.61,0a34.16,34.16,0,0,0-2.65-4.17,18.11,18.11,0,0,0-3.24-3.36,14.12,14.12,0,0,0-4.18-2.25A16.57,16.57,0,0,0,130.41,242.17Z"/><path class="cls-9" d="M181.45,200.77a4.68,4.68,0,0,1,1-3.44,4.46,4.46,0,0,1,3.24-1l13.44,0a5,5,0,0,1,3.28,1,4.23,4.23,0,0,1,1.25,3.45l0,11.3a4.23,4.23,0,0,1-.32,1.51,6.45,6.45,0,0,1-.89,1.56,5,5,0,0,1-1.42,1.25,3.74,3.74,0,0,1-1.88.5l-13.45,0q-4.27,0-4.29-4.81Zm.05,29.32a5,5,0,0,1,1-3.18,3.85,3.85,0,0,1,3.24-1.34l13.27,0a4.15,4.15,0,0,1,1.5.31,5,5,0,0,1,1.51.93,5.84,5.84,0,0,1,1.19,1.42,3.46,3.46,0,0,1,.5,1.85l.1,64.6a4.35,4.35,0,0,1-1.21,3.34,4.94,4.94,0,0,1-3.48,1.13l-13.27,0c-2.85,0-4.29-1.48-4.29-4.45Z"/><path class="cls-9" d="M274,296.47a13.91,13.91,0,0,0,.6-4.49c0-1.69,0-3.39,0-5.13-1.12,1.2-2.26,2.46-3.42,3.8a30.68,30.68,0,0,1-3.84,3.71,19.38,19.38,0,0,1-4.78,2.82,16,16,0,0,1-6.2,1.11,38.65,38.65,0,0,1-14.49-2.64,34.66,34.66,0,0,1-11.54-7.43,33.63,33.63,0,0,1-7.61-11.43,38.27,38.27,0,0,1-2.74-14.66,40.15,40.15,0,0,1,2.7-14.86,36.87,36.87,0,0,1,7.57-12.07,35.41,35.41,0,0,1,26-11,18,18,0,0,1,6.46,1.09,22.22,22.22,0,0,1,5.22,2.83,28.42,28.42,0,0,1,4.29,3.91q2,2.16,3.69,4.31l2.19-6.9.63-1.8a4.55,4.55,0,0,1,.76-1.36,2.83,2.83,0,0,1,1.18-.84,5.19,5.19,0,0,1,1.88-.29l8.64,0a7.72,7.72,0,0,1,1.47.17,2.93,2.93,0,0,1,1.48.81,4.48,4.48,0,0,1,1.22,1.39,4,4,0,0,1,.41,1.91l.09,59a41.32,41.32,0,0,1-2.93,16.11,33.78,33.78,0,0,1-20.19,19.39,43.94,43.94,0,0,1-15.06,2.57,45.36,45.36,0,0,1-6.72-.54,49.32,49.32,0,0,1-7.16-1.64,42.08,42.08,0,0,1-6.9-2.8,28.88,28.88,0,0,1-5.89-4,6.13,6.13,0,0,1-1.22-1.22,4.13,4.13,0,0,1-.72-1.56,4.25,4.25,0,0,1,0-1.88,5.78,5.78,0,0,1,.95-2.12l5.49-7.6a4.72,4.72,0,0,1,2.84-1.74,5.31,5.31,0,0,1,3.36,1.39A11.73,11.73,0,0,0,245,305a23.07,23.07,0,0,0,3.88,1.33,25.19,25.19,0,0,0,3.94.63c1.29.09,2.46.14,3.51.14a23.1,23.1,0,0,0,5.44-.71,21.23,21.23,0,0,0,5.3-2.06,17.87,17.87,0,0,0,4.34-3.34A10.47,10.47,0,0,0,274,296.47Zm-33.2-34.37a21.59,21.59,0,0,0,1.2,7.21,17.07,17.07,0,0,0,3.4,5.76,15.7,15.7,0,0,0,5.31,3.82,16.73,16.73,0,0,0,6.87,1.38,18.48,18.48,0,0,0,7-1.32,17.57,17.57,0,0,0,5.7-3.63,18,18,0,0,0,3.9-5.45,17.69,17.69,0,0,0,1.64-6.78v-1.91a17.63,17.63,0,0,0-1.66-6.69,19.23,19.23,0,0,0-3.92-5.56,18.54,18.54,0,0,0-5.71-3.81,17.2,17.2,0,0,0-7-1.41,15.64,15.64,0,0,0-6.86,1.49,16.34,16.34,0,0,0-5.3,4,17.79,17.79,0,0,0-3.38,5.86A21.11,21.11,0,0,0,240.76,262.1Z"/><path class="cls-9" d="M334.76,233.07a23.06,23.06,0,0,1,2.66-3.21,17.61,17.61,0,0,1,3.67-2.83,21,21,0,0,1,4.81-2,21.6,21.6,0,0,1,6.11-.79,25.81,25.81,0,0,1,20.62,9.44,30.93,30.93,0,0,1,5.52,10.25,41,41,0,0,1,1.9,12.54l.06,37.95a5.07,5.07,0,0,1-.95,3.33,3.79,3.79,0,0,1-3,1.14l-13.39,0a5.2,5.2,0,0,1-3.42-.84q-.93-.84-.93-3.27l-.06-38.3a11.19,11.19,0,0,0-1-4.63,12,12,0,0,0-2.59-3.74,12,12,0,0,0-8.4-3.37,10.43,10.43,0,0,0-4.09.84,11.89,11.89,0,0,0-3.59,2.38,13.62,13.62,0,0,0-2.66,3.69,12.49,12.49,0,0,0-1.24,4.75l.07,38.24a5.47,5.47,0,0,1-.38,2,3.08,3.08,0,0,1-1.13,1.51,5.4,5.4,0,0,1-1.41.64,6,6,0,0,1-1.54.18l-13.09,0a4.66,4.66,0,0,1-3.6-1.21,4.72,4.72,0,0,1-1.11-3.25l-.07-47.16v-.41l0-17.23v-.29l0-21.5a4.61,4.61,0,0,1,1.09-3.19,4.66,4.66,0,0,1,3.6-1.22l13.09,0a6.17,6.17,0,0,1,3,.92,3.14,3.14,0,0,1,1.13,1.51,5.23,5.23,0,0,1,.38,1.85Z"/><path class="cls-9" d="M401.25,213.76a3.17,3.17,0,0,1,1.18-2.7,13.25,13.25,0,0,1,3.39-1.71l13.14-4.6a2.8,2.8,0,0,1,.55-.06h.5a3.05,3.05,0,0,1,2.87,1.24,6.6,6.6,0,0,1,.73,3.27l0,18.25h9.67a4.19,4.19,0,0,1,3,1.1,4.34,4.34,0,0,1,1.16,3.3l0,11.18a4.79,4.79,0,0,1-1.15,3.56,4.13,4.13,0,0,1-3,1.14h-9.68l.13,46.59a4.2,4.2,0,0,1-1.27,3.33,5.11,5.11,0,0,1-3.53,1.14l-13.1,0c-3,0-4.46-1.48-4.47-4.46l-.13-46.58H397q-4.45,0-4.47-4.69V231.91c0-2.94,1.48-4.41,4.45-4.41h4.23Z"/><path class="cls-9" d="M460.56,275.84a17.25,17.25,0,0,0,3.39,2.63,25.78,25.78,0,0,0,3.51,1.73,20.61,20.61,0,0,0,3,.95,9.93,9.93,0,0,0,1.74.29c.73,0,1.67,0,2.81-.09a15.09,15.09,0,0,0,3.27-.53,6.75,6.75,0,0,0,2.69-1.42,3.49,3.49,0,0,0,1.13-2.79,4.59,4.59,0,0,0-.64-2.57,5.13,5.13,0,0,0-1.86-1.62,15,15,0,0,0-3-1.19c-1.17-.34-2.5-.75-4-1.21a48.12,48.12,0,0,1-11.48-4.44,25.75,25.75,0,0,1-7.16-5.81,19,19,0,0,1-3.69-6.92,29,29,0,0,1-1.06-7.82,19.83,19.83,0,0,1,1.9-8.75,19.27,19.27,0,0,1,5.44-6.76,25.69,25.69,0,0,1,8.45-4.36,39.64,39.64,0,0,1,17.79-1,27.65,27.65,0,0,1,6.09,1.91,29.76,29.76,0,0,1,5.65,3.35,44.83,44.83,0,0,1,5.48,4.89,3.6,3.6,0,0,1,1,2.17,3,3,0,0,1-1.3,2.17c-1.51,1.24-2.94,2.46-4.31,3.66s-2.79,2.53-4.25,4a3.29,3.29,0,0,1-1.39.73,2.75,2.75,0,0,1-1.34,0,3.72,3.72,0,0,1-1.21-.57,4.91,4.91,0,0,1-1.05-1,10.09,10.09,0,0,0-4.64-3,17,17,0,0,0-4.87-.78,9,9,0,0,0-4.51,1,3,3,0,0,0-1.56,3,3.18,3.18,0,0,0,1.13,2.35,8,8,0,0,0,2.49,1.35,21.41,21.41,0,0,0,3.13.84c1.1.21,2.12.45,3,.72a90.85,90.85,0,0,1,9.56,3.63,29.18,29.18,0,0,1,7.54,4.83,20,20,0,0,1,5,6.86,24.13,24.13,0,0,1,1.78,9.73A22.5,22.5,0,0,1,502,286.26a21.93,21.93,0,0,1-6.28,7.6,28.84,28.84,0,0,1-9.46,4.71,41.73,41.73,0,0,1-11.79,1.64,43.46,43.46,0,0,1-7.3-.63,34.33,34.33,0,0,1-7.19-2,32.83,32.83,0,0,1-6.61-3.64,25.93,25.93,0,0,1-5.57-5.41,5.83,5.83,0,0,1-1-1.71,4.65,4.65,0,0,1-.3-1.77,4.3,4.3,0,0,1,.35-1.59,3.17,3.17,0,0,1,1-1.25l7.46-7.48a2.65,2.65,0,0,1,2.47-.82A8.24,8.24,0,0,1,460.56,275.84Z"/><path class="cls-10" d="M11,94.21a2.6,2.6,0,0,1,.64-1.57,2,2,0,0,1,1.57-.7l15.29,0a2.6,2.6,0,0,1,1.59.64,2,2,0,0,1,.83,1.62l0,24.45,25.58,0,0-24.45a2.27,2.27,0,0,1,.64-1.6,2.19,2.19,0,0,1,1.67-.67l15,0a3.17,3.17,0,0,1,1.8.51A1.81,1.81,0,0,1,76.42,94l.12,72a2.1,2.1,0,0,1-.67,1.7,2.62,2.62,0,0,1-1.74.56l-15.2,0a2.48,2.48,0,0,1-1.67-.56,2.15,2.15,0,0,1-.64-1.7l0-29.24-25.58,0,0,29.24a2.07,2.07,0,0,1-.69,1.67,2.77,2.77,0,0,1-1.88.6l-15.13,0c-1.44,0-2.18-.66-2.22-2Z"/><path class="cls-10" d="M158.53,164.34a4.72,4.72,0,0,1-.3,1.68,2.6,2.6,0,0,1-1,1.26,2.52,2.52,0,0,1-1.34.72,6.45,6.45,0,0,1-1.34.16H144.38a4.36,4.36,0,0,1-1.75-.28,2.71,2.71,0,0,1-1.08-.79,4.71,4.71,0,0,1-.7-1.26c-.19-.5-.38-1-.59-1.62l-1.5-3.86c-.92.93-1.93,1.92-3,3a28.44,28.44,0,0,1-3.63,2.92,21.82,21.82,0,0,1-4.29,2.24,13.3,13.3,0,0,1-4.94.91,33.33,33.33,0,0,1-9-1.17,33.1,33.1,0,0,1-14.81-8.6,33.68,33.68,0,0,1-8.62-14.91,34.84,34.84,0,0,1-1.2-9.08,33.78,33.78,0,0,1,9.75-24,33.32,33.32,0,0,1,23.76-9.79,17.25,17.25,0,0,1,5.87.94,19.78,19.78,0,0,1,4.87,2.49,24,24,0,0,1,4,3.49,37.65,37.65,0,0,1,3.17,4l2-6.23c.34-.86.62-1.56.85-2.09a3.63,3.63,0,0,1,.72-1.18,1.89,1.89,0,0,1,.95-.52,7.94,7.94,0,0,1,1.59-.13h7.67a7.11,7.11,0,0,1,1.34.15,2.56,2.56,0,0,1,1.34.72,3.34,3.34,0,0,1,1,1.28,4.08,4.08,0,0,1,.31,1.65ZM107.79,135.6a18.6,18.6,0,0,0,1.06,6.35,15.13,15.13,0,0,0,3,5.12,14.32,14.32,0,0,0,4.71,3.42,14.7,14.7,0,0,0,6.11,1.25,16.32,16.32,0,0,0,6.4-1.27,16.49,16.49,0,0,0,5.15-3.44,15.57,15.57,0,0,0,3.41-5.12A16.66,16.66,0,0,0,134.2,124a16.18,16.18,0,0,0-5.15-3.57,15.61,15.61,0,0,0-6.41-1.31,14.08,14.08,0,0,0-10.81,4.91,16.14,16.14,0,0,0-3,5.26A18.52,18.52,0,0,0,107.79,135.6Z"/><path class="cls-10" d="M212.71,147.94a3.73,3.73,0,0,1,1.36-.65,6.15,6.15,0,0,1,1-.13,3.51,3.51,0,0,1,1.59.36,4.36,4.36,0,0,1,1.5,1.55l5.78,8.69a8.67,8.67,0,0,1,.49.92,2.23,2.23,0,0,1,.23.82,2.66,2.66,0,0,1-.74,1.94,10.68,10.68,0,0,1-1.62,1.31,38.85,38.85,0,0,1-9.23,4.73,32,32,0,0,1-10.63,1.79,33.81,33.81,0,0,1-8.93-1.17,33.09,33.09,0,0,1-8-3.36,34.81,34.81,0,0,1-6.81-5.24,32.45,32.45,0,0,1-5.26-6.81,35.31,35.31,0,0,1-3.38-8.11,33.91,33.91,0,0,1-1.23-9.08,34.41,34.41,0,0,1,4.56-17.22,32.28,32.28,0,0,1,5.24-6.81,33.6,33.6,0,0,1,6.79-5.23,32.94,32.94,0,0,1,8-3.36,33.88,33.88,0,0,1,8.93-1.2,34.77,34.77,0,0,1,10.38,1.48,60.38,60.38,0,0,1,8.78,4.26,5.89,5.89,0,0,1,1.8,1.56,3.63,3.63,0,0,1,.06,4.15l-4.57,7.78q-1.44,2.52-3.49,2.52a3.23,3.23,0,0,1-1.14-.23,6.23,6.23,0,0,1-1.49-.79A23.36,23.36,0,0,0,207.8,120a16.06,16.06,0,0,0-5.53-.94,13.53,13.53,0,0,0-6,1.32,14,14,0,0,0-4.65,3.58,17,17,0,0,0-3,5.26,19,19,0,0,0,0,12.64,15.76,15.76,0,0,0,3,5.11,14.07,14.07,0,0,0,10.64,4.67,14.64,14.64,0,0,0,5.51-1A24.24,24.24,0,0,0,212.71,147.94Z"/><path class="cls-10" d="M234.34,87.17c0-.59,0-1.12,0-1.6a2.26,2.26,0,0,1,.43-1.24,2.57,2.57,0,0,1,1.21-.8,7.72,7.72,0,0,1,2.32-.28l12.3,0a3.54,3.54,0,0,1,1.62.33,3,3,0,0,1,1,.85,2.85,2.85,0,0,1,.52,1.1,5.75,5.75,0,0,1,.13,1.11l.06,38.09,18.5-20.62a4.15,4.15,0,0,1,3.19-1.49l15.8,0c1.89,0,2.83.73,2.83,2.21a2.09,2.09,0,0,1-.17.93,6.67,6.67,0,0,1-.75,1l-21.12,22.37L299,163.25a9.84,9.84,0,0,1,.85,1.36,3.32,3.32,0,0,1,.28,1.26,1.82,1.82,0,0,1-.64,1.62,3.38,3.38,0,0,1-1.93.44l-17.4,0a2.52,2.52,0,0,1-1.65-.66,11.42,11.42,0,0,1-1.7-2L259.9,141.48l-5.7,5.93,0,16.63a6.5,6.5,0,0,1-.12,1.08,4,4,0,0,1-.52,1.31,3.46,3.46,0,0,1-1.05,1.11,3,3,0,0,1-1.75.47l-12.92,0a2.62,2.62,0,0,1-1.6-.49,4,4,0,0,1-1-1.1,5.37,5.37,0,0,1-.57-1.16,3.5,3.5,0,0,1-.18-.64Z"/><path class="cls-10" d="M343.32,92.3a2.8,2.8,0,0,1,1.05-2.4,11.76,11.76,0,0,1,3-1.52l11.68-4.09a2.8,2.8,0,0,1,.48-.05H360a2.71,2.71,0,0,1,2.55,1.1,5.75,5.75,0,0,1,.65,2.91l0,16.22,8.6,0a3.75,3.75,0,0,1,2.68,1,3.83,3.83,0,0,1,1,2.93l0,9.93a4.26,4.26,0,0,1-1,3.17,3.64,3.64,0,0,1-2.67,1h-8.6l.12,41.39a3.77,3.77,0,0,1-1.13,3,4.56,4.56,0,0,1-3.14,1l-11.63,0q-4,0-4-4l-.12-41.39h-3.76c-2.64,0-4-1.38-4-4.16v-9.94c0-2.61,1.31-3.91,4-3.92h3.75Z"/><path class="cls-10" d="M403.36,109.27a20.7,20.7,0,0,1,2.36-2.85A15.77,15.77,0,0,1,409,103.9a18.22,18.22,0,0,1,4.27-1.8,19.52,19.52,0,0,1,5.43-.71A22.9,22.9,0,0,1,437,109.78a27.29,27.29,0,0,1,4.91,9.11A36.44,36.44,0,0,1,443.6,130l0,33.71a4.45,4.45,0,0,1-.85,3,3.33,3.33,0,0,1-2.7,1l-11.89,0a4.62,4.62,0,0,1-3-.74,3.91,3.91,0,0,1-.82-2.91l-.06-34a9.93,9.93,0,0,0-.85-4.12,10.91,10.91,0,0,0-2.3-3.32,10.58,10.58,0,0,0-7.47-3,9.48,9.48,0,0,0-3.63.75,10.35,10.35,0,0,0-3.18,2.12,11.84,11.84,0,0,0-2.37,3.27,11.2,11.2,0,0,0-1.1,4.23l.06,34a4.93,4.93,0,0,1-.33,1.75,2.88,2.88,0,0,1-1,1.34,4.81,4.81,0,0,1-1.27.57,5.49,5.49,0,0,1-1.36.15l-11.63,0a3.61,3.61,0,0,1-4.18-3.95l-.06-41.9v-.37l0-15.31V106l0-19.1a4.05,4.05,0,0,1,1-2.83A4.13,4.13,0,0,1,387.72,83l11.64,0a5.45,5.45,0,0,1,2.62.82,2.77,2.77,0,0,1,1,1.34,4.68,4.68,0,0,1,.34,1.65Z"/><path class="cls-10" d="M510.77,159.78a34.21,34.21,0,0,1-10.19,6.52,30.85,30.85,0,0,1-12,2.36A35,35,0,0,1,464.23,159a34.27,34.27,0,0,1-7.53-10.72,32.4,32.4,0,0,1-2.8-13.43,34.74,34.74,0,0,1,4.22-16.74,33.6,33.6,0,0,1,4.93-6.83,31,31,0,0,1,6.5-5.33,31.82,31.82,0,0,1,7.82-3.46,31.3,31.3,0,0,1,8.91-1.25,30.14,30.14,0,0,1,8.28,1.12,32.51,32.51,0,0,1,7.55,3.17,33.54,33.54,0,0,1,11.52,11.23,30.24,30.24,0,0,1,3.28,7.31,27.61,27.61,0,0,1,1.17,8c0,1.79,0,3.24-.07,4.38a4.94,4.94,0,0,1-.79,2.7,3.89,3.89,0,0,1-2.39,1.39,23.84,23.84,0,0,1-4.92.4l-37.06.05a12.56,12.56,0,0,0,5.73,9,14.35,14.35,0,0,0,4.38,1.87,18.25,18.25,0,0,0,4.37.56,19.4,19.4,0,0,0,3.81-.39,25.64,25.64,0,0,0,3.78-1,22,22,0,0,0,3.35-1.49,11.59,11.59,0,0,0,2.44-1.78,10.57,10.57,0,0,1,1.41-1,2.59,2.59,0,0,1,1.26-.34,2.55,2.55,0,0,1,1.37.46,11.06,11.06,0,0,1,1.57,1.34l5.47,6.17a3.45,3.45,0,0,1,.72,1.21,4.12,4.12,0,0,1,.16,1.1,2.85,2.85,0,0,1-.57,1.78A6.66,6.66,0,0,1,510.77,159.78Zm-24.83-42.84a9.92,9.92,0,0,0-3.89.8,14.74,14.74,0,0,0-3.52,2.14,19.12,19.12,0,0,0-5.08,6.49l26.3,0a30.74,30.74,0,0,0-2.35-3.7,15.7,15.7,0,0,0-2.89-3,12.33,12.33,0,0,0-3.7-2A14.7,14.7,0,0,0,485.94,116.94Z"/><path class="cls-10" d="M14.48,224a2.84,2.84,0,0,1,.72-1.77,2.17,2.17,0,0,1,1.76-.79l17.21,0a3,3,0,0,1,1.8.73,2.22,2.22,0,0,1,.93,1.82l0,27.52,28.8,0,0-27.52a2.53,2.53,0,0,1,2.6-2.56l16.93,0a3.6,3.6,0,0,1,2,.58,2.06,2.06,0,0,1,.87,1.85l.13,81.07a2.37,2.37,0,0,1-.75,1.91,2.94,2.94,0,0,1-2,.64l-17.11,0a2.71,2.71,0,0,1-1.88-.64,2.41,2.41,0,0,1-.72-1.91l-.06-32.91L37,272,37,304.86a2.33,2.33,0,0,1-.78,1.88,3.12,3.12,0,0,1-2.11.67l-17,0c-1.62,0-2.46-.75-2.5-2.26Z"/><path class="cls-10" d="M169.36,298.39a39,39,0,0,1-11.46,7.35,35.13,35.13,0,0,1-13.5,2.66A39.47,39.47,0,0,1,117,297.52a38.45,38.45,0,0,1-8.48-12.07,36.49,36.49,0,0,1-3.15-15.12,39.19,39.19,0,0,1,4.75-18.84,37.91,37.91,0,0,1,5.55-7.68,35.11,35.11,0,0,1,7.32-6,35.78,35.78,0,0,1,8.8-3.9,35.32,35.32,0,0,1,10-1.4,33.77,33.77,0,0,1,9.33,1.26,36.07,36.07,0,0,1,8.5,3.57,37.85,37.85,0,0,1,13,12.64,34.83,34.83,0,0,1,3.69,8.23,31.61,31.61,0,0,1,1.32,9c0,2,0,3.66-.08,4.93a5.59,5.59,0,0,1-.9,3,4.32,4.32,0,0,1-2.69,1.57,26.79,26.79,0,0,1-5.53.45l-41.72.06a14.32,14.32,0,0,0,2.36,6.2,14.61,14.61,0,0,0,4.09,4,16.26,16.26,0,0,0,4.93,2.11,20.94,20.94,0,0,0,4.92.63,22.16,22.16,0,0,0,4.29-.44,31.46,31.46,0,0,0,4.26-1.17,23.61,23.61,0,0,0,3.76-1.69,12.54,12.54,0,0,0,2.75-2,12.61,12.61,0,0,1,1.59-1.13,2.85,2.85,0,0,1,1.42-.38,2.78,2.78,0,0,1,1.54.52,12.29,12.29,0,0,1,1.76,1.5l6.16,6.95a3.79,3.79,0,0,1,.81,1.36,4.33,4.33,0,0,1,.18,1.24,3.19,3.19,0,0,1-.64,2A7,7,0,0,1,169.36,298.39Zm-28-48.22a11.07,11.07,0,0,0-4.37.9,17.13,17.13,0,0,0-4,2.41,20.74,20.74,0,0,0-3.32,3.43,20.21,20.21,0,0,0-2.4,3.88l29.61,0a34.16,34.16,0,0,0-2.65-4.17,18.11,18.11,0,0,0-3.24-3.36,14.12,14.12,0,0,0-4.18-2.25A16.57,16.57,0,0,0,141.41,250.17Z"/><path class="cls-10" d="M192.45,208.77a4.68,4.68,0,0,1,1-3.44,4.46,4.46,0,0,1,3.24-1l13.44,0a5,5,0,0,1,3.28,1,4.23,4.23,0,0,1,1.25,3.45l0,11.3a4.23,4.23,0,0,1-.32,1.51,6.45,6.45,0,0,1-.89,1.56,5,5,0,0,1-1.42,1.25,3.74,3.74,0,0,1-1.88.5l-13.45,0q-4.27,0-4.29-4.81Zm.05,29.32a5,5,0,0,1,1-3.18,3.85,3.85,0,0,1,3.24-1.34l13.27,0a4.15,4.15,0,0,1,1.5.31,5,5,0,0,1,1.51.93,5.84,5.84,0,0,1,1.19,1.42,3.46,3.46,0,0,1,.5,1.85l.1,64.6a4.35,4.35,0,0,1-1.21,3.34,4.94,4.94,0,0,1-3.48,1.13l-13.27,0c-2.85,0-4.29-1.48-4.29-4.45Z"/><path class="cls-10" d="M285,304.47a13.91,13.91,0,0,0,.6-4.49c0-1.69,0-3.39,0-5.13-1.12,1.2-2.26,2.46-3.42,3.8a30.68,30.68,0,0,1-3.84,3.71,19.38,19.38,0,0,1-4.78,2.82,16,16,0,0,1-6.2,1.11,38.65,38.65,0,0,1-14.49-2.64,34.66,34.66,0,0,1-11.54-7.43,33.63,33.63,0,0,1-7.61-11.43,38.27,38.27,0,0,1-2.74-14.66,40.15,40.15,0,0,1,2.7-14.86,36.87,36.87,0,0,1,7.57-12.07,35.41,35.41,0,0,1,26-11,18,18,0,0,1,6.46,1.09,22.22,22.22,0,0,1,5.22,2.83,28.42,28.42,0,0,1,4.29,3.91q2,2.16,3.69,4.31l2.19-6.9.63-1.8a4.55,4.55,0,0,1,.76-1.36,2.83,2.83,0,0,1,1.18-.84,5.19,5.19,0,0,1,1.88-.29l8.64,0a7.72,7.72,0,0,1,1.47.17,2.93,2.93,0,0,1,1.48.81,4.48,4.48,0,0,1,1.22,1.39,4,4,0,0,1,.41,1.91l.09,59a41.32,41.32,0,0,1-2.93,16.11,33.78,33.78,0,0,1-20.19,19.39,43.94,43.94,0,0,1-15.06,2.57,45.36,45.36,0,0,1-6.72-.54,49.32,49.32,0,0,1-7.16-1.64,42.08,42.08,0,0,1-6.9-2.8,28.88,28.88,0,0,1-5.89-4,6.13,6.13,0,0,1-1.22-1.22,4.13,4.13,0,0,1-.72-1.56,4.25,4.25,0,0,1,0-1.88,5.78,5.78,0,0,1,.95-2.12l5.49-7.6a4.72,4.72,0,0,1,2.84-1.74,5.31,5.31,0,0,1,3.36,1.39A11.73,11.73,0,0,0,256,313a23.07,23.07,0,0,0,3.88,1.33,25.19,25.19,0,0,0,3.94.63c1.29.09,2.46.14,3.51.14a23.1,23.1,0,0,0,5.44-.71,21.23,21.23,0,0,0,5.3-2.06,17.87,17.87,0,0,0,4.34-3.34A10.47,10.47,0,0,0,285,304.47Zm-33.2-34.37a21.59,21.59,0,0,0,1.2,7.21,17.07,17.07,0,0,0,3.4,5.76,15.7,15.7,0,0,0,5.31,3.82,16.73,16.73,0,0,0,6.87,1.38,18.48,18.48,0,0,0,7-1.32,17.57,17.57,0,0,0,5.7-3.63,18,18,0,0,0,3.9-5.45,17.69,17.69,0,0,0,1.64-6.78v-1.91a17.63,17.63,0,0,0-1.66-6.69,19.23,19.23,0,0,0-3.92-5.56,18.54,18.54,0,0,0-5.71-3.81,17.2,17.2,0,0,0-7-1.41,15.64,15.64,0,0,0-6.86,1.49,16.34,16.34,0,0,0-5.3,4,17.79,17.79,0,0,0-3.38,5.86A21.11,21.11,0,0,0,251.76,270.1Z"/><path class="cls-10" d="M345.76,241.07a23.06,23.06,0,0,1,2.66-3.21,17.61,17.61,0,0,1,3.67-2.83,21,21,0,0,1,4.81-2,21.6,21.6,0,0,1,6.11-.79,25.81,25.81,0,0,1,20.62,9.44,30.93,30.93,0,0,1,5.52,10.25,41,41,0,0,1,1.9,12.54l.06,37.95a5.07,5.07,0,0,1-.95,3.33,3.79,3.79,0,0,1-3,1.14l-13.39,0a5.2,5.2,0,0,1-3.42-.84q-.93-.84-.93-3.27l-.06-38.3a11.19,11.19,0,0,0-1-4.63,12,12,0,0,0-2.59-3.74,12,12,0,0,0-8.4-3.37,10.43,10.43,0,0,0-4.09.84,11.89,11.89,0,0,0-3.59,2.38,13.62,13.62,0,0,0-2.66,3.69,12.49,12.49,0,0,0-1.24,4.75l.07,38.24a5.47,5.47,0,0,1-.38,2,3.08,3.08,0,0,1-1.13,1.51,5.4,5.4,0,0,1-1.41.64,6,6,0,0,1-1.54.18l-13.09,0a4.66,4.66,0,0,1-3.6-1.21,4.72,4.72,0,0,1-1.11-3.25l-.07-47.16v-.41l0-17.23v-.29l0-21.5a4.61,4.61,0,0,1,1.09-3.19,4.66,4.66,0,0,1,3.6-1.22l13.09,0a6.17,6.17,0,0,1,3,.92,3.14,3.14,0,0,1,1.13,1.51,5.23,5.23,0,0,1,.38,1.85Z"/><path class="cls-10" d="M412.25,221.76a3.17,3.17,0,0,1,1.18-2.7,13.25,13.25,0,0,1,3.39-1.71l13.14-4.6a2.8,2.8,0,0,1,.55-.06h.5a3.05,3.05,0,0,1,2.87,1.24,6.6,6.6,0,0,1,.73,3.27l0,18.25h9.67a4.19,4.19,0,0,1,3,1.1,4.34,4.34,0,0,1,1.16,3.3l0,11.18a4.79,4.79,0,0,1-1.15,3.56,4.13,4.13,0,0,1-3,1.14h-9.68l.13,46.59a4.2,4.2,0,0,1-1.27,3.33,5.11,5.11,0,0,1-3.53,1.14l-13.1,0c-3,0-4.46-1.48-4.47-4.46l-.13-46.58H408q-4.45,0-4.47-4.69V239.91c0-2.94,1.48-4.41,4.45-4.41h4.23Z"/><path class="cls-10" d="M471.56,283.84a17.25,17.25,0,0,0,3.39,2.63,25.78,25.78,0,0,0,3.51,1.73,20.61,20.61,0,0,0,3,.95,9.93,9.93,0,0,0,1.74.29c.73,0,1.67,0,2.81-.09a15.09,15.09,0,0,0,3.27-.53,6.75,6.75,0,0,0,2.69-1.42,3.49,3.49,0,0,0,1.13-2.79,4.59,4.59,0,0,0-.64-2.57,5.13,5.13,0,0,0-1.86-1.62,15,15,0,0,0-3-1.19c-1.17-.34-2.5-.75-4-1.21a48.12,48.12,0,0,1-11.48-4.44,25.75,25.75,0,0,1-7.16-5.81,19,19,0,0,1-3.69-6.92,29,29,0,0,1-1.06-7.82,19.83,19.83,0,0,1,1.9-8.75,19.27,19.27,0,0,1,5.44-6.76,25.69,25.69,0,0,1,8.45-4.36,39.64,39.64,0,0,1,17.79-1,27.65,27.65,0,0,1,6.09,1.91,29.76,29.76,0,0,1,5.65,3.35,44.83,44.83,0,0,1,5.48,4.89,3.6,3.6,0,0,1,1,2.17,3,3,0,0,1-1.3,2.17c-1.51,1.24-2.94,2.46-4.31,3.66s-2.79,2.53-4.25,4a3.29,3.29,0,0,1-1.39.73,2.75,2.75,0,0,1-1.34,0,3.72,3.72,0,0,1-1.21-.57,4.91,4.91,0,0,1-1.05-1,10.09,10.09,0,0,0-4.64-3,17,17,0,0,0-4.87-.78,9,9,0,0,0-4.51,1,3,3,0,0,0-1.56,3,3.18,3.18,0,0,0,1.13,2.35,8,8,0,0,0,2.49,1.35,21.41,21.41,0,0,0,3.13.84c1.1.21,2.12.45,3,.72a90.85,90.85,0,0,1,9.56,3.63,29.18,29.18,0,0,1,7.54,4.83,20,20,0,0,1,5,6.86,24.13,24.13,0,0,1,1.78,9.73A22.5,22.5,0,0,1,513,294.26a21.93,21.93,0,0,1-6.28,7.6,28.84,28.84,0,0,1-9.46,4.71,41.73,41.73,0,0,1-11.79,1.64,43.46,43.46,0,0,1-7.3-.63,34.33,34.33,0,0,1-7.19-2,32.83,32.83,0,0,1-6.61-3.64,25.93,25.93,0,0,1-5.57-5.41,5.83,5.83,0,0,1-1-1.71,4.65,4.65,0,0,1-.3-1.77,4.3,4.3,0,0,1,.35-1.59,3.17,3.17,0,0,1,1-1.25l7.46-7.48a2.65,2.65,0,0,1,2.47-.82A8.24,8.24,0,0,1,471.56,283.84Z"/><path class="cls-5" d="M5,91.21a2.6,2.6,0,0,1,.64-1.57,2,2,0,0,1,1.57-.7l15.29,0a2.6,2.6,0,0,1,1.59.64,2,2,0,0,1,.83,1.62l0,24.45,25.58,0,0-24.45a2.27,2.27,0,0,1,.64-1.6,2.19,2.19,0,0,1,1.67-.67l15,0a3.17,3.17,0,0,1,1.8.51A1.81,1.81,0,0,1,70.42,91l.12,72a2.1,2.1,0,0,1-.67,1.7,2.62,2.62,0,0,1-1.74.56l-15.2,0a2.48,2.48,0,0,1-1.67-.56,2.15,2.15,0,0,1-.64-1.7l0-29.24-25.58,0,0,29.24a2.07,2.07,0,0,1-.69,1.67,2.77,2.77,0,0,1-1.88.6l-15.13,0c-1.44,0-2.18-.66-2.22-2Z"/><path class="cls-5" d="M152.53,161.34a4.72,4.72,0,0,1-.3,1.68,2.6,2.6,0,0,1-1,1.26,2.52,2.52,0,0,1-1.34.72,6.45,6.45,0,0,1-1.34.16H138.38a4.36,4.36,0,0,1-1.75-.28,2.71,2.71,0,0,1-1.08-.79,4.71,4.71,0,0,1-.7-1.26c-.19-.5-.38-1-.59-1.62l-1.5-3.86c-.92.93-1.93,1.92-3,3a28.44,28.44,0,0,1-3.63,2.92,21.82,21.82,0,0,1-4.29,2.24,13.3,13.3,0,0,1-4.94.91,33.33,33.33,0,0,1-9-1.17,33.1,33.1,0,0,1-14.81-8.6,33.68,33.68,0,0,1-8.62-14.91,34.84,34.84,0,0,1-1.2-9.08,33.78,33.78,0,0,1,9.75-24,33.32,33.32,0,0,1,23.76-9.79,17.25,17.25,0,0,1,5.87.94,19.78,19.78,0,0,1,4.87,2.49,24,24,0,0,1,4,3.49,37.65,37.65,0,0,1,3.17,4l2-6.23c.34-.86.62-1.56.85-2.09a3.63,3.63,0,0,1,.72-1.18,1.89,1.89,0,0,1,.95-.52,7.94,7.94,0,0,1,1.59-.13h7.67a7.11,7.11,0,0,1,1.34.15,2.56,2.56,0,0,1,1.34.72,3.34,3.34,0,0,1,1,1.28,4.08,4.08,0,0,1,.31,1.65ZM101.79,132.6a18.6,18.6,0,0,0,1.06,6.35,15.13,15.13,0,0,0,3,5.12,14.32,14.32,0,0,0,4.71,3.42,14.7,14.7,0,0,0,6.11,1.25,16.32,16.32,0,0,0,6.4-1.27,16.49,16.49,0,0,0,5.15-3.44,15.57,15.57,0,0,0,3.41-5.12A16.66,16.66,0,0,0,128.2,121a16.18,16.18,0,0,0-5.15-3.57,15.61,15.61,0,0,0-6.41-1.31,14.08,14.08,0,0,0-10.81,4.91,16.14,16.14,0,0,0-3,5.26A18.52,18.52,0,0,0,101.79,132.6Z"/><path class="cls-5" d="M206.71,144.94a3.73,3.73,0,0,1,1.36-.65,6.15,6.15,0,0,1,1-.13,3.51,3.51,0,0,1,1.59.36,4.36,4.36,0,0,1,1.5,1.55l5.78,8.69a8.67,8.67,0,0,1,.49.92,2.23,2.23,0,0,1,.23.82,2.66,2.66,0,0,1-.74,1.94,10.68,10.68,0,0,1-1.62,1.31,38.85,38.85,0,0,1-9.23,4.73,32,32,0,0,1-10.63,1.79,33.81,33.81,0,0,1-8.93-1.17,33.09,33.09,0,0,1-8-3.36,34.81,34.81,0,0,1-6.81-5.24,32.45,32.45,0,0,1-5.26-6.81,35.31,35.31,0,0,1-3.38-8.11,33.91,33.91,0,0,1-1.23-9.08,34.41,34.41,0,0,1,4.56-17.22,32.28,32.28,0,0,1,5.24-6.81,33.6,33.6,0,0,1,6.79-5.23,32.94,32.94,0,0,1,8-3.36,33.88,33.88,0,0,1,8.93-1.2,34.77,34.77,0,0,1,10.38,1.48,60.38,60.38,0,0,1,8.78,4.26,5.89,5.89,0,0,1,1.8,1.56,3.63,3.63,0,0,1,.06,4.15l-4.57,7.78q-1.44,2.52-3.49,2.52a3.23,3.23,0,0,1-1.14-.23,6.23,6.23,0,0,1-1.49-.79A23.36,23.36,0,0,0,201.8,117a16.06,16.06,0,0,0-5.53-.94,13.53,13.53,0,0,0-6,1.32,14,14,0,0,0-4.65,3.58,17,17,0,0,0-3,5.26,19,19,0,0,0,0,12.64,15.76,15.76,0,0,0,3,5.11,14.07,14.07,0,0,0,10.64,4.67,14.64,14.64,0,0,0,5.51-1A24.24,24.24,0,0,0,206.71,144.94Z"/><path class="cls-5" d="M228.34,84.17c0-.59,0-1.12,0-1.6a2.26,2.26,0,0,1,.43-1.24,2.57,2.57,0,0,1,1.21-.8,7.72,7.72,0,0,1,2.32-.28l12.3,0a3.54,3.54,0,0,1,1.62.33,3,3,0,0,1,1,.85,2.85,2.85,0,0,1,.52,1.1,5.75,5.75,0,0,1,.13,1.11l.06,38.09,18.5-20.62a4.15,4.15,0,0,1,3.19-1.49l15.8,0c1.89,0,2.83.73,2.83,2.21a2.09,2.09,0,0,1-.17.93,6.67,6.67,0,0,1-.75,1l-21.12,22.37L293,160.25a9.84,9.84,0,0,1,.85,1.36,3.32,3.32,0,0,1,.28,1.26,1.82,1.82,0,0,1-.64,1.62,3.38,3.38,0,0,1-1.93.44l-17.4,0a2.52,2.52,0,0,1-1.65-.66,11.42,11.42,0,0,1-1.7-2L253.9,138.48l-5.7,5.93,0,16.63a6.5,6.5,0,0,1-.12,1.08,4,4,0,0,1-.52,1.31,3.46,3.46,0,0,1-1.05,1.11,3,3,0,0,1-1.75.47l-12.92,0a2.62,2.62,0,0,1-1.6-.49,4,4,0,0,1-1-1.1,5.37,5.37,0,0,1-.57-1.16,3.5,3.5,0,0,1-.18-.64Z"/><path class="cls-5" d="M337.32,89.3a2.8,2.8,0,0,1,1.05-2.4,11.76,11.76,0,0,1,3-1.52l11.68-4.09a2.8,2.8,0,0,1,.48-.05H354a2.71,2.71,0,0,1,2.55,1.1,5.75,5.75,0,0,1,.65,2.91l0,16.22,8.6,0a3.75,3.75,0,0,1,2.68,1,3.83,3.83,0,0,1,1,2.93l0,9.93a4.26,4.26,0,0,1-1,3.17,3.64,3.64,0,0,1-2.67,1h-8.6l.12,41.39a3.77,3.77,0,0,1-1.13,3,4.56,4.56,0,0,1-3.14,1l-11.63,0q-4,0-4-4l-.12-41.39h-3.76c-2.64,0-4-1.38-4-4.16v-9.94c0-2.61,1.31-3.91,4-3.92h3.75Z"/><path class="cls-5" d="M397.36,106.27a20.7,20.7,0,0,1,2.36-2.85A15.77,15.77,0,0,1,403,100.9a18.22,18.22,0,0,1,4.27-1.8,19.52,19.52,0,0,1,5.43-.71A22.9,22.9,0,0,1,431,106.78a27.29,27.29,0,0,1,4.91,9.11A36.44,36.44,0,0,1,437.6,127l0,33.71a4.45,4.45,0,0,1-.85,3,3.33,3.33,0,0,1-2.7,1l-11.89,0a4.62,4.62,0,0,1-3-.74,3.91,3.91,0,0,1-.82-2.91l-.06-34a9.93,9.93,0,0,0-.85-4.12,10.91,10.91,0,0,0-2.3-3.32,10.58,10.58,0,0,0-7.47-3,9.48,9.48,0,0,0-3.63.75,10.35,10.35,0,0,0-3.18,2.12,11.84,11.84,0,0,0-2.37,3.27,11.2,11.2,0,0,0-1.1,4.23l.06,34a4.93,4.93,0,0,1-.33,1.75,2.88,2.88,0,0,1-1,1.34,4.81,4.81,0,0,1-1.27.57,5.49,5.49,0,0,1-1.36.15l-11.63,0a3.61,3.61,0,0,1-4.18-3.95l-.06-41.9v-.37l0-15.31V103l0-19.1a4.05,4.05,0,0,1,1-2.83A4.13,4.13,0,0,1,381.72,80l11.64,0a5.45,5.45,0,0,1,2.62.82,2.77,2.77,0,0,1,1,1.34,4.68,4.68,0,0,1,.34,1.65Z"/><path class="cls-5" d="M504.77,156.78a34.21,34.21,0,0,1-10.19,6.52,30.85,30.85,0,0,1-12,2.36A35,35,0,0,1,458.23,156a34.27,34.27,0,0,1-7.53-10.72,32.4,32.4,0,0,1-2.8-13.43,34.74,34.74,0,0,1,4.22-16.74,33.6,33.6,0,0,1,4.93-6.83,31,31,0,0,1,6.5-5.33,31.82,31.82,0,0,1,7.82-3.46,31.3,31.3,0,0,1,8.91-1.25,30.14,30.14,0,0,1,8.28,1.12,32.51,32.51,0,0,1,7.55,3.17,33.54,33.54,0,0,1,11.52,11.23,30.24,30.24,0,0,1,3.28,7.31,27.61,27.61,0,0,1,1.17,8c0,1.79,0,3.24-.07,4.38a4.94,4.94,0,0,1-.79,2.7,3.89,3.89,0,0,1-2.39,1.39,23.84,23.84,0,0,1-4.92.4l-37.06.05a12.56,12.56,0,0,0,5.73,9,14.35,14.35,0,0,0,4.38,1.87,18.25,18.25,0,0,0,4.37.56,19.4,19.4,0,0,0,3.81-.39,25.64,25.64,0,0,0,3.78-1,22,22,0,0,0,3.35-1.49,11.59,11.59,0,0,0,2.44-1.78,10.57,10.57,0,0,1,1.41-1,2.59,2.59,0,0,1,1.26-.34,2.55,2.55,0,0,1,1.37.46,11.06,11.06,0,0,1,1.57,1.34l5.47,6.17a3.45,3.45,0,0,1,.72,1.21,4.12,4.12,0,0,1,.16,1.1,2.85,2.85,0,0,1-.57,1.78A6.66,6.66,0,0,1,504.77,156.78Zm-24.83-42.84a9.92,9.92,0,0,0-3.89.8,14.74,14.74,0,0,0-3.52,2.14,19.12,19.12,0,0,0-5.08,6.49l26.3,0a30.74,30.74,0,0,0-2.35-3.7,15.7,15.7,0,0,0-2.89-3,12.33,12.33,0,0,0-3.7-2A14.7,14.7,0,0,0,479.94,113.94Z"/><path class="cls-5" d="M8.48,221a2.84,2.84,0,0,1,.72-1.77,2.17,2.17,0,0,1,1.76-.79l17.21,0a3,3,0,0,1,1.8.73,2.22,2.22,0,0,1,.93,1.82l0,27.52,28.8,0,0-27.52a2.53,2.53,0,0,1,2.6-2.56l16.93,0a3.6,3.6,0,0,1,2,.58,2.06,2.06,0,0,1,.87,1.85l.13,81.07a2.37,2.37,0,0,1-.75,1.91,2.94,2.94,0,0,1-2,.64l-17.11,0a2.71,2.71,0,0,1-1.88-.64,2.41,2.41,0,0,1-.72-1.91l-.06-32.91L31,269,31,301.86a2.33,2.33,0,0,1-.78,1.88,3.12,3.12,0,0,1-2.11.67l-17,0c-1.62,0-2.46-.75-2.5-2.26Z"/><path class="cls-5" d="M163.36,295.39a39,39,0,0,1-11.46,7.35,35.13,35.13,0,0,1-13.5,2.66A39.47,39.47,0,0,1,111,294.52a38.45,38.45,0,0,1-8.48-12.07,36.49,36.49,0,0,1-3.15-15.12,39.19,39.19,0,0,1,4.75-18.84,37.91,37.91,0,0,1,5.55-7.68,35.11,35.11,0,0,1,7.32-6,35.78,35.78,0,0,1,8.8-3.9,35.32,35.32,0,0,1,10-1.4,33.77,33.77,0,0,1,9.33,1.26,36.07,36.07,0,0,1,8.5,3.57,37.85,37.85,0,0,1,13,12.64,34.83,34.83,0,0,1,3.69,8.23,31.61,31.61,0,0,1,1.32,9c0,2,0,3.66-.08,4.93a5.59,5.59,0,0,1-.9,3,4.32,4.32,0,0,1-2.69,1.57,26.79,26.79,0,0,1-5.53.45l-41.72.06a14.32,14.32,0,0,0,2.36,6.2,14.61,14.61,0,0,0,4.09,4,16.26,16.26,0,0,0,4.93,2.11,20.94,20.94,0,0,0,4.92.63,22.16,22.16,0,0,0,4.29-.44,31.46,31.46,0,0,0,4.26-1.17,23.61,23.61,0,0,0,3.76-1.69,12.54,12.54,0,0,0,2.75-2,12.61,12.61,0,0,1,1.59-1.13,2.85,2.85,0,0,1,1.42-.38,2.78,2.78,0,0,1,1.54.52,12.29,12.29,0,0,1,1.76,1.5l6.16,6.95a3.79,3.79,0,0,1,.81,1.36,4.33,4.33,0,0,1,.18,1.24,3.19,3.19,0,0,1-.64,2A7,7,0,0,1,163.36,295.39Zm-28-48.22a11.07,11.07,0,0,0-4.37.9,17.13,17.13,0,0,0-4,2.41,20.74,20.74,0,0,0-3.32,3.43,20.21,20.21,0,0,0-2.4,3.88l29.61,0a34.16,34.16,0,0,0-2.65-4.17,18.11,18.11,0,0,0-3.24-3.36,14.12,14.12,0,0,0-4.18-2.25A16.57,16.57,0,0,0,135.41,247.17Z"/><path class="cls-5" d="M186.45,205.77a4.68,4.68,0,0,1,1-3.44,4.46,4.46,0,0,1,3.24-1l13.44,0a5,5,0,0,1,3.28,1,4.23,4.23,0,0,1,1.25,3.45l0,11.3a4.23,4.23,0,0,1-.32,1.51,6.45,6.45,0,0,1-.89,1.56,5,5,0,0,1-1.42,1.25,3.74,3.74,0,0,1-1.88.5l-13.45,0q-4.27,0-4.29-4.81Zm.05,29.32a5,5,0,0,1,1-3.18,3.85,3.85,0,0,1,3.24-1.34l13.27,0a4.15,4.15,0,0,1,1.5.31,5,5,0,0,1,1.51.93,5.84,5.84,0,0,1,1.19,1.42,3.46,3.46,0,0,1,.5,1.85l.1,64.6a4.35,4.35,0,0,1-1.21,3.34,4.94,4.94,0,0,1-3.48,1.13l-13.27,0c-2.85,0-4.29-1.48-4.29-4.45Z"/><path class="cls-5" d="M279,301.47a13.91,13.91,0,0,0,.6-4.49c0-1.69,0-3.39,0-5.13-1.12,1.2-2.26,2.46-3.42,3.8a30.68,30.68,0,0,1-3.84,3.71,19.38,19.38,0,0,1-4.78,2.82,16,16,0,0,1-6.2,1.11,38.65,38.65,0,0,1-14.49-2.64,34.66,34.66,0,0,1-11.54-7.43,33.63,33.63,0,0,1-7.61-11.43,38.27,38.27,0,0,1-2.74-14.66,40.15,40.15,0,0,1,2.7-14.86,36.87,36.87,0,0,1,7.57-12.07,35.41,35.41,0,0,1,26-11,18,18,0,0,1,6.46,1.09,22.22,22.22,0,0,1,5.22,2.83,28.42,28.42,0,0,1,4.29,3.91q2,2.16,3.69,4.31l2.19-6.9.63-1.8a4.55,4.55,0,0,1,.76-1.36,2.83,2.83,0,0,1,1.18-.84,5.19,5.19,0,0,1,1.88-.29l8.64,0a7.72,7.72,0,0,1,1.47.17,2.93,2.93,0,0,1,1.48.81,4.48,4.48,0,0,1,1.22,1.39,4,4,0,0,1,.41,1.91l.09,59a41.32,41.32,0,0,1-2.93,16.11,33.78,33.78,0,0,1-20.19,19.39,43.94,43.94,0,0,1-15.06,2.57,45.36,45.36,0,0,1-6.72-.54,49.32,49.32,0,0,1-7.16-1.64,42.08,42.08,0,0,1-6.9-2.8,28.88,28.88,0,0,1-5.89-4,6.13,6.13,0,0,1-1.22-1.22,4.13,4.13,0,0,1-.72-1.56,4.25,4.25,0,0,1,0-1.88,5.78,5.78,0,0,1,.95-2.12l5.49-7.6a4.72,4.72,0,0,1,2.84-1.74,5.31,5.31,0,0,1,3.36,1.39A11.73,11.73,0,0,0,250,310a23.07,23.07,0,0,0,3.88,1.33,25.19,25.19,0,0,0,3.94.63c1.29.09,2.46.14,3.51.14a23.1,23.1,0,0,0,5.44-.71,21.23,21.23,0,0,0,5.3-2.06,17.87,17.87,0,0,0,4.34-3.34A10.47,10.47,0,0,0,279,301.47Zm-33.2-34.37a21.59,21.59,0,0,0,1.2,7.21,17.07,17.07,0,0,0,3.4,5.76,15.7,15.7,0,0,0,5.31,3.82,16.73,16.73,0,0,0,6.87,1.38,18.48,18.48,0,0,0,7-1.32,17.57,17.57,0,0,0,5.7-3.63,18,18,0,0,0,3.9-5.45,17.69,17.69,0,0,0,1.64-6.78v-1.91a17.63,17.63,0,0,0-1.66-6.69,19.23,19.23,0,0,0-3.92-5.56,18.54,18.54,0,0,0-5.71-3.81,17.2,17.2,0,0,0-7-1.41,15.64,15.64,0,0,0-6.86,1.49,16.34,16.34,0,0,0-5.3,4,17.79,17.79,0,0,0-3.38,5.86A21.11,21.11,0,0,0,245.76,267.1Z"/><path class="cls-5" d="M339.76,238.07a23.06,23.06,0,0,1,2.66-3.21,17.61,17.61,0,0,1,3.67-2.83,21,21,0,0,1,4.81-2,21.6,21.6,0,0,1,6.11-.79,25.81,25.81,0,0,1,20.62,9.44,30.93,30.93,0,0,1,5.52,10.25,41,41,0,0,1,1.9,12.54l.06,37.95a5.07,5.07,0,0,1-.95,3.33,3.79,3.79,0,0,1-3,1.14l-13.39,0a5.2,5.2,0,0,1-3.42-.84q-.93-.84-.93-3.27l-.06-38.3a11.19,11.19,0,0,0-1-4.63,12,12,0,0,0-2.59-3.74,12,12,0,0,0-8.4-3.37,10.43,10.43,0,0,0-4.09.84,11.89,11.89,0,0,0-3.59,2.38,13.62,13.62,0,0,0-2.66,3.69,12.49,12.49,0,0,0-1.24,4.75l.07,38.24a5.47,5.47,0,0,1-.38,2,3.08,3.08,0,0,1-1.13,1.51,5.4,5.4,0,0,1-1.41.64,6,6,0,0,1-1.54.18l-13.09,0a4.66,4.66,0,0,1-3.6-1.21,4.72,4.72,0,0,1-1.11-3.25l-.07-47.16v-.41l0-17.23v-.29l0-21.5a4.61,4.61,0,0,1,1.09-3.19,4.66,4.66,0,0,1,3.6-1.22l13.09,0a6.17,6.17,0,0,1,3,.92,3.14,3.14,0,0,1,1.13,1.51,5.23,5.23,0,0,1,.38,1.85Z"/><path class="cls-5" d="M406.25,218.76a3.17,3.17,0,0,1,1.18-2.7,13.25,13.25,0,0,1,3.39-1.71l13.14-4.6a2.8,2.8,0,0,1,.55-.06h.5a3.05,3.05,0,0,1,2.87,1.24,6.6,6.6,0,0,1,.73,3.27l0,18.25h9.67a4.19,4.19,0,0,1,3,1.1,4.34,4.34,0,0,1,1.16,3.3l0,11.18a4.79,4.79,0,0,1-1.15,3.56,4.13,4.13,0,0,1-3,1.14h-9.68l.13,46.59a4.2,4.2,0,0,1-1.27,3.33,5.11,5.11,0,0,1-3.53,1.14l-13.1,0c-3,0-4.46-1.48-4.47-4.46l-.13-46.58H402q-4.45,0-4.47-4.69V236.91c0-2.94,1.48-4.41,4.45-4.41h4.23Z"/><path class="cls-5" d="M465.56,280.84a17.25,17.25,0,0,0,3.39,2.63,25.78,25.78,0,0,0,3.51,1.73,20.61,20.61,0,0,0,3,.95,9.93,9.93,0,0,0,1.74.29c.73,0,1.67,0,2.81-.09a15.09,15.09,0,0,0,3.27-.53,6.75,6.75,0,0,0,2.69-1.42,3.49,3.49,0,0,0,1.13-2.79,4.59,4.59,0,0,0-.64-2.57,5.13,5.13,0,0,0-1.86-1.62,15,15,0,0,0-3-1.19c-1.17-.34-2.5-.75-4-1.21a48.12,48.12,0,0,1-11.48-4.44,25.75,25.75,0,0,1-7.16-5.81,19,19,0,0,1-3.69-6.92,29,29,0,0,1-1.06-7.82,19.83,19.83,0,0,1,1.9-8.75,19.27,19.27,0,0,1,5.44-6.76,25.69,25.69,0,0,1,8.45-4.36,39.64,39.64,0,0,1,17.79-1,27.65,27.65,0,0,1,6.09,1.91,29.76,29.76,0,0,1,5.65,3.35,44.83,44.83,0,0,1,5.48,4.89,3.6,3.6,0,0,1,1,2.17,3,3,0,0,1-1.3,2.17c-1.51,1.24-2.94,2.46-4.31,3.66s-2.79,2.53-4.25,4a3.29,3.29,0,0,1-1.39.73,2.75,2.75,0,0,1-1.34,0,3.72,3.72,0,0,1-1.21-.57,4.91,4.91,0,0,1-1.05-1,10.09,10.09,0,0,0-4.64-3,17,17,0,0,0-4.87-.78,9,9,0,0,0-4.51,1,3,3,0,0,0-1.56,3,3.18,3.18,0,0,0,1.13,2.35,8,8,0,0,0,2.49,1.35,21.41,21.41,0,0,0,3.13.84c1.1.21,2.12.45,3,.72a90.85,90.85,0,0,1,9.56,3.63,29.18,29.18,0,0,1,7.54,4.83,20,20,0,0,1,5,6.86,24.13,24.13,0,0,1,1.78,9.73A22.5,22.5,0,0,1,507,291.26a21.93,21.93,0,0,1-6.28,7.6,28.84,28.84,0,0,1-9.46,4.71,41.73,41.73,0,0,1-11.79,1.64,43.46,43.46,0,0,1-7.3-.63,34.33,34.33,0,0,1-7.19-2,32.83,32.83,0,0,1-6.61-3.64,25.93,25.93,0,0,1-5.57-5.41,5.83,5.83,0,0,1-1-1.71,4.65,4.65,0,0,1-.3-1.77,4.3,4.3,0,0,1,.35-1.59,3.17,3.17,0,0,1,1-1.25l7.46-7.48a2.65,2.65,0,0,1,2.47-.82A8.24,8.24,0,0,1,465.56,280.84Z"/></g></g></svg>