<svg xmlns="http://www.w3.org/2000/svg" xmlns:xlink="http://www.w3.org/1999/xlink" viewBox="0 0 291.13 386.79"><defs><style>.cls-1{fill:url(#linear-gradient);}.cls-2{fill:url(#linear-gradient-2);}.cls-3,.cls-4{fill:none;stroke-miterlimit:10;stroke-width:5px;}.cls-3{stroke:#ffc65f;}.cls-4{stroke:#29abe2;}.cls-5,.cls-8{fill:#fff;}.cls-6{fill:url(#linear-gradient-3);}.cls-7{fill:url(#linear-gradient-4);}.cls-8{font-size:133.34px;font-family:CocogoosePro-Italic, Cocogoose Pro;font-style:italic;}</style><linearGradient id="linear-gradient" y1="131.6" x2="145.57" y2="131.6" gradientUnits="userSpaceOnUse"><stop offset="0" stop-color="#0071bc"/><stop offset="0.89" stop-color="#6ed2ff"/></linearGradient><linearGradient id="linear-gradient-2" x1="145.3" y1="131.6" x2="290.87" y2="131.6" gradientUnits="userSpaceOnUse"><stop offset="0" stop-color="#29abe2"/><stop offset="0.89" stop-color="#fff"/></linearGradient><linearGradient id="linear-gradient-3" y1="257.66" x2="145.83" y2="257.66" gradientUnits="userSpaceOnUse"><stop offset="0.11" stop-color="#fff"/><stop offset="1" stop-color="#29abe2"/></linearGradient><linearGradient id="linear-gradient-4" x1="145.57" y1="257.43" x2="291.13" y2="257.43" gradientUnits="userSpaceOnUse"><stop offset="0.11" stop-color="#6ed2ff"/><stop offset="1" stop-color="#0071bc"/></linearGradient></defs><title>Asset 2</title><g id="Layer_2" data-name="Layer 2"><g id="Layer_1-2" data-name="Layer 1"><polygon class="cls-1" points="0 131.83 145.3 47.63 145.57 215.56 0 131.83"/><polygon class="cls-2" points="290.87 131.37 145.3 47.63 145.57 215.56 290.87 131.37"/><path class="cls-3" d="M215.28,330.6q-.19-40.91-.37-81.82c-.07-13.68-.18-27.37-.26-41.05q-.12-20.85-.21-41.69-.12-40-.17-80.11V84.14c-2.52-.61-2.6-.81-2.37-3.36.12-1.27-.06-2.57-.06-3.86,0-5.76,0-11.52-.06-17.27a4.6,4.6,0,0,0-.72-1.87c-.32-.59-1-1.07-1.13-1.69-.89-3.23-1.66-6.5-2.49-9.75-1.62-6.36-3.31-12.71-4.87-19.08-.72-3-1.23-6-1.79-8.94-.16-.86.05-1.49,1.21-1.5.33,0,.91-.77.92-1.2s-.53-1.24-.85-1.25c-1.19,0-1.32-.67-1.31-1.63,0-2.74,0-5.49,0-8.24,0-1.1-.15-2-1.53-2s-1.73.84-1.72,2c0,2.7,0,5.4,0,8.09,0,1-.08,1.72-1.37,1.76-.28,0-.73.85-.75,1.33s.51,1.07.82,1.09c1.27.06,1.45.81,1.39,1.78a11.07,11.07,0,0,1-.27,2c-1.55,6-3.16,11.88-4.68,17.84s-2.9,11.85-4.42,17.77c-.15.57-.77,1.43-1.22,1.46-1.5.1-1.59.92-1.58,2.09,0,6.95,0,13.9.05,20.85,0,3.13,0,3.13-3.1,3.14-2.43,0-2.5.08-2.5,2.57q0,8.4,0,16.8c0,.71.14,1.7-.92,1.61-2.19-.18-2.13,1.2-2.13,2.69q0,9.72,0,19.44c0,.77.16,1.77-1,1.66-.35,0-.86-1-.86-1.6-.07-4.56,0-9.13-.06-13.69,0-.74-.34-1.9-.85-2.13a33.31,33.31,0,0,0-6.81-2.43c-3.49-.72-6.71.59-9.85,2.06a2.77,2.77,0,0,0-1.8,2.9c.07,4.46.05,8.92,0,13.38,0,.58.39,1.56-.74,1.46-.27,0-.66-.92-.66-1.42q-.07-9.25,0-18.51c0-4,.22-3.71-3.69-3.7-4.29,0-4.3,0-4.35-4.28,0-.94,0-1.74-1.25-2-.28-.06-.61-.77-.62-1.18-.06-2.44,0-4.88-.05-7.31,0-.89.25-1.41,1.24-1.32s1.57-.38,1.63-1.52a1.56,1.56,0,0,1,1.09-1c1-.12,1.53-.64,1.35-1.49a2.3,2.3,0,0,0-1.27-1.54c-1-.21-1.32-.56-1.24-1.53s-.42-1.68-1.46-1.5c-1.39.24-1.71-.3-1.71-1.59,0-.43-.85-1.27-1.14-1.2-.55.14-1.41.84-1.37,1.21.19,1.63-.6,1.72-1.84,1.57-1-.12-1.68.5-1.53,1.47.18,1.16-.26,1.36-1.26,1.59-.5.11-1,1-1.16,1.62s.23,1.42,1.23,1.34,1.34.34,1.23,1.3.47,1.41,1.4,1.33c1.09-.1,1.5.4,1.49,1.45,0,2.38,0,4.77,0,7.15,0,.41-.22,1.1-.46,1.15-1.15.28-1.07,1.1-1,1.94s0,1.56,0,2.34c0,2-.05,2-2.12,2-1.25,0-2.5.08-3.74,0-1.46-.09-2,.42-2,2,.07,6.59.06,13.17,0,19.76,0,.72.52,2-.73,2s-.88-1.31-.89-2.08q0-6.45.11-12.9a2.7,2.7,0,0,0-2.11-3c-1.92-.6-3.86-1.19-5.72-1.94a4.51,4.51,0,0,0-3.72,0c-1.71.73-3.51,1.25-5.28,1.82-2.42.79-2.44.78-2.43,3.36,0,4.46,0,8.92,0,13.38a2.15,2.15,0,0,1-.5,1.34,1.09,1.09,0,0,1-1.09-.07,2.45,2.45,0,0,1-.37-1.4q0-10.19,0-20.38c0-1.09-.23-1.9-1.52-1.76-1.65.18-2-.63-2-2.11.07-5.65,0-11.3,0-17,0-1.13-.23-2-1.57-2-3.23.08-2.9-.45-3-3.28,0-.73,0-1.45,0-2.18l0-18.51c0-1.09,0-2.1-1.55-2.14-.35,0-.86-.7-1-1.16-1-3.89-2-7.81-3-11.72-1.65-6.51-3.32-13-4.91-19.53-.55-2.25-.94-4.54-1.32-6.83-.14-.82,0-1.55,1.21-1.48.94.07,1.16-.67,1-1.37-.13-.45-.64-1.13-1-1.14-1.14,0-1.23-.61-1.22-1.5,0-2.8,0-5.6,0-8.4,0-1.11-.18-1.95-1.57-2s-1.72.78-1.7,2c0,2.75,0,5.5,0,8.25,0,.86-.11,1.49-1.2,1.61-.38.05-.85.71-1,1.16-.18.69,0,1.39,1,1.34s1.24.56,1.19,1.4a12,12,0,0,1-.19,2.16q-2.43,9.86-4.93,19.7-2.07,8.25-4.19,16.48c-.08.32-.26.82-.48.87-1.57.4-1.55,1.6-1.54,2.83,0,7.36,0,14.73.07,22.09,0,1-.18,1.49-1.26,1.35s-1.47.48-1.4,1.5c0,.36,0,.72,0,1.08.15,93.14.08,110.27.36,203.4l143,4.21C215.24,280.93,215.33,343.77,215.28,330.6Z"/><path class="cls-4" d="M220.28,335.6q-.19-40.91-.37-81.82c-.07-13.68-.18-27.37-.26-41.05q-.12-20.85-.21-41.69-.12-40-.17-80.11V89.14c-2.52-.61-2.6-.81-2.37-3.36.12-1.27-.06-2.57-.06-3.86,0-5.76,0-11.52-.06-17.27a4.6,4.6,0,0,0-.72-1.87c-.32-.59-1-1.07-1.13-1.69-.89-3.23-1.66-6.5-2.49-9.75-1.62-6.36-3.31-12.71-4.87-19.08-.72-2.95-1.23-5.95-1.79-8.94-.16-.86.05-1.49,1.21-1.5.33,0,.91-.77.92-1.2s-.53-1.24-.85-1.25c-1.19-.05-1.32-.67-1.31-1.63,0-2.74,0-5.49,0-8.24,0-1.1-.15-2-1.53-2s-1.73.84-1.72,2c0,2.7,0,5.4,0,8.09,0,1-.08,1.72-1.37,1.76-.28,0-.73.85-.75,1.33s.51,1.07.82,1.09c1.27.06,1.45.81,1.39,1.78a11.07,11.07,0,0,1-.27,2c-1.55,6-3.16,11.88-4.68,17.84s-2.9,11.85-4.42,17.77c-.15.57-.77,1.43-1.22,1.46-1.5.1-1.59.92-1.58,2.09,0,7,0,13.9.05,20.85,0,3.13,0,3.13-3.1,3.14-2.43,0-2.5.08-2.5,2.57q0,8.4,0,16.8c0,.71.14,1.7-.92,1.61-2.19-.18-2.13,1.2-2.13,2.69q0,9.72,0,19.44c0,.77.16,1.77-1,1.66-.35,0-.86-1-.86-1.6-.07-4.56,0-9.13-.06-13.69,0-.74-.34-1.9-.85-2.13a33.31,33.31,0,0,0-6.81-2.43c-3.49-.72-6.71.59-9.85,2.06a2.77,2.77,0,0,0-1.8,2.9c.07,4.46.05,8.92,0,13.38,0,.58.39,1.56-.74,1.46-.27,0-.66-.92-.66-1.42q-.07-9.25,0-18.51c0-4,.22-3.71-3.69-3.7-4.29,0-4.3,0-4.35-4.28,0-.94,0-1.74-1.25-2-.28-.06-.61-.77-.62-1.18-.06-2.44,0-4.88-.05-7.31,0-.89.25-1.41,1.24-1.32s1.57-.38,1.63-1.52a1.56,1.56,0,0,1,1.09-1c1-.12,1.53-.64,1.35-1.49a2.3,2.3,0,0,0-1.27-1.54c-1-.21-1.32-.56-1.24-1.53s-.42-1.68-1.46-1.5c-1.39.24-1.71-.3-1.71-1.59,0-.43-.85-1.27-1.14-1.2-.55.14-1.41.84-1.37,1.21.19,1.63-.6,1.72-1.84,1.57-1-.12-1.68.5-1.53,1.47.18,1.16-.26,1.36-1.26,1.59-.5.11-1,1-1.16,1.62s.23,1.42,1.23,1.34,1.34.34,1.23,1.3.47,1.41,1.4,1.33c1.09-.1,1.5.4,1.49,1.45,0,2.38,0,4.77,0,7.15,0,.41-.22,1.1-.46,1.15-1.15.28-1.07,1.1-1,1.94s0,1.56,0,2.34c0,2-.05,2-2.12,2-1.25,0-2.5.08-3.74,0-1.46-.09-2,.42-2,2,.07,6.59.06,13.17,0,19.76,0,.72.52,2-.73,2s-.88-1.31-.89-2.08q0-6.45.11-12.9a2.7,2.7,0,0,0-2.11-3c-1.92-.6-3.86-1.19-5.72-1.94a4.51,4.51,0,0,0-3.72,0c-1.71.73-3.51,1.25-5.28,1.82-2.42.79-2.44.78-2.43,3.36,0,4.46,0,8.92,0,13.38a2.15,2.15,0,0,1-.5,1.34,1.09,1.09,0,0,1-1.09-.07,2.45,2.45,0,0,1-.37-1.4q0-10.18,0-20.38c0-1.09-.23-1.9-1.52-1.76-1.65.18-2-.63-2-2.11.07-5.65,0-11.3,0-17,0-1.13-.23-2-1.57-2-3.23.08-2.9-.45-3-3.28,0-.73,0-1.45,0-2.18l0-18.51c0-1.09,0-2.1-1.55-2.14-.35,0-.86-.7-1-1.16-1-3.89-2-7.81-3-11.72-1.65-6.51-3.32-13-4.91-19.53-.55-2.25-.94-4.54-1.32-6.83-.14-.82,0-1.55,1.21-1.48.94.07,1.16-.67,1-1.37-.13-.45-.64-1.13-1-1.14-1.14,0-1.23-.61-1.22-1.5,0-2.8,0-5.6,0-8.4,0-1.11-.18-2-1.57-2s-1.72.78-1.7,2c0,2.75,0,5.5,0,8.25,0,.86-.11,1.49-1.2,1.61-.38,0-.85.71-1,1.16-.18.69,0,1.39,1,1.34s1.24.56,1.19,1.4a12,12,0,0,1-.19,2.16q-2.43,9.85-4.93,19.7-2.07,8.25-4.19,16.48c-.08.32-.26.82-.48.87-1.57.4-1.55,1.6-1.54,2.83,0,7.36,0,14.73.07,22.09,0,1-.18,1.49-1.26,1.35s-1.47.48-1.4,1.5c0,.36,0,.72,0,1.08.15,93.14.08,110.27.36,203.4l143,4.21C220.24,285.93,220.33,348.77,220.28,335.6Z"/><path class="cls-5" d="M217.19,333.53q-.18-40.9-.36-81.81c-.07-13.69-.18-27.37-.26-41.06q-.12-20.83-.21-41.68-.12-40.06-.17-80.12V87.08c-2.52-.62-2.6-.82-2.37-3.36.12-1.28-.06-2.58-.06-3.87,0-5.75,0-11.51-.06-17.27a4.56,4.56,0,0,0-.72-1.86c-.33-.6-1-1.08-1.13-1.69-.89-3.24-1.66-6.51-2.49-9.76-1.62-6.36-3.31-12.7-4.87-19.08-.72-3-1.23-6-1.79-8.94-.16-.85.05-1.49,1.21-1.49.33,0,.91-.78.92-1.21s-.53-1.24-.85-1.25c-1.19,0-1.33-.66-1.32-1.62,0-2.75,0-5.5,0-8.25,0-1.1-.15-2-1.53-2s-1.73.84-1.72,2c0,2.69,0,5.39,0,8.09,0,1-.08,1.72-1.37,1.75-.28,0-.73.86-.75,1.33s.51,1.08.82,1.09c1.27.06,1.45.81,1.38,1.79a10.34,10.34,0,0,1-.26,2c-1.55,5.95-3.17,11.88-4.68,17.84s-2.9,11.85-4.42,17.76c-.15.58-.77,1.43-1.22,1.46-1.5.1-1.59.93-1.58,2.1,0,6.94,0,13.89,0,20.84,0,3.13,0,3.13-3.1,3.14-2.43,0-2.5.08-2.5,2.57q0,8.42,0,16.81c0,.71.14,1.7-.92,1.61-2.19-.19-2.13,1.2-2.13,2.68q0,9.72,0,19.45c0,.76.16,1.77-1,1.66-.35,0-.86-1-.86-1.61-.07-4.56,0-9.12-.06-13.68,0-.74-.34-1.91-.85-2.14a34.14,34.14,0,0,0-6.81-2.43c-3.49-.72-6.71.6-9.85,2.06a2.79,2.79,0,0,0-1.8,2.91c.07,4.46,0,8.92,0,13.38,0,.57.39,1.55-.74,1.45-.27,0-.66-.92-.66-1.41-.06-6.17-.06-12.34-.05-18.51,0-4,.22-3.71-3.7-3.7-4.28,0-4.29,0-4.34-4.29,0-.93-.05-1.74-1.25-2-.28-.06-.61-.76-.62-1.18-.06-2.43,0-4.87-.05-7.31,0-.89.25-1.41,1.24-1.31s1.56-.38,1.63-1.52a1.58,1.58,0,0,1,1.08-1.06c1-.11,1.54-.63,1.35-1.48a2.27,2.27,0,0,0-1.26-1.54c-1-.21-1.32-.56-1.24-1.53s-.42-1.69-1.46-1.51c-1.39.25-1.71-.3-1.72-1.58,0-.43-.84-1.27-1.13-1.2-.55.13-1.41.83-1.37,1.2.19,1.63-.6,1.73-1.84,1.58-1-.12-1.68.49-1.53,1.47.18,1.15-.26,1.36-1.26,1.59-.5.11-1,1-1.16,1.61s.23,1.42,1.23,1.35,1.34.34,1.23,1.29.47,1.42,1.4,1.33c1.09-.09,1.5.4,1.49,1.45,0,2.39,0,4.77,0,7.16,0,.4-.22,1.09-.46,1.15-1.15.28-1.07,1.1-1.05,1.94s0,1.55,0,2.33c0,2,0,2-2.13,2.06-1.24,0-2.49.07-3.73,0-1.46-.1-2,.41-2,2,.07,6.58.06,13.17,0,19.75,0,.73.52,2-.73,2s-.88-1.31-.89-2.07q0-6.45.11-12.91a2.7,2.7,0,0,0-2.11-3c-1.92-.6-3.86-1.19-5.72-1.93a4.53,4.53,0,0,0-3.73,0c-1.7.73-3.5,1.25-5.27,1.83-2.42.78-2.44.78-2.43,3.36,0,4.46,0,8.91,0,13.37a2.19,2.19,0,0,1-.5,1.34,1.12,1.12,0,0,1-1.09-.06,2.47,2.47,0,0,1-.37-1.4q0-10.2,0-20.38c0-1.1-.23-1.9-1.52-1.76-1.65.17-2-.63-2-2.11.07-5.66,0-11.31,0-17,0-1.14-.23-2-1.57-2-3.23.08-2.9-.45-3-3.28,0-.72,0-1.45,0-2.17l0-18.52c0-1.09,0-2.1-1.55-2.13-.35,0-.86-.7-1-1.16-1-3.9-2-7.81-3-11.72-1.65-6.51-3.32-13-4.91-19.54-.55-2.25-.94-4.54-1.32-6.82-.14-.83,0-1.56,1.21-1.48.94.06,1.16-.68,1-1.37-.13-.46-.64-1.14-1-1.14-1.14,0-1.23-.61-1.22-1.5,0-2.8,0-5.6,0-8.4,0-1.12-.18-1.95-1.57-2s-1.72.77-1.7,2c0,2.75,0,5.49,0,8.24,0,.86-.11,1.49-1.2,1.62-.38,0-.85.7-1,1.16-.18.69,0,1.38,1,1.33s1.24.57,1.19,1.4a12.85,12.85,0,0,1-.19,2.16q-2.43,9.86-4.93,19.7-2.08,8.25-4.19,16.49c-.08.32-.26.81-.48.87-1.58.4-1.55,1.59-1.54,2.83,0,7.36,0,14.72.07,22.09,0,1-.18,1.48-1.26,1.34s-1.47.49-1.4,1.5c0,.36,0,.73,0,1.09.15,93.13.08,110.26.36,203.39l143,4.22C217.15,283.87,217.25,346.7,217.19,333.53Z"/><polygon class="cls-6" points="0 131.83 0.26 299.76 145.83 383.5 145.57 215.56 0 131.83"/><polygon class="cls-7" points="290.87 131.37 291.13 299.3 145.83 383.5 145.57 215.56 290.87 131.37"/><text class="cls-8" transform="matrix(1.15, -0.58, 0.11, 0.99, 162.65, 337.36)">4</text></g></g></svg>