<svg xmlns="http://www.w3.org/2000/svg" viewBox="0 0 291.13 381.36"><defs><style>.cls-1{fill:#fff}.cls-2,.cls-3{fill:#29abe2}.cls-3{font-size:133.34px;font-family:CocogoosePro-Italic,Cocogoose Pro;font-style:italic}</style></defs><title>light-minimal</title><g id="Layer_2" data-name="Layer 2"><g id="Layer_1-2" data-name="Layer 1"><polygon points="0 126.39 145.3 42.2 145.57 210.13 0 126.39" class="cls-1"/><polygon points="290.87 125.94 145.3 42.2 145.57 210.13 290.87 125.94" class="cls-1"/><path d="M217.19,328.1q-.18-40.91-.36-81.82c-.07-13.68-.18-27.37-.26-41.05q-.12-20.85-.21-41.69-.12-40-.17-80.11V81.64c-2.52-.61-2.6-.81-2.37-3.36.12-1.27-.06-2.57-.06-3.86,0-5.76,0-11.52-.06-17.27a4.6,4.6,0,0,0-.72-1.87c-.33-.59-1-1.07-1.13-1.69-.89-3.23-1.66-6.5-2.49-9.75-1.62-6.36-3.31-12.71-4.87-19.08-.72-3-1.23-6-1.79-8.94-.16-.86.05-1.49,1.21-1.5.33,0,.91-.77.92-1.2s-.53-1.24-.85-1.25c-1.19,0-1.33-.67-1.32-1.63,0-2.74,0-5.49,0-8.24,0-1.1-.15-2-1.53-2s-1.73.84-1.72,2c0,2.7,0,5.4,0,8.09,0,1-.08,1.72-1.37,1.76-.28,0-.73.85-.75,1.33s.51,1.07.82,1.09c1.27.06,1.45.81,1.38,1.78a10.24,10.24,0,0,1-.26,2c-1.55,6-3.17,11.88-4.68,17.84s-2.9,11.85-4.42,17.77c-.15.57-.77,1.43-1.22,1.46-1.5.1-1.59.92-1.58,2.09,0,6.95,0,13.9,0,20.85,0,3.13,0,3.13-3.1,3.14-2.43,0-2.5.08-2.5,2.57q0,8.4,0,16.8c0,.71.14,1.7-.92,1.61-2.19-.18-2.13,1.2-2.13,2.69q0,9.72,0,19.44c0,.77.16,1.77-1,1.66-.35,0-.86-1-.86-1.6-.07-4.56,0-9.13-.06-13.69,0-.74-.34-1.9-.85-2.13a33.53,33.53,0,0,0-6.81-2.43c-3.49-.72-6.71.59-9.85,2.06a2.77,2.77,0,0,0-1.8,2.9c.07,4.46,0,8.92,0,13.38,0,.58.39,1.56-.74,1.46-.27,0-.66-.92-.66-1.42-.06-6.17-.06-12.34-.05-18.51,0-4,.22-3.71-3.7-3.7-4.28,0-4.29,0-4.34-4.28,0-.94-.05-1.74-1.25-2-.28-.06-.61-.77-.62-1.18-.06-2.44,0-4.88-.05-7.31,0-.89.25-1.41,1.24-1.32s1.56-.38,1.63-1.52a1.56,1.56,0,0,1,1.08-1c1-.12,1.54-.64,1.35-1.49a2.27,2.27,0,0,0-1.26-1.54c-1-.21-1.32-.56-1.24-1.53s-.42-1.68-1.46-1.5c-1.39.24-1.71-.3-1.72-1.59,0-.43-.84-1.27-1.13-1.2-.55.14-1.41.84-1.37,1.21.19,1.63-.6,1.72-1.84,1.57-1-.12-1.68.5-1.53,1.47.18,1.16-.26,1.36-1.26,1.59-.5.11-1,1-1.16,1.62s.23,1.42,1.23,1.34,1.34.34,1.23,1.3.47,1.41,1.4,1.33c1.09-.1,1.5.4,1.49,1.45,0,2.38,0,4.77,0,7.15,0,.41-.22,1.1-.46,1.15-1.15.28-1.07,1.1-1.05,1.94s0,1.56,0,2.34c0,2,0,2-2.13,2-1.24,0-2.49.08-3.73,0-1.46-.09-2,.42-2,2,.07,6.59.06,13.17,0,19.76,0,.72.52,2-.73,2s-.88-1.31-.89-2.08q0-6.45.11-12.9a2.7,2.7,0,0,0-2.11-3c-1.92-.6-3.86-1.19-5.72-1.94a4.53,4.53,0,0,0-3.73,0c-1.7.73-3.5,1.25-5.27,1.82-2.42.79-2.44.78-2.43,3.36,0,4.46,0,8.92,0,13.38a2.21,2.21,0,0,1-.5,1.34,1.09,1.09,0,0,1-1.09-.07,2.45,2.45,0,0,1-.37-1.4q0-10.19,0-20.38c0-1.09-.23-1.9-1.52-1.76-1.65.18-2-.63-2-2.11.07-5.65,0-11.3,0-17,0-1.13-.23-2-1.57-2-3.23.08-2.9-.45-3-3.28,0-.73,0-1.45,0-2.18l0-18.51c0-1.09,0-2.1-1.55-2.14-.35,0-.86-.7-1-1.16-1-3.89-2-7.81-3-11.72-1.65-6.51-3.32-13-4.91-19.53C91.77,20.6,91.38,18.31,91,16c-.14-.82,0-1.55,1.21-1.48.94.07,1.16-.67,1-1.37-.13-.45-.64-1.13-1-1.14-1.14,0-1.23-.61-1.22-1.5,0-2.8,0-5.6,0-8.4C91,1,90.81.18,89.42.17s-1.72.78-1.7,2c0,2.75,0,5.5,0,8.25,0,.86-.11,1.49-1.2,1.61-.38.05-.85.71-1,1.16-.18.69,0,1.39,1,1.34s1.24.56,1.19,1.4a12.94,12.94,0,0,1-.19,2.16q-2.43,9.86-4.93,19.7Q80.56,46,78.45,54.27c-.08.32-.26.82-.48.87-1.58.4-1.55,1.6-1.54,2.83,0,7.36,0,14.73.07,22.09,0,1-.18,1.49-1.26,1.35s-1.47.48-1.4,1.5c0,.36,0,.72,0,1.08.15,93.14.08,110.27.36,203.4l143,4.21C217.15,278.43,217.25,341.27,217.19,328.1Z" class="cls-2"/><polygon points="0 126.39 .26 294.32 145.83 378.06 145.57 210.13 0 126.39" class="cls-1"/><polygon points="290.87 125.94 291.13 293.87 145.83 378.06 145.57 210.13 290.87 125.94" class="cls-1"/><text class="cls-3" transform="matrix(1.15, -0.58, 0.11, 0.99, 162.65, 331.93)">4</text></g></g></svg>